<?xml version="1.0" standalone="no"?>
 <!DOCTYPE svg PUBLIC "-//W3C//DTD SVG 1.1//EN" 
 "http://www.w3.org/Graphics/SVG/1.1/DTD/svg11.dtd"> 
<svg
  xmlns:svg="http://www.w3.org/2000/svg"
  xmlns="http://www.w3.org/2000/svg"
  xmlns:xlink="http://www.w3.org/1999/xlink"
  version="1.1"
  width="11.998960cm" height="11.998960cm" viewBox="0 0 47240 47240">
<title>SVG Picture created as eldriver-F_SilkS.svg date 2021/03/13 12:33:01 </title>
  <desc>Picture generated by PCBNEW </desc>
<g style="fill:#000000; fill-opacity:1;stroke:#000000; stroke-opacity:1;
stroke-linecap:round; stroke-linejoin:round;"
 transform="translate(0 0) scale(1 1)">
</g>
<g style="fill:#000000; fill-opacity:0.0; 
stroke:#000000; stroke-width:-0.000393701; stroke-opacity:1; 
stroke-linecap:round; stroke-linejoin:round;">
</g>
<g style="fill:#000000; fill-opacity:0.0; 
stroke:#000000; stroke-width:47.2441; stroke-opacity:1; 
stroke-linecap:round; stroke-linejoin:round;">
<path d="M11539 21549
L11334 21549
" />
<path d="M11539 20970
L11334 20970
" />
<path d="M11539 20722
L11334 20722
" />
<path d="M11539 20143
L11334 20143
" />
<path d="M11642 17029
L11436 17029
" />
<path d="M11642 16450
L11436 16450
" />
<path d="M13970 14443
L13970 16139
" />
<path d="M12274 16139
L12274 14443
" />
<path d="M12648 14330
L12563 14330
" />
<path d="M12648 14047
L12563 14047
" />
<path d="M13660 14284
L13473 14284
" />
<path d="M13660 13873
L13473 13873
" />
<path d="M27514 11388
L27327 11388
" />
<path d="M27514 11800
L27327 11800
" />
<path d="M27514 12589
L27327 12589
" />
<path d="M27514 13000
L27327 13000
" />
<path d="M30082 21594
L23696 21594
" />
<path d="M23696 21594
L23696 14814
" />
<path d="M23696 14814
L30476 14814
" />
<path d="M30476 14814
L30476 21200
" />
<path d="M17228 13366
L17488 13366
" />
<path d="M16574 13366
L16834 13366
" />
<path d="M16574 13366
L16574 14165
" />
<path d="M17488 13921
L17488 13366
" />
<path d="M18404 18779
L18319 18779
" />
<path d="M18404 18496
L18319 18496
" />
<path d="M15596 20550
L15596 20756
" />
<path d="M15017 20550
L15017 20756
" />
<path d="M16423 20550
L16423 20756
" />
<path d="M15844 20550
L15844 20756
" />
<path d="M17402 21517
L17196 21517
" />
<path d="M17402 20938
L17196 20938
" />
<path d="M17402 20690
L17196 20690
" />
<path d="M17402 20112
L17196 20112
" />
<path d="M15929 18928
L15929 18843
" />
<path d="M16212 18928
L16212 18843
" />
<path d="M19741 18884
L19741 20580
" />
<path d="M18045 20580
L18045 18884
" />
</g>
<g style="fill:#000000; fill-opacity:0.0; 
stroke:#000000; stroke-width:60; stroke-opacity:1; 
stroke-linecap:round; stroke-linejoin:round;">
<path d="M17769 19801
L17769 19632
" />
<path d="M17769 18521
L17600 18521
" />
<path d="M16489 18521
L16489 18690
" />
<path d="M16489 19801
L16658 19801
" />
<path d="M17600 19801
L17769 19801
" />
<path d="M17769 18690
L17769 18521
" />
<path d="M16658 18521
L16489 18521
" />
<path d="M16489 19632
L16489 19801
" />
<path d="M17154 18251
L17304 18251
" />
<path d="M17304 18251
L17304 18351
" />
<path d="M17304 18351
L17154 18351
" />
<path d="M17154 18351
L17154 18251
" />
</g>
<g style="fill:#000000; fill-opacity:0.0; 
stroke:#000000; stroke-width:47.2441; stroke-opacity:1; 
stroke-linecap:round; stroke-linejoin:round;">
<path d="M17774 18217
L17587 18217
" />
<path d="M17774 17806
L17587 17806
" />
<path d="M16569 18217
L16382 18217
" />
<path d="M16569 17806
L16382 17806
" />
<path d="M15784 18300
L15784 18487
" />
<path d="M15373 18300
L15373 18487
" />
<path d="M10044 13816
L10044 14002
" />
<path d="M9632 13816
L9632 14002
" />
<path d="M10004 9544
L10004 9731
" />
<path d="M9593 9544
L9593 9731
" />
<path d="M10639 20511
L10639 20717
" />
<path d="M10061 20511
L10061 20717
" />
<path d="M9812 20511
L9812 20717
" />
<path d="M9234 20511
L9234 20717
" />
<path d="M9919 11542
L9919 11748
" />
<path d="M9340 11542
L9340 11748
" />
<path d="M11642 16234
L11436 16234
" />
<path d="M11642 15655
L11436 15655
" />
<path d="M11622 11765
L11416 11765
" />
<path d="M11622 11187
L11416 11187
" />
<path d="M11626 12568
L11420 12568
" />
<path d="M11626 11990
L11420 11990
" />
<path d="M10750 16027
L10750 16232
" />
<path d="M10171 16027
L10171 16232
" />
<path d="M9966 16023
L9966 16228
" />
<path d="M9387 16023
L9387 16228
" />
<path d="M10726 11542
L10726 11748
" />
<path d="M10147 11542
L10147 11748
" />
<path d="M27972 13461
L27972 13546
" />
<path d="M27688 13461
L27688 13546
" />
<path d="M18142 11283
L18227 11283
" />
<path d="M18142 11566
L18227 11566
" />
<path d="M21414 10960
L21499 10960
" />
<path d="M21414 11244
L21499 11244
" />
<path d="M24256 10988
L24341 10988
" />
<path d="M24256 11271
L24341 11271
" />
<path d="M31558 17070
L31473 17070
" />
<path d="M31558 16787
L31473 16787
" />
<path d="M12538 18814
L12453 18814
" />
<path d="M12538 18531
L12453 18531
" />
<path d="M10066 18959
L10066 18874
" />
<path d="M10350 18959
L10350 18874
" />
<path d="M12621 9854
L12536 9854
" />
<path d="M12621 9570
L12536 9570
" />
<path d="M10153 9991
L10153 9906
" />
<path d="M10437 9991
L10437 9906
" />
<path d="M10188 14463
L10188 14378
" />
<path d="M10472 14463
L10472 14378
" />
<path d="M13875 18923
L13875 20619
" />
<path d="M12179 20619
L12179 18923
" />
<path d="M13954 9959
L13954 11655
" />
<path d="M12258 11655
L12258 9959
" />
<path d="M29893 11494
L28820 11494
" />
<path d="M28820 11494
L28820 11596
" />
<path d="M29893 11494
L30966 11494
" />
<path d="M30966 11494
L30966 11596
" />
<path d="M29893 13639
L28820 13639
" />
<path d="M28820 13639
L28820 13537
" />
<path d="M29893 13639
L30966 13639
" />
<path d="M30966 13639
L30966 13537
" />
<path d="M30966 13537
L31625 13537
" />
<path d="M19685 13102
L19685 12334
" />
<path d="M19685 13102
L19685 13870
" />
<path d="M17669 13102
L17669 12334
" />
<path d="M17669 13102
L17669 14460
" />
<path d="M30877 18165
L30877 17267
" />
<path d="M32011 17141
L32224 17141
" />
<path d="M32224 17141
L32224 18169
" />
<path d="M23812 12822
L23812 11956
" />
<path d="M23812 12822
L23812 13688
" />
<path d="M21147 12822
L21147 11956
" />
<path d="M21147 12822
L21147 14240
" />
<path d="M26683 12834
L26683 11968
" />
<path d="M26683 12834
L26683 13700
" />
<path d="M24017 12834
L24017 11968
" />
<path d="M24017 12834
L24017 14251
" />
</g>
<g style="fill:#000000; fill-opacity:0.0; 
stroke:#000000; stroke-width:60; stroke-opacity:1; 
stroke-linecap:round; stroke-linejoin:round;">
<path d="M11911 19832
L11911 19663
" />
<path d="M11911 18552
L11742 18552
" />
<path d="M10631 18552
L10631 18721
" />
<path d="M10631 19832
L10800 19832
" />
<path d="M11742 19832
L11911 19832
" />
<path d="M11911 18721
L11911 18552
" />
<path d="M10800 18552
L10631 18552
" />
<path d="M10631 19663
L10631 19832
" />
<path d="M11296 18282
L11446 18282
" />
<path d="M11446 18282
L11446 18382
" />
<path d="M11446 18382
L11296 18382
" />
<path d="M11296 18382
L11296 18282
" />
<path d="M12017 15344
L12017 15175
" />
<path d="M12017 14064
L11848 14064
" />
<path d="M10737 14064
L10737 14233
" />
<path d="M10737 15344
L10906 15344
" />
<path d="M11848 15344
L12017 15344
" />
<path d="M12017 14233
L12017 14064
" />
<path d="M10906 14064
L10737 14064
" />
<path d="M10737 15175
L10737 15344
" />
<path d="M11402 13794
L11552 13794
" />
<path d="M11552 13794
L11552 13894
" />
<path d="M11552 13894
L11402 13894
" />
<path d="M11402 13894
L11402 13794
" />
<path d="M11993 10868
L11993 10699
" />
<path d="M11993 9588
L11824 9588
" />
<path d="M10713 9588
L10713 9757
" />
<path d="M10713 10868
L10882 10868
" />
<path d="M11824 10868
L11993 10868
" />
<path d="M11993 9757
L11993 9588
" />
<path d="M10882 9588
L10713 9588
" />
<path d="M10713 10699
L10713 10868
" />
<path d="M11378 9318
L11528 9318
" />
<path d="M11528 9318
L11528 9418
" />
<path d="M11528 9418
L11378 9418
" />
<path d="M11378 9418
L11378 9318
" />
</g>
<g style="fill:#000000; fill-opacity:0.0; 
stroke:#000000; stroke-width:47.2441; stroke-opacity:1; 
stroke-linecap:round; stroke-linejoin:round;">
<path d="M20538 11613
L20538 11426
" />
<path d="M20949 11613
L20949 11426
" />
<path d="M19908 11613
L19908 11426
" />
<path d="M20319 11613
L20319 11426
" />
<path d="M20945 12664
L20945 12851
" />
<path d="M20534 12664
L20534 12851
" />
<path d="M14782 11227
L14782 11040
" />
<path d="M15193 11227
L15193 11040
" />
<path d="M16001 8463
L16187 8463
" />
<path d="M16001 8875
L16187 8875
" />
<path d="M20485 15237
L20485 15424
" />
<path d="M20073 15237
L20073 15424
" />
<path d="M15898 14849
L15898 15036
" />
<path d="M15487 14849
L15487 15036
" />
<path d="M16985 14845
L16985 15032
" />
<path d="M16573 14845
L16573 15032
" />
<path d="M30963 19020
L30963 18833
" />
<path d="M31375 19020
L31375 18833
" />
<path d="M9914 18371
L9914 18557
" />
<path d="M9502 18371
L9502 18557
" />
<path d="M10699 17829
L10512 17829
" />
<path d="M10699 18241
L10512 18241
" />
<path d="M11896 17825
L11709 17825
" />
<path d="M11896 18237
L11709 18237
" />
<path d="M20707 17670
L20520 17670
" />
<path d="M20707 17258
L20520 17258
" />
<path d="M32245 12018
L32431 12018
" />
<path d="M32245 12430
L32431 12430
" />
<path d="M32245 12628
L32431 12628
" />
<path d="M32245 13040
L32431 13040
" />
<path d="M27514 11979
L27327 11979
" />
<path d="M27514 12390
L27327 12390
" />
<path d="M32245 13239
L32431 13239
" />
<path d="M32245 13650
L32431 13650
" />
<path d="M18823 16689
L18636 16689
" />
<path d="M18823 16278
L18636 16278
" />
<path d="M31379 15778
L31565 15778
" />
<path d="M31379 16189
L31565 16189
" />
<path d="M28774 14300
L28587 14300
" />
<path d="M28774 13888
L28587 13888
" />
<path d="M10821 13741
L10634 13741
" />
<path d="M10821 13329
L10634 13329
" />
<path d="M12014 13745
L11827 13745
" />
<path d="M12014 13333
L11827 13333
" />
<path d="M10786 9296
L10599 9296
" />
<path d="M10786 8884
L10599 8884
" />
<path d="M11983 9296
L11796 9296
" />
<path d="M11983 8884
L11796 8884
" />
<path d="M16651 10594
L16651 11974
" />
<path d="M15364 10687
L15364 11974
" />
<path d="M15496 10687
L15364 10687
" />
<path d="M15496 11974
L15364 11974
" />
<path d="M16651 11974
L16519 11974
" />
<path d="M16562 10328
L15183 10328
" />
<path d="M16470 9041
L15183 9041
" />
<path d="M16470 9173
L16470 9041
" />
<path d="M15183 9173
L15183 9041
" />
<path d="M15183 10328
L15183 10196
" />
<path d="M20736 13744
L20996 13744
" />
<path d="M20082 13744
L20342 13744
" />
<path d="M20082 13744
L20082 14543
" />
<path d="M20996 14299
L20996 13744
" />
<path d="M16149 13358
L16409 13358
" />
<path d="M15496 13358
L15755 13358
" />
<path d="M15496 13358
L15496 14157
" />
<path d="M16409 13913
L16409 13358
" />
</g>
<g style="fill:#000000; fill-opacity:0.0; 
stroke:#000000; stroke-width:78.7402; stroke-opacity:1; 
stroke-linecap:round; stroke-linejoin:round;">
<circle cx="28838.6" cy="7492.13" r="39.3701" /> 
<path d="M24007 7988
L24007 7791
" />
<path d="M25007 7988
L25007 7791
" />
<path d="M24007 10594
L24007 10791
" />
<path d="M25007 10594
L25007 10791
" />
<path d="M25007 7791
L24007 7791
" />
<path d="M25007 10791
L24007 10791
" />
<path d="M18068 7988
L24007 7988
" />
<path d="M18068 10594
L24007 10594
" />
<path d="M30946 7988
L25007 7988
" />
<path d="M30946 10594
L25007 10594
" />
<path d="M18068 7988
L18068 7791
" />
<path d="M18068 10594
L18068 10791
" />
<path d="M30946 7988
L30946 7791
" />
<path d="M30946 10594
L30946 10791
" />
<path d="M17068 7791
L18068 7791
" />
<path d="M17068 10791
L18068 10791
" />
<path d="M31946 7791
L30946 7791
" />
<path d="M31946 10791
L30946 10791
" />
<path d="M17068 7791
L17068 10791
" />
<path d="M31946 7791
L31946 10791
" />
</g>
<g style="fill:#000000; fill-opacity:0.0; 
stroke:#000000; stroke-width:59.0551; stroke-opacity:1; 
stroke-linecap:round; stroke-linejoin:round;">
<text x="11437" y="22118.1"
textLength="1143.61" font-size="524.934" lengthAdjust="spacingAndGlyphs"
text-anchor="middle" opacity="0">C46</text>
<path d="M11183 22061
L11165 22080
L11108 22099
L11071 22099
L11015 22080
L10977 22043
L10958 22005
L10940 21930
L10940 21874
L10958 21799
L10977 21761
L11015 21724
L11071 21705
L11108 21705
L11165 21724
L11183 21743
" />
<path d="M11521 21836
L11521 22099
" />
<path d="M11427 21686
L11333 21968
L11577 21968
" />
<path d="M11896 21705
L11821 21705
L11783 21724
L11765 21743
L11727 21799
L11708 21874
L11708 22024
L11727 22061
L11746 22080
L11783 22099
L11858 22099
L11896 22080
L11915 22061
L11933 22024
L11933 21930
L11915 21893
L11896 21874
L11858 21855
L11783 21855
L11746 21874
L11727 21893
L11708 21930
" />
<text x="11437" y="21291.3"
textLength="1220.38" font-size="524.934" lengthAdjust="spacingAndGlyphs"
text-anchor="middle" opacity="0">C48</text>
<path d="M11183 21235
L11165 21253
L11108 21272
L11071 21272
L11015 21253
L10977 21216
L10958 21178
L10940 21103
L10940 21047
L10958 20972
L10977 20935
L11015 20897
L11071 20878
L11108 20878
L11165 20897
L11183 20916
" />
<path d="M11521 21010
L11521 21272
" />
<path d="M11427 20860
L11333 21141
L11577 21141
" />
<path d="M11783 21047
L11746 21028
L11727 21010
L11708 20972
L11708 20953
L11727 20916
L11746 20897
L11783 20878
L11858 20878
L11896 20897
L11915 20916
L11933 20953
L11933 20972
L11915 21010
L11896 21028
L11858 21047
L11783 21047
L11746 21066
L11727 21085
L11708 21122
L11708 21197
L11727 21235
L11746 21253
L11783 21272
L11858 21272
L11896 21253
L11915 21235
L11933 21197
L11933 21122
L11915 21085
L11896 21066
L11858 21047
" />
<text x="11539.4" y="17598.4"
textLength="1220.38" font-size="524.934" lengthAdjust="spacingAndGlyphs"
text-anchor="middle" opacity="0">C10</text>
<path d="M11286 17542
L11267 17560
L11211 17579
L11173 17579
L11117 17560
L11080 17523
L11061 17485
L11042 17410
L11042 17354
L11061 17279
L11080 17242
L11117 17204
L11173 17185
L11211 17185
L11267 17204
L11286 17223
" />
<path d="M11661 17579
L11436 17579
" />
<path d="M11548 17579
L11548 17185
L11511 17242
L11473 17279
L11436 17298
" />
<path d="M11904 17185
L11942 17185
L11979 17204
L11998 17223
L12017 17260
L12036 17335
L12036 17429
L12017 17504
L11998 17542
L11979 17560
L11942 17579
L11904 17579
L11867 17560
L11848 17542
L11829 17504
L11811 17429
L11811 17335
L11829 17260
L11848 17223
L11867 17204
L11904 17185
" />
<g transform="rotate(-90 11940.9 15291.3)">
<text x="11940.9" y="15488.2"
textLength="770.435" font-size="524.934" lengthAdjust="spacingAndGlyphs"
text-anchor="middle" opacity="0">L2</text>
</g>
<path d="M12119 15356
L12119 15544
L11725 15544
" />
<path d="M11762 15244
L11744 15225
L11725 15188
L11725 15094
L11744 15056
L11762 15038
L11800 15019
L11837 15019
L11894 15038
L12119 15263
L12119 15019
" />
<text x="12606.3" y="14842.5"
textLength="845.426" font-size="524.934" lengthAdjust="spacingAndGlyphs"
text-anchor="middle" opacity="0">C8</text>
<path d="M12540 14786
L12521 14805
L12465 14823
L12428 14823
L12371 14805
L12334 14767
L12315 14730
L12296 14655
L12296 14598
L12315 14523
L12334 14486
L12371 14448
L12428 14430
L12465 14430
L12521 14448
L12540 14467
" />
<path d="M12765 14598
L12728 14580
L12709 14561
L12690 14523
L12690 14505
L12709 14467
L12728 14448
L12765 14430
L12840 14430
L12878 14448
L12896 14467
L12915 14505
L12915 14523
L12896 14561
L12878 14580
L12840 14598
L12765 14598
L12728 14617
L12709 14636
L12690 14673
L12690 14748
L12709 14786
L12728 14805
L12765 14823
L12840 14823
L12878 14805
L12896 14786
L12915 14748
L12915 14673
L12896 14636
L12878 14617
L12840 14598
" />
<text x="13566.9" y="14838.6"
textLength="845.426" font-size="524.934" lengthAdjust="spacingAndGlyphs"
text-anchor="middle" opacity="0">R1</text>
<path d="M13501 14819
L13370 14632
" />
<path d="M13276 14819
L13276 14426
L13426 14426
L13463 14444
L13482 14463
L13501 14501
L13501 14557
L13482 14594
L13463 14613
L13426 14632
L13276 14632
" />
<path d="M13876 14819
L13651 14819
" />
<path d="M13763 14819
L13763 14426
L13726 14482
L13688 14519
L13651 14538
" />
<text x="27421.3" y="12354.3"
textLength="1220.38" font-size="524.934" lengthAdjust="spacingAndGlyphs"
text-anchor="middle" opacity="0">R13</text>
<path d="M27168 12335
L27036 12148
" />
<path d="M26943 12335
L26943 11941
L27093 11941
L27130 11960
L27149 11979
L27168 12016
L27168 12073
L27149 12110
L27130 12129
L27093 12148
L26943 12148
" />
<path d="M27543 12335
L27318 12335
" />
<path d="M27430 12335
L27430 11941
L27393 11998
L27355 12035
L27318 12054
" />
<path d="M27674 11941
L27918 11941
L27786 12091
L27843 12091
L27880 12110
L27899 12129
L27918 12166
L27918 12260
L27899 12298
L27880 12316
L27843 12335
L27730 12335
L27693 12316
L27674 12298
" />
<text x="27421.3" y="13555.1"
textLength="1220.38" font-size="524.934" lengthAdjust="spacingAndGlyphs"
text-anchor="middle" opacity="0">R16</text>
<path d="M27168 13536
L27036 13348
" />
<path d="M26943 13536
L26943 13142
L27093 13142
L27130 13161
L27149 13180
L27168 13217
L27168 13273
L27149 13311
L27130 13330
L27093 13348
L26943 13348
" />
<path d="M27543 13536
L27318 13536
" />
<path d="M27430 13536
L27430 13142
L27393 13198
L27355 13236
L27318 13255
" />
<path d="M27880 13142
L27805 13142
L27768 13161
L27749 13180
L27711 13236
L27693 13311
L27693 13461
L27711 13498
L27730 13517
L27768 13536
L27843 13536
L27880 13517
L27899 13498
L27918 13461
L27918 13367
L27899 13330
L27880 13311
L27843 13292
L27768 13292
L27730 13311
L27711 13330
L27693 13367
" />
<text x="27086.6" y="22141.7"
textLength="864.173" font-size="524.934" lengthAdjust="spacingAndGlyphs"
text-anchor="middle" opacity="0">U1</text>
<path d="M26786 21729
L26786 22047
L26805 22085
L26824 22104
L26861 22122
L26936 22122
L26974 22104
L26992 22085
L27011 22047
L27011 21729
" />
<path d="M27405 22122
L27180 22122
" />
<path d="M27292 22122
L27292 21729
L27255 21785
L27217 21823
L27180 21841
" />
<g transform="rotate(-90 16263.8 13673.2)">
<text x="16263.8" y="13870.1"
textLength="864.173" font-size="524.934" lengthAdjust="spacingAndGlyphs"
text-anchor="middle" opacity="0">Q1</text>
</g>
<path d="M16479 13710
L16460 13748
L16423 13785
L16366 13841
L16348 13879
L16348 13916
" />
<path d="M16441 13898
L16423 13935
L16385 13973
L16310 13991
L16179 13991
L16104 13973
L16066 13935
L16048 13898
L16048 13823
L16066 13785
L16104 13748
L16179 13729
L16310 13729
L16385 13748
L16423 13785
L16441 13823
L16441 13898
" />
<path d="M16441 13354
L16441 13579
" />
<path d="M16441 13467
L16048 13467
L16104 13504
L16141 13541
L16160 13579
" />
<text x="18362.2" y="19291.3"
textLength="1220.38" font-size="524.934" lengthAdjust="spacingAndGlyphs"
text-anchor="middle" opacity="0">C44</text>
<path d="M18109 19235
L18090 19253
L18034 19272
L17996 19272
L17940 19253
L17902 19216
L17884 19178
L17865 19103
L17865 19047
L17884 18972
L17902 18935
L17940 18897
L17996 18878
L18034 18878
L18090 18897
L18109 18916
" />
<path d="M18446 19010
L18446 19272
" />
<path d="M18352 18860
L18259 19141
L18502 19141
" />
<path d="M18821 19010
L18821 19272
" />
<path d="M18727 18860
L18634 19141
L18877 19141
" />
<g transform="rotate(-90 15968.5 20653.5)">
<text x="15968.5" y="20850.4"
textLength="1220.38" font-size="524.934" lengthAdjust="spacingAndGlyphs"
text-anchor="middle" opacity="0">C25</text>
</g>
<path d="M16109 20906
L16127 20925
L16146 20981
L16146 21019
L16127 21075
L16090 21112
L16052 21131
L15977 21150
L15921 21150
L15846 21131
L15809 21112
L15771 21075
L15752 21019
L15752 20981
L15771 20925
L15790 20906
" />
<path d="M15790 20756
L15771 20737
L15752 20700
L15752 20606
L15771 20569
L15790 20550
L15827 20531
L15865 20531
L15921 20550
L16146 20775
L16146 20531
" />
<path d="M15752 20175
L15752 20362
L15940 20381
L15921 20362
L15902 20325
L15902 20231
L15921 20194
L15940 20175
L15977 20156
L16071 20156
L16109 20175
L16127 20194
L16146 20231
L16146 20325
L16127 20362
L16109 20381
" />
<g transform="rotate(-90 16795.3 20653.5)">
<text x="16795.3" y="20850.4"
textLength="845.426" font-size="524.934" lengthAdjust="spacingAndGlyphs"
text-anchor="middle" opacity="0">C1</text>
</g>
<path d="M16935 20719
L16954 20737
L16973 20794
L16973 20831
L16954 20887
L16917 20925
L16879 20944
L16804 20962
L16748 20962
L16673 20944
L16635 20925
L16598 20887
L16579 20831
L16579 20794
L16598 20737
L16617 20719
" />
<path d="M16973 20344
L16973 20569
" />
<path d="M16973 20456
L16579 20456
L16635 20494
L16673 20531
L16692 20569
" />
<text x="17299.2" y="22086.6"
textLength="1220.38" font-size="524.934" lengthAdjust="spacingAndGlyphs"
text-anchor="middle" opacity="0">C47</text>
<path d="M17046 22030
L17027 22049
L16971 22067
L16933 22067
L16877 22049
L16839 22011
L16821 21974
L16802 21899
L16802 21842
L16821 21767
L16839 21730
L16877 21692
L16933 21674
L16971 21674
L17027 21692
L17046 21711
" />
<path d="M17383 21805
L17383 22067
" />
<path d="M17289 21655
L17196 21936
L17439 21936
" />
<path d="M17552 21674
L17814 21674
L17646 22067
" />
<text x="17299.2" y="21259.8"
textLength="1220.38" font-size="524.934" lengthAdjust="spacingAndGlyphs"
text-anchor="middle" opacity="0">C49</text>
<path d="M17046 21203
L17027 21222
L16971 21241
L16933 21241
L16877 21222
L16839 21184
L16821 21147
L16802 21072
L16802 21016
L16821 20941
L16839 20903
L16877 20866
L16933 20847
L16971 20847
L17027 20866
L17046 20884
" />
<path d="M17383 20978
L17383 21241
" />
<path d="M17289 20828
L17196 21109
L17439 21109
" />
<path d="M17608 21241
L17683 21241
L17721 21222
L17739 21203
L17777 21147
L17796 21072
L17796 20922
L17777 20884
L17758 20866
L17721 20847
L17646 20847
L17608 20866
L17589 20884
L17571 20922
L17571 21016
L17589 21053
L17608 21072
L17646 21091
L17721 21091
L17758 21072
L17777 21053
L17796 21016
" />
<g transform="rotate(-90 15614.2 18885.8)">
<text x="15614.2" y="19082.7"
textLength="1220.38" font-size="524.934" lengthAdjust="spacingAndGlyphs"
text-anchor="middle" opacity="0">C36</text>
</g>
<path d="M15754 19138
L15773 19157
L15792 19213
L15792 19251
L15773 19307
L15736 19345
L15698 19363
L15623 19382
L15567 19382
L15492 19363
L15454 19345
L15417 19307
L15398 19251
L15398 19213
L15417 19157
L15436 19138
" />
<path d="M15398 19007
L15398 18763
L15548 18895
L15548 18838
L15567 18801
L15586 18782
L15623 18763
L15717 18763
L15754 18782
L15773 18801
L15792 18838
L15792 18951
L15773 18988
L15754 19007
" />
<path d="M15398 18426
L15398 18501
L15417 18538
L15436 18557
L15492 18595
L15567 18613
L15717 18613
L15754 18595
L15773 18576
L15792 18538
L15792 18464
L15773 18426
L15754 18407
L15717 18389
L15623 18389
L15586 18407
L15567 18426
L15548 18464
L15548 18538
L15567 18576
L15586 18595
L15623 18613
" />
<g transform="rotate(-90 17712.6 19732.3)">
<text x="17712.6" y="19929.1"
textLength="770.435" font-size="524.934" lengthAdjust="spacingAndGlyphs"
text-anchor="middle" opacity="0">L4</text>
</g>
<path d="M17890 19797
L17890 19985
L17497 19985
" />
<path d="M17628 19497
L17890 19497
" />
<path d="M17478 19591
L17759 19685
L17759 19441
" />
<g transform="rotate(-90 17129.4 19162)">
<text x="17129.4" y="19358.8"
textLength="864.173" font-size="524.934" lengthAdjust="spacingAndGlyphs"
text-anchor="middle" opacity="0">U5</text>
</g>
<path d="M16913 19461
L17232 19461
L17269 19443
L17288 19424
L17307 19386
L17307 19311
L17288 19274
L17269 19255
L17232 19236
L16913 19236
" />
<path d="M16913 18862
L16913 19049
L17101 19068
L17082 19049
L17063 19011
L17063 18918
L17082 18880
L17101 18862
L17138 18843
L17232 18843
L17269 18862
L17288 18880
L17307 18918
L17307 19011
L17288 19049
L17269 19068
" />
<g transform="rotate(-90 17129.4 19162)">
<text x="17129.4" y="19358.8"
textLength="5157.39" font-size="524.934" lengthAdjust="spacingAndGlyphs"
text-anchor="middle" opacity="0">BD95821MUV-E2</text>
</g>
<path d="M17101 21477
L17119 21421
L17138 21402
L17176 21383
L17232 21383
L17269 21402
L17288 21421
L17307 21458
L17307 21608
L16913 21608
L16913 21477
L16932 21439
L16951 21421
L16988 21402
L17026 21402
L17063 21421
L17082 21439
L17101 21477
L17101 21608
" />
<path d="M17307 21214
L16913 21214
L16913 21121
L16932 21064
L16970 21027
L17007 21008
L17082 20989
L17138 20989
L17213 21008
L17251 21027
L17288 21064
L17307 21121
L17307 21214
" />
<path d="M17307 20802
L17307 20727
L17288 20689
L17269 20671
L17213 20633
L17138 20614
L16988 20614
L16951 20633
L16932 20652
L16913 20689
L16913 20764
L16932 20802
L16951 20821
L16988 20839
L17082 20839
L17119 20821
L17138 20802
L17157 20764
L17157 20689
L17138 20652
L17119 20633
L17082 20614
" />
<path d="M16913 20258
L16913 20446
L17101 20464
L17082 20446
L17063 20408
L17063 20314
L17082 20277
L17101 20258
L17138 20239
L17232 20239
L17269 20258
L17288 20277
L17307 20314
L17307 20408
L17288 20446
L17269 20464
" />
<path d="M17082 20014
L17063 20052
L17045 20071
L17007 20089
L16988 20089
L16951 20071
L16932 20052
L16913 20014
L16913 19939
L16932 19902
L16951 19883
L16988 19865
L17007 19865
L17045 19883
L17063 19902
L17082 19939
L17082 20014
L17101 20052
L17119 20071
L17157 20089
L17232 20089
L17269 20071
L17288 20052
L17307 20014
L17307 19939
L17288 19902
L17269 19883
L17232 19865
L17157 19865
L17119 19883
L17101 19902
L17082 19939
" />
<path d="M16951 19715
L16932 19696
L16913 19658
L16913 19565
L16932 19527
L16951 19508
L16988 19490
L17026 19490
L17082 19508
L17307 19733
L17307 19490
" />
<path d="M17307 19115
L17307 19340
" />
<path d="M17307 19227
L16913 19227
L16970 19265
L17007 19302
L17026 19340
" />
<path d="M17307 18946
L16913 18946
L17194 18815
L16913 18683
L17307 18683
" />
<path d="M16913 18496
L17232 18496
L17269 18477
L17288 18458
L17307 18421
L17307 18346
L17288 18308
L17269 18290
L17232 18271
L16913 18271
" />
<path d="M16913 18140
L17307 18008
L16913 17877
" />
<path d="M17157 17746
L17157 17446
" />
<path d="M17101 17259
L17101 17127
" />
<path d="M17307 17071
L17307 17259
L16913 17259
L16913 17071
" />
<path d="M16951 16921
L16932 16902
L16913 16865
L16913 16771
L16932 16734
L16951 16715
L16988 16696
L17026 16696
L17082 16715
L17307 16940
L17307 16696
" />
<g transform="rotate(-90 16729.4 20122)">
<text x="16729.4" y="20318.8"
textLength="376.734" font-size="524.934" lengthAdjust="spacingAndGlyphs"
text-anchor="middle" opacity="0">*</text>
</g>
<path d="M16513 20121
L16607 20121
" />
<path d="M16570 20215
L16607 20121
L16570 20028
" />
<path d="M16682 20178
L16607 20121
L16682 20065
" />
<g transform="rotate(-90 16729.4 20122)">
<text x="16729.4" y="20318.8"
textLength="376.734" font-size="524.934" lengthAdjust="spacingAndGlyphs"
text-anchor="middle" opacity="0">*</text>
</g>
<path d="M16513 20121
L16607 20121
" />
<path d="M16570 20215
L16607 20121
L16570 20028
" />
<path d="M16682 20178
L16607 20121
L16682 20065
" />
<text x="17681.1" y="18771.7"
textLength="1220.38" font-size="524.934" lengthAdjust="spacingAndGlyphs"
text-anchor="middle" opacity="0">R21</text>
<path d="M17428 18752
L17296 18565
" />
<path d="M17203 18752
L17203 18359
L17353 18359
L17390 18377
L17409 18396
L17428 18434
L17428 18490
L17409 18527
L17390 18546
L17353 18565
L17203 18565
" />
<path d="M17577 18396
L17596 18377
L17634 18359
L17727 18359
L17765 18377
L17784 18396
L17802 18434
L17802 18471
L17784 18527
L17559 18752
L17802 18752
" />
<path d="M18177 18752
L17952 18752
" />
<path d="M18065 18752
L18065 18359
L18027 18415
L17990 18452
L17952 18471
" />
<text x="16476.4" y="18771.7"
textLength="1220.38" font-size="524.934" lengthAdjust="spacingAndGlyphs"
text-anchor="middle" opacity="0">R22</text>
<path d="M16223 18752
L16092 18565
" />
<path d="M15998 18752
L15998 18359
L16148 18359
L16185 18377
L16204 18396
L16223 18434
L16223 18490
L16204 18527
L16185 18546
L16148 18565
L15998 18565
" />
<path d="M16373 18396
L16392 18377
L16429 18359
L16523 18359
L16560 18377
L16579 18396
L16598 18434
L16598 18471
L16579 18527
L16354 18752
L16598 18752
" />
<path d="M16748 18396
L16766 18377
L16804 18359
L16898 18359
L16935 18377
L16954 18396
L16973 18434
L16973 18471
L16954 18527
L16729 18752
L16973 18752
" />
<g transform="rotate(-90 16141.7 18393.7)">
<text x="16141.7" y="18590.6"
textLength="1220.38" font-size="524.934" lengthAdjust="spacingAndGlyphs"
text-anchor="middle" opacity="0">R23</text>
</g>
<path d="M16319 18646
L16132 18778
" />
<path d="M16319 18871
L15926 18871
L15926 18721
L15944 18684
L15963 18665
L16001 18646
L16057 18646
L16094 18665
L16113 18684
L16132 18721
L16132 18871
" />
<path d="M15963 18496
L15944 18478
L15926 18440
L15926 18346
L15944 18309
L15963 18290
L16001 18271
L16038 18271
L16094 18290
L16319 18515
L16319 18271
" />
<path d="M15926 18140
L15926 17896
L16076 18028
L16076 17971
L16094 17934
L16113 17915
L16151 17896
L16244 17896
L16282 17915
L16301 17934
L16319 17971
L16319 18084
L16301 18121
L16282 18140
" />
<g transform="rotate(-90 10401.6 13909.4)">
<text x="10401.6" y="14106.3"
textLength="845.426" font-size="524.934" lengthAdjust="spacingAndGlyphs"
text-anchor="middle" opacity="0">R7</text>
</g>
<path d="M10579 13975
L10392 14106
" />
<path d="M10579 14200
L10185 14200
L10185 14050
L10204 14012
L10223 13993
L10260 13975
L10317 13975
L10354 13993
L10373 14012
L10392 14050
L10392 14200
" />
<path d="M10185 13843
L10185 13581
L10579 13750
" />
<g transform="rotate(-90 10362.2 9637.8)">
<text x="10362.2" y="9834.65"
textLength="845.426" font-size="524.934" lengthAdjust="spacingAndGlyphs"
text-anchor="middle" opacity="0">R4</text>
</g>
<path d="M10540 9703
L10352 9834
" />
<path d="M10540 9928
L10146 9928
L10146 9778
L10165 9740
L10184 9722
L10221 9703
L10277 9703
L10315 9722
L10334 9740
L10352 9778
L10352 9928
" />
<path d="M10277 9365
L10540 9365
" />
<path d="M10127 9459
L10409 9553
L10409 9309
" />
<g transform="rotate(-90 11011.8 20614.2)">
<text x="11011.8" y="20811"
textLength="1220.38" font-size="524.934" lengthAdjust="spacingAndGlyphs"
text-anchor="middle" opacity="0">C32</text>
</g>
<path d="M11152 20867
L11171 20886
L11189 20942
L11189 20979
L11171 21035
L11133 21073
L11096 21092
L11021 21110
L10964 21110
L10889 21092
L10852 21073
L10814 21035
L10796 20979
L10796 20942
L10814 20886
L10833 20867
" />
<path d="M10796 20736
L10796 20492
L10946 20623
L10946 20567
L10964 20529
L10983 20511
L11021 20492
L11114 20492
L11152 20511
L11171 20529
L11189 20567
L11189 20679
L11171 20717
L11152 20736
" />
<path d="M10833 20342
L10814 20323
L10796 20286
L10796 20192
L10814 20154
L10833 20136
L10871 20117
L10908 20117
L10964 20136
L11189 20361
L11189 20117
" />
<g transform="rotate(-90 10185 20614.2)">
<text x="10185" y="20811"
textLength="1220.38" font-size="524.934" lengthAdjust="spacingAndGlyphs"
text-anchor="middle" opacity="0">C29</text>
</g>
<path d="M10325 20867
L10344 20886
L10363 20942
L10363 20979
L10344 21035
L10306 21073
L10269 21092
L10194 21110
L10138 21110
L10063 21092
L10025 21073
L9988 21035
L9969 20979
L9969 20942
L9988 20886
L10006 20867
" />
<path d="M10006 20717
L9988 20698
L9969 20661
L9969 20567
L9988 20529
L10006 20511
L10044 20492
L10081 20492
L10138 20511
L10363 20736
L10363 20492
" />
<path d="M10363 20304
L10363 20229
L10344 20192
L10325 20173
L10269 20136
L10194 20117
L10044 20117
L10006 20136
L9988 20154
L9969 20192
L9969 20267
L9988 20304
L10006 20323
L10044 20342
L10138 20342
L10175 20323
L10194 20304
L10213 20267
L10213 20192
L10194 20154
L10175 20136
L10138 20117
" />
<g transform="rotate(-90 10291.3 11645.7)">
<text x="10291.3" y="11842.5"
textLength="1220.38" font-size="524.934" lengthAdjust="spacingAndGlyphs"
text-anchor="middle" opacity="0">C28</text>
</g>
<path d="M10431 11898
L10450 11917
L10469 11973
L10469 12011
L10450 12067
L10413 12104
L10375 12123
L10300 12142
L10244 12142
L10169 12123
L10131 12104
L10094 12067
L10075 12011
L10075 11973
L10094 11917
L10113 11898
" />
<path d="M10113 11748
L10094 11730
L10075 11692
L10075 11598
L10094 11561
L10113 11542
L10150 11523
L10188 11523
L10244 11542
L10469 11767
L10469 11523
" />
<path d="M10244 11298
L10225 11336
L10206 11355
L10169 11373
L10150 11373
L10113 11355
L10094 11336
L10075 11298
L10075 11223
L10094 11186
L10113 11167
L10150 11148
L10169 11148
L10206 11167
L10225 11186
L10244 11223
L10244 11298
L10263 11336
L10281 11355
L10319 11373
L10394 11373
L10431 11355
L10450 11336
L10469 11298
L10469 11223
L10450 11186
L10431 11167
L10394 11148
L10319 11148
L10281 11167
L10263 11186
L10244 11223
" />
<text x="11539.4" y="16803.1"
textLength="1220.38" font-size="524.934" lengthAdjust="spacingAndGlyphs"
text-anchor="middle" opacity="0">C15</text>
<path d="M11286 16746
L11267 16765
L11211 16784
L11173 16784
L11117 16765
L11080 16728
L11061 16690
L11042 16615
L11042 16559
L11061 16484
L11080 16446
L11117 16409
L11173 16390
L11211 16390
L11267 16409
L11286 16428
" />
<path d="M11661 16784
L11436 16784
" />
<path d="M11548 16784
L11548 16390
L11511 16446
L11473 16484
L11436 16503
" />
<path d="M12017 16390
L11829 16390
L11811 16578
L11829 16559
L11867 16540
L11961 16540
L11998 16559
L12017 16578
L12036 16615
L12036 16709
L12017 16746
L11998 16765
L11961 16784
L11867 16784
L11829 16765
L11811 16746
" />
<text x="11519.7" y="12334.6"
textLength="1220.38" font-size="524.934" lengthAdjust="spacingAndGlyphs"
text-anchor="middle" opacity="0">C14</text>
<path d="M11266 12278
L11247 12297
L11191 12315
L11154 12315
L11097 12297
L11060 12259
L11041 12222
L11022 12147
L11022 12090
L11041 12015
L11060 11978
L11097 11940
L11154 11922
L11191 11922
L11247 11940
L11266 11959
" />
<path d="M11641 12315
L11416 12315
" />
<path d="M11529 12315
L11529 11922
L11491 11978
L11454 12015
L11416 12034
" />
<path d="M11979 12053
L11979 12315
" />
<path d="M11885 11903
L11791 12184
L12035 12184
" />
<text x="11523.6" y="13137.8"
textLength="845.426" font-size="524.934" lengthAdjust="spacingAndGlyphs"
text-anchor="middle" opacity="0">C9</text>
<path d="M11458 13081
L11439 13100
L11383 13119
L11345 13119
L11289 13100
L11251 13062
L11233 13025
L11214 12950
L11214 12894
L11233 12819
L11251 12781
L11289 12744
L11345 12725
L11383 12725
L11439 12744
L11458 12762
" />
<path d="M11645 13119
L11720 13119
L11757 13100
L11776 13081
L11814 13025
L11832 12950
L11832 12800
L11814 12762
L11795 12744
L11757 12725
L11682 12725
L11645 12744
L11626 12762
L11607 12800
L11607 12894
L11626 12931
L11645 12950
L11682 12969
L11757 12969
L11795 12950
L11814 12931
L11832 12894
" />
<g transform="rotate(-90 11122 16129.9)">
<text x="11122" y="16326.8"
textLength="845.426" font-size="524.934" lengthAdjust="spacingAndGlyphs"
text-anchor="middle" opacity="0">C4</text>
</g>
<path d="M11262 16195
L11281 16214
L11300 16270
L11300 16308
L11281 16364
L11243 16401
L11206 16420
L11131 16439
L11075 16439
L11000 16420
L10962 16401
L10925 16364
L10906 16308
L10906 16270
L10925 16214
L10943 16195
" />
<path d="M11037 15858
L11300 15858
" />
<path d="M10887 15951
L11168 16045
L11168 15801
" />
<g transform="rotate(-90 10338.6 16126)">
<text x="10338.6" y="16322.8"
textLength="845.426" font-size="524.934" lengthAdjust="spacingAndGlyphs"
text-anchor="middle" opacity="0">C3</text>
</g>
<path d="M10479 16191
L10497 16210
L10516 16266
L10516 16304
L10497 16360
L10460 16397
L10422 16416
L10347 16435
L10291 16435
L10216 16416
L10179 16397
L10141 16360
L10122 16304
L10122 16266
L10141 16210
L10160 16191
" />
<path d="M10122 16060
L10122 15816
L10272 15947
L10272 15891
L10291 15854
L10310 15835
L10347 15816
L10441 15816
L10479 15835
L10497 15854
L10516 15891
L10516 16004
L10497 16041
L10479 16060
" />
<g transform="rotate(-90 11098.4 11645.7)">
<text x="11098.4" y="11842.5"
textLength="845.426" font-size="524.934" lengthAdjust="spacingAndGlyphs"
text-anchor="middle" opacity="0">C2</text>
</g>
<path d="M11239 11711
L11257 11730
L11276 11786
L11276 11823
L11257 11880
L11220 11917
L11182 11936
L11107 11955
L11051 11955
L10976 11936
L10939 11917
L10901 11880
L10882 11823
L10882 11786
L10901 11730
L10920 11711
" />
<path d="M10920 11561
L10901 11542
L10882 11505
L10882 11411
L10901 11373
L10920 11355
L10957 11336
L10995 11336
L11051 11355
L11276 11580
L11276 11336
" />
<g transform="rotate(-90 28287.4 13503.9)">
<text x="28287.4" y="13700.8"
textLength="1220.38" font-size="524.934" lengthAdjust="spacingAndGlyphs"
text-anchor="middle" opacity="0">C53</text>
</g>
<path d="M28428 13757
L28446 13775
L28465 13832
L28465 13869
L28446 13925
L28409 13963
L28371 13982
L28296 14000
L28240 14000
L28165 13982
L28128 13963
L28090 13925
L28071 13869
L28071 13832
L28090 13775
L28109 13757
" />
<path d="M28071 13400
L28071 13588
L28259 13607
L28240 13588
L28221 13550
L28221 13457
L28240 13419
L28259 13400
L28296 13382
L28390 13382
L28428 13400
L28446 13419
L28465 13457
L28465 13550
L28446 13588
L28428 13607
" />
<path d="M28071 13250
L28071 13007
L28221 13138
L28221 13082
L28240 13044
L28259 13025
L28296 13007
L28390 13007
L28428 13025
L28446 13044
L28465 13082
L28465 13194
L28446 13232
L28428 13250
" />
<text x="18185" y="11165.4"
textLength="1220.38" font-size="524.934" lengthAdjust="spacingAndGlyphs"
text-anchor="middle" opacity="0">C52</text>
<path d="M17931 11109
L17913 11127
L17856 11146
L17819 11146
L17763 11127
L17725 11090
L17706 11052
L17688 10977
L17688 10921
L17706 10846
L17725 10809
L17763 10771
L17819 10752
L17856 10752
L17913 10771
L17931 10790
" />
<path d="M18288 10752
L18100 10752
L18081 10940
L18100 10921
L18138 10902
L18231 10902
L18269 10921
L18288 10940
L18306 10977
L18306 11071
L18288 11109
L18269 11127
L18231 11146
L18138 11146
L18100 11127
L18081 11109
" />
<path d="M18456 10790
L18475 10771
L18513 10752
L18606 10752
L18644 10771
L18663 10790
L18681 10827
L18681 10865
L18663 10921
L18438 11146
L18681 11146
" />
<text x="21456.7" y="10842.5"
textLength="1220.38" font-size="524.934" lengthAdjust="spacingAndGlyphs"
text-anchor="middle" opacity="0">C51</text>
<path d="M21203 10786
L21184 10805
L21128 10823
L21091 10823
L21034 10805
L20997 10767
L20978 10730
L20959 10655
L20959 10598
L20978 10523
L20997 10486
L21034 10448
L21091 10430
L21128 10430
L21184 10448
L21203 10467
" />
<path d="M21559 10430
L21372 10430
L21353 10617
L21372 10598
L21409 10580
L21503 10580
L21541 10598
L21559 10617
L21578 10655
L21578 10748
L21559 10786
L21541 10805
L21503 10823
L21409 10823
L21372 10805
L21353 10786
" />
<path d="M21953 10823
L21728 10823
" />
<path d="M21841 10823
L21841 10430
L21803 10486
L21766 10523
L21728 10542
" />
<text x="24299.2" y="10870.1"
textLength="1220.38" font-size="524.934" lengthAdjust="spacingAndGlyphs"
text-anchor="middle" opacity="0">C50</text>
<path d="M24046 10813
L24027 10832
L23971 10851
L23933 10851
L23877 10832
L23839 10795
L23821 10757
L23802 10682
L23802 10626
L23821 10551
L23839 10513
L23877 10476
L23933 10457
L23971 10457
L24027 10476
L24046 10495
" />
<path d="M24402 10457
L24214 10457
L24196 10645
L24214 10626
L24252 10607
L24346 10607
L24383 10626
L24402 10645
L24421 10682
L24421 10776
L24402 10813
L24383 10832
L24346 10851
L24252 10851
L24214 10832
L24196 10813
" />
<path d="M24664 10457
L24702 10457
L24739 10476
L24758 10495
L24777 10532
L24796 10607
L24796 10701
L24777 10776
L24758 10813
L24739 10832
L24702 10851
L24664 10851
L24627 10832
L24608 10813
L24589 10776
L24571 10701
L24571 10607
L24589 10532
L24608 10495
L24627 10476
L24664 10457
" />
<text x="31515.7" y="17582.7"
textLength="1220.38" font-size="524.934" lengthAdjust="spacingAndGlyphs"
text-anchor="middle" opacity="0">C45</text>
<path d="M31262 17526
L31243 17545
L31187 17563
L31150 17563
L31093 17545
L31056 17507
L31037 17470
L31018 17395
L31018 17338
L31037 17263
L31056 17226
L31093 17188
L31150 17170
L31187 17170
L31243 17188
L31262 17207
" />
<path d="M31600 17301
L31600 17563
" />
<path d="M31506 17151
L31412 17432
L31656 17432
" />
<path d="M31993 17170
L31806 17170
L31787 17357
L31806 17338
L31843 17320
L31937 17320
L31975 17338
L31993 17357
L32012 17395
L32012 17488
L31993 17526
L31975 17545
L31937 17563
L31843 17563
L31806 17545
L31787 17526
" />
<text x="12496.1" y="19326.8"
textLength="1220.38" font-size="524.934" lengthAdjust="spacingAndGlyphs"
text-anchor="middle" opacity="0">C43</text>
<path d="M12242 19270
L12224 19289
L12167 19308
L12130 19308
L12074 19289
L12036 19251
L12017 19214
L11999 19139
L11999 19083
L12017 19008
L12036 18970
L12074 18933
L12130 18914
L12167 18914
L12224 18933
L12242 18951
" />
<path d="M12580 19045
L12580 19308
" />
<path d="M12486 18895
L12392 19176
L12636 19176
" />
<path d="M12749 18914
L12992 18914
L12861 19064
L12917 19064
L12955 19083
L12974 19101
L12992 19139
L12992 19233
L12974 19270
L12955 19289
L12917 19308
L12805 19308
L12767 19289
L12749 19270
" />
<g transform="rotate(-90 9751.97 18917.3)">
<text x="9751.97" y="19114.2"
textLength="1220.38" font-size="524.934" lengthAdjust="spacingAndGlyphs"
text-anchor="middle" opacity="0">C35</text>
</g>
<path d="M9892 19170
L9911 19189
L9930 19245
L9930 19282
L9911 19339
L9873 19376
L9836 19395
L9761 19414
L9705 19414
L9630 19395
L9592 19376
L9555 19339
L9536 19282
L9536 19245
L9555 19189
L9573 19170
" />
<path d="M9536 19039
L9536 18795
L9686 18926
L9686 18870
L9705 18832
L9723 18814
L9761 18795
L9855 18795
L9892 18814
L9911 18832
L9930 18870
L9930 18982
L9911 19020
L9892 19039
" />
<path d="M9536 18439
L9536 18626
L9723 18645
L9705 18626
L9686 18589
L9686 18495
L9705 18458
L9723 18439
L9761 18420
L9855 18420
L9892 18439
L9911 18458
L9930 18495
L9930 18589
L9911 18626
L9892 18645
" />
<text x="12578.7" y="10366.1"
textLength="845.426" font-size="524.934" lengthAdjust="spacingAndGlyphs"
text-anchor="middle" opacity="0">C7</text>
<path d="M12513 10309
L12494 10328
L12438 10347
L12400 10347
L12344 10328
L12306 10291
L12288 10253
L12269 10178
L12269 10122
L12288 10047
L12306 10009
L12344 9972
L12400 9953
L12438 9953
L12494 9972
L12513 9991
" />
<path d="M12644 9953
L12906 9953
L12738 10347
" />
<g transform="rotate(-90 9838.58 9948.82)">
<text x="9838.58" y="10145.7"
textLength="845.426" font-size="524.934" lengthAdjust="spacingAndGlyphs"
text-anchor="middle" opacity="0">C6</text>
</g>
<path d="M9979 10014
L9997 10033
L10016 10089
L10016 10126
L9997 10183
L9960 10220
L9922 10239
L9847 10258
L9791 10258
L9716 10239
L9679 10220
L9641 10183
L9622 10126
L9622 10089
L9641 10033
L9660 10014
" />
<path d="M9622 9676
L9622 9751
L9641 9789
L9660 9808
L9716 9845
L9791 9864
L9941 9864
L9979 9845
L9997 9826
L10016 9789
L10016 9714
L9997 9676
L9979 9658
L9941 9639
L9847 9639
L9810 9658
L9791 9676
L9772 9714
L9772 9789
L9791 9826
L9810 9845
L9847 9864
" />
<g transform="rotate(-90 9874.02 14421.3)">
<text x="9874.02" y="14618.1"
textLength="845.426" font-size="524.934" lengthAdjust="spacingAndGlyphs"
text-anchor="middle" opacity="0">C5</text>
</g>
<path d="M10014 14486
L10033 14505
L10052 14561
L10052 14599
L10033 14655
L9995 14693
L9958 14711
L9883 14730
L9827 14730
L9752 14711
L9714 14693
L9677 14655
L9658 14599
L9658 14561
L9677 14505
L9695 14486
" />
<path d="M9658 14130
L9658 14318
L9845 14336
L9827 14318
L9808 14280
L9808 14186
L9827 14149
L9845 14130
L9883 14111
L9977 14111
L10014 14130
L10033 14149
L10052 14186
L10052 14280
L10033 14318
L10014 14336
" />
<g transform="rotate(-90 11846.5 19771.7)">
<text x="11846.5" y="19968.5"
textLength="770.435" font-size="524.934" lengthAdjust="spacingAndGlyphs"
text-anchor="middle" opacity="0">L3</text>
</g>
<path d="M12024 19837
L12024 20024
L11630 20024
" />
<path d="M11630 19743
L11630 19499
L11780 19631
L11780 19574
L11799 19537
L11818 19518
L11855 19499
L11949 19499
L11987 19518
L12005 19537
L12024 19574
L12024 19687
L12005 19724
L11987 19743
" />
<g transform="rotate(-90 11925.2 10807.1)">
<text x="11925.2" y="11003.9"
textLength="770.435" font-size="524.934" lengthAdjust="spacingAndGlyphs"
text-anchor="middle" opacity="0">L1</text>
</g>
<path d="M12103 10872
L12103 11060
L11709 11060
" />
<path d="M12103 10535
L12103 10760
" />
<path d="M12103 10647
L11709 10647
L11765 10685
L11803 10722
L11822 10760
" />
<text x="29893.7" y="14165.4"
textLength="1239.13" font-size="524.934" lengthAdjust="spacingAndGlyphs"
text-anchor="middle" opacity="0">U10</text>
<path d="M29406 13752
L29406 14071
L29425 14109
L29443 14127
L29481 14146
L29556 14146
L29593 14127
L29612 14109
L29631 14071
L29631 13752
" />
<path d="M30024 14146
L29799 14146
" />
<path d="M29912 14146
L29912 13752
L29874 13809
L29837 13846
L29799 13865
" />
<path d="M30268 13752
L30306 13752
L30343 13771
L30362 13790
L30381 13827
L30399 13902
L30399 13996
L30381 14071
L30362 14109
L30343 14127
L30306 14146
L30268 14146
L30231 14127
L30212 14109
L30193 14071
L30174 13996
L30174 13902
L30193 13827
L30212 13790
L30231 13771
L30268 13752
" />
<g transform="rotate(-90 17338.6 13102.4)">
<text x="17338.6" y="13299.2"
textLength="864.173" font-size="524.934" lengthAdjust="spacingAndGlyphs"
text-anchor="middle" opacity="0">U9</text>
</g>
<path d="M17122 13402
L17441 13402
L17479 13383
L17497 13364
L17516 13327
L17516 13252
L17497 13214
L17479 13196
L17441 13177
L17122 13177
" />
<path d="M17516 12971
L17516 12896
L17497 12858
L17479 12839
L17422 12802
L17347 12783
L17197 12783
L17160 12802
L17141 12821
L17122 12858
L17122 12933
L17141 12971
L17160 12989
L17197 13008
L17291 13008
L17329 12989
L17347 12971
L17366 12933
L17366 12858
L17347 12821
L17329 12802
L17291 12783
" />
<g transform="rotate(-90 32535.4 17716.5)">
<text x="32535.4" y="17913.4"
textLength="864.173" font-size="524.934" lengthAdjust="spacingAndGlyphs"
text-anchor="middle" opacity="0">U8</text>
</g>
<path d="M32319 18016
L32638 18016
L32676 17997
L32694 17979
L32713 17941
L32713 17866
L32694 17829
L32676 17810
L32638 17791
L32319 17791
" />
<path d="M32488 17547
L32469 17585
L32451 17604
L32413 17622
L32394 17622
L32357 17604
L32338 17585
L32319 17547
L32319 17472
L32338 17435
L32357 17416
L32394 17397
L32413 17397
L32451 17416
L32469 17435
L32488 17472
L32488 17547
L32507 17585
L32526 17604
L32563 17622
L32638 17622
L32676 17604
L32694 17585
L32713 17547
L32713 17472
L32694 17435
L32676 17416
L32638 17397
L32563 17397
L32526 17416
L32507 17435
L32488 17472
" />
<g transform="rotate(-90 20826.8 12822.8)">
<text x="20826.8" y="13019.7"
textLength="864.173" font-size="524.934" lengthAdjust="spacingAndGlyphs"
text-anchor="middle" opacity="0">U7</text>
</g>
<path d="M20611 13122
L20929 13122
L20967 13104
L20986 13085
L21004 13047
L21004 12972
L20986 12935
L20967 12916
L20929 12897
L20611 12897
" />
<path d="M20611 12747
L20611 12485
L21004 12654
" />
<g transform="rotate(-90 23696.9 12834.6)">
<text x="23696.9" y="13031.5"
textLength="864.173" font-size="524.934" lengthAdjust="spacingAndGlyphs"
text-anchor="middle" opacity="0">U6</text>
</g>
<path d="M23481 13134
L23799 13134
L23837 13115
L23856 13097
L23874 13059
L23874 12984
L23856 12947
L23837 12928
L23799 12909
L23481 12909
" />
<path d="M23481 12553
L23481 12628
L23500 12665
L23518 12684
L23574 12722
L23649 12740
L23799 12740
L23837 12722
L23856 12703
L23874 12665
L23874 12590
L23856 12553
L23837 12534
L23799 12515
L23706 12515
L23668 12534
L23649 12553
L23631 12590
L23631 12665
L23649 12703
L23668 12722
L23706 12740
" />
<g transform="rotate(-90 11271.7 19192.9)">
<text x="11271.7" y="19389.8"
textLength="864.173" font-size="524.934" lengthAdjust="spacingAndGlyphs"
text-anchor="middle" opacity="0">U4</text>
</g>
<path d="M11056 19492
L11374 19492
L11412 19474
L11431 19455
L11449 19417
L11449 19342
L11431 19305
L11412 19286
L11374 19267
L11056 19267
" />
<path d="M11187 18911
L11449 18911
" />
<path d="M11037 19005
L11318 19099
L11318 18855
" />
<g transform="rotate(-90 11271.7 19192.9)">
<text x="11271.7" y="19389.8"
textLength="5157.39" font-size="524.934" lengthAdjust="spacingAndGlyphs"
text-anchor="middle" opacity="0">BD95821MUV-E2</text>
</g>
<path d="M11243 21508
L11262 21452
L11281 21433
L11318 21414
L11374 21414
L11412 21433
L11431 21452
L11449 21489
L11449 21639
L11056 21639
L11056 21508
L11074 21470
L11093 21452
L11131 21433
L11168 21433
L11206 21452
L11224 21470
L11243 21508
L11243 21639
" />
<path d="M11449 21245
L11056 21245
L11056 21152
L11074 21095
L11112 21058
L11149 21039
L11224 21020
L11281 21020
L11356 21039
L11393 21058
L11431 21095
L11449 21152
L11449 21245
" />
<path d="M11449 20833
L11449 20758
L11431 20720
L11412 20702
L11356 20664
L11281 20645
L11131 20645
L11093 20664
L11074 20683
L11056 20720
L11056 20795
L11074 20833
L11093 20852
L11131 20870
L11224 20870
L11262 20852
L11281 20833
L11299 20795
L11299 20720
L11281 20683
L11262 20664
L11224 20645
" />
<path d="M11056 20289
L11056 20477
L11243 20495
L11224 20477
L11206 20439
L11206 20345
L11224 20308
L11243 20289
L11281 20270
L11374 20270
L11412 20289
L11431 20308
L11449 20345
L11449 20439
L11431 20477
L11412 20495
" />
<path d="M11224 20045
L11206 20083
L11187 20102
L11149 20120
L11131 20120
L11093 20102
L11074 20083
L11056 20045
L11056 19970
L11074 19933
L11093 19914
L11131 19895
L11149 19895
L11187 19914
L11206 19933
L11224 19970
L11224 20045
L11243 20083
L11262 20102
L11299 20120
L11374 20120
L11412 20102
L11431 20083
L11449 20045
L11449 19970
L11431 19933
L11412 19914
L11374 19895
L11299 19895
L11262 19914
L11243 19933
L11224 19970
" />
<path d="M11093 19745
L11074 19727
L11056 19689
L11056 19595
L11074 19558
L11093 19539
L11131 19520
L11168 19520
L11224 19539
L11449 19764
L11449 19520
" />
<path d="M11449 19146
L11449 19371
" />
<path d="M11449 19258
L11056 19258
L11112 19296
L11149 19333
L11168 19371
" />
<path d="M11449 18977
L11056 18977
L11337 18846
L11056 18714
L11449 18714
" />
<path d="M11056 18527
L11374 18527
L11412 18508
L11431 18489
L11449 18452
L11449 18377
L11431 18339
L11412 18321
L11374 18302
L11056 18302
" />
<path d="M11056 18171
L11449 18039
L11056 17908
" />
<path d="M11299 17777
L11299 17477
" />
<path d="M11243 17290
L11243 17158
" />
<path d="M11449 17102
L11449 17290
L11056 17290
L11056 17102
" />
<path d="M11093 16952
L11074 16933
L11056 16896
L11056 16802
L11074 16765
L11093 16746
L11131 16727
L11168 16727
L11224 16746
L11449 16971
L11449 16727
" />
<g transform="rotate(-90 10871.7 20152.9)">
<text x="10871.7" y="20349.8"
textLength="376.734" font-size="524.934" lengthAdjust="spacingAndGlyphs"
text-anchor="middle" opacity="0">*</text>
</g>
<path d="M10656 20152
L10749 20152
" />
<path d="M10712 20246
L10749 20152
L10712 20059
" />
<path d="M10824 20209
L10749 20152
L10824 20096
" />
<g transform="rotate(-90 10871.7 20152.9)">
<text x="10871.7" y="20349.8"
textLength="376.734" font-size="524.934" lengthAdjust="spacingAndGlyphs"
text-anchor="middle" opacity="0">*</text>
</g>
<path d="M10656 20152
L10749 20152
" />
<path d="M10712 20246
L10749 20152
L10712 20059
" />
<path d="M10824 20209
L10749 20152
L10824 20096
" />
<g transform="rotate(-90 11378 14704.7)">
<text x="11378" y="14901.6"
textLength="864.173" font-size="524.934" lengthAdjust="spacingAndGlyphs"
text-anchor="middle" opacity="0">U3</text>
</g>
<path d="M11162 15004
L11481 15004
L11518 14985
L11537 14967
L11556 14929
L11556 14854
L11537 14817
L11518 14798
L11481 14779
L11162 14779
" />
<path d="M11162 14629
L11162 14386
L11312 14517
L11312 14461
L11331 14423
L11349 14404
L11387 14386
L11481 14386
L11518 14404
L11537 14423
L11556 14461
L11556 14573
L11537 14610
L11518 14629
" />
<g transform="rotate(-90 11378 14704.7)">
<text x="11378" y="14901.6"
textLength="5157.39" font-size="524.934" lengthAdjust="spacingAndGlyphs"
text-anchor="middle" opacity="0">BD95821MUV-E2</text>
</g>
<path d="M11349 17020
L11368 16963
L11387 16945
L11424 16926
L11481 16926
L11518 16945
L11537 16963
L11556 17001
L11556 17151
L11162 17151
L11162 17020
L11181 16982
L11199 16963
L11237 16945
L11274 16945
L11312 16963
L11331 16982
L11349 17020
L11349 17151
" />
<path d="M11556 16757
L11162 16757
L11162 16663
L11181 16607
L11218 16570
L11256 16551
L11331 16532
L11387 16532
L11462 16551
L11499 16570
L11537 16607
L11556 16663
L11556 16757
" />
<path d="M11556 16345
L11556 16270
L11537 16232
L11518 16213
L11462 16176
L11387 16157
L11237 16157
L11199 16176
L11181 16195
L11162 16232
L11162 16307
L11181 16345
L11199 16363
L11237 16382
L11331 16382
L11368 16363
L11387 16345
L11406 16307
L11406 16232
L11387 16195
L11368 16176
L11331 16157
" />
<path d="M11162 15801
L11162 15988
L11349 16007
L11331 15988
L11312 15951
L11312 15857
L11331 15820
L11349 15801
L11387 15782
L11481 15782
L11518 15801
L11537 15820
L11556 15857
L11556 15951
L11537 15988
L11518 16007
" />
<path d="M11331 15557
L11312 15595
L11293 15613
L11256 15632
L11237 15632
L11199 15613
L11181 15595
L11162 15557
L11162 15482
L11181 15445
L11199 15426
L11237 15407
L11256 15407
L11293 15426
L11312 15445
L11331 15482
L11331 15557
L11349 15595
L11368 15613
L11406 15632
L11481 15632
L11518 15613
L11537 15595
L11556 15557
L11556 15482
L11537 15445
L11518 15426
L11481 15407
L11406 15407
L11368 15426
L11349 15445
L11331 15482
" />
<path d="M11199 15257
L11181 15239
L11162 15201
L11162 15107
L11181 15070
L11199 15051
L11237 15032
L11274 15032
L11331 15051
L11556 15276
L11556 15032
" />
<path d="M11556 14657
L11556 14882
" />
<path d="M11556 14770
L11162 14770
L11218 14807
L11256 14845
L11274 14882
" />
<path d="M11556 14489
L11162 14489
L11443 14357
L11162 14226
L11556 14226
" />
<path d="M11162 14039
L11481 14039
L11518 14020
L11537 14001
L11556 13964
L11556 13889
L11537 13851
L11518 13832
L11481 13814
L11162 13814
" />
<path d="M11162 13682
L11556 13551
L11162 13420
" />
<path d="M11406 13289
L11406 12989
" />
<path d="M11349 12801
L11349 12670
" />
<path d="M11556 12614
L11556 12801
L11162 12801
L11162 12614
" />
<path d="M11199 12464
L11181 12445
L11162 12408
L11162 12314
L11181 12276
L11199 12258
L11237 12239
L11274 12239
L11331 12258
L11556 12483
L11556 12239
" />
<g transform="rotate(-90 10978 15664.7)">
<text x="10978" y="15861.6"
textLength="376.734" font-size="524.934" lengthAdjust="spacingAndGlyphs"
text-anchor="middle" opacity="0">*</text>
</g>
<path d="M10762 15664
L10856 15664
" />
<path d="M10818 15758
L10856 15664
L10818 15570
" />
<path d="M10931 15720
L10856 15664
L10931 15608
" />
<g transform="rotate(-90 10978 15664.7)">
<text x="10978" y="15861.6"
textLength="376.734" font-size="524.934" lengthAdjust="spacingAndGlyphs"
text-anchor="middle" opacity="0">*</text>
</g>
<path d="M10762 15664
L10856 15664
" />
<path d="M10818 15758
L10856 15664
L10818 15570
" />
<path d="M10931 15720
L10856 15664
L10931 15608
" />
<g transform="rotate(-90 11353.8 10228.9)">
<text x="11353.8" y="10425.7"
textLength="864.173" font-size="524.934" lengthAdjust="spacingAndGlyphs"
text-anchor="middle" opacity="0">U2</text>
</g>
<path d="M11138 10528
L11456 10528
L11494 10510
L11513 10491
L11531 10453
L11531 10378
L11513 10341
L11494 10322
L11456 10303
L11138 10303
" />
<path d="M11175 10135
L11156 10116
L11138 10078
L11138 9985
L11156 9947
L11175 9928
L11213 9910
L11250 9910
L11306 9928
L11531 10153
L11531 9910
" />
<g transform="rotate(-90 11353.8 10228.9)">
<text x="11353.8" y="10425.7"
textLength="5157.39" font-size="524.934" lengthAdjust="spacingAndGlyphs"
text-anchor="middle" opacity="0">BD95821MUV-E2</text>
</g>
<path d="M11325 12544
L11344 12487
L11363 12469
L11400 12450
L11456 12450
L11494 12469
L11513 12487
L11531 12525
L11531 12675
L11138 12675
L11138 12544
L11156 12506
L11175 12487
L11213 12469
L11250 12469
L11288 12487
L11306 12506
L11325 12544
L11325 12675
" />
<path d="M11531 12281
L11138 12281
L11138 12188
L11156 12131
L11194 12094
L11231 12075
L11306 12056
L11363 12056
L11438 12075
L11475 12094
L11513 12131
L11531 12188
L11531 12281
" />
<path d="M11531 11869
L11531 11794
L11513 11756
L11494 11738
L11438 11700
L11363 11681
L11213 11681
L11175 11700
L11156 11719
L11138 11756
L11138 11831
L11156 11869
L11175 11888
L11213 11906
L11306 11906
L11344 11888
L11363 11869
L11381 11831
L11381 11756
L11363 11719
L11344 11700
L11306 11681
" />
<path d="M11138 11325
L11138 11513
L11325 11531
L11306 11513
L11288 11475
L11288 11381
L11306 11344
L11325 11325
L11363 11306
L11456 11306
L11494 11325
L11513 11344
L11531 11381
L11531 11475
L11513 11513
L11494 11531
" />
<path d="M11306 11081
L11288 11119
L11269 11138
L11231 11156
L11213 11156
L11175 11138
L11156 11119
L11138 11081
L11138 11006
L11156 10969
L11175 10950
L11213 10931
L11231 10931
L11269 10950
L11288 10969
L11306 11006
L11306 11081
L11325 11119
L11344 11138
L11381 11156
L11456 11156
L11494 11138
L11513 11119
L11531 11081
L11531 11006
L11513 10969
L11494 10950
L11456 10931
L11381 10931
L11344 10950
L11325 10969
L11306 11006
" />
<path d="M11175 10781
L11156 10763
L11138 10725
L11138 10631
L11156 10594
L11175 10575
L11213 10556
L11250 10556
L11306 10575
L11531 10800
L11531 10556
" />
<path d="M11531 10182
L11531 10407
" />
<path d="M11531 10294
L11138 10294
L11194 10332
L11231 10369
L11250 10407
" />
<path d="M11531 10013
L11138 10013
L11419 9882
L11138 9750
L11531 9750
" />
<path d="M11138 9563
L11456 9563
L11494 9544
L11513 9525
L11531 9488
L11531 9413
L11513 9375
L11494 9357
L11456 9338
L11138 9338
" />
<path d="M11138 9207
L11531 9075
L11138 8944
" />
<path d="M11381 8813
L11381 8513
" />
<path d="M11325 8326
L11325 8194
" />
<path d="M11531 8138
L11531 8326
L11138 8326
L11138 8138
" />
<path d="M11175 7988
L11156 7969
L11138 7932
L11138 7838
L11156 7801
L11175 7782
L11213 7763
L11250 7763
L11306 7782
L11531 8007
L11531 7763
" />
<g transform="rotate(-90 10953.8 11188.9)">
<text x="10953.8" y="11385.7"
textLength="376.734" font-size="524.934" lengthAdjust="spacingAndGlyphs"
text-anchor="middle" opacity="0">*</text>
</g>
<path d="M10738 11188
L10831 11188
" />
<path d="M10794 11282
L10831 11188
L10794 11095
" />
<path d="M10906 11245
L10831 11188
L10906 11132
" />
<g transform="rotate(-90 10953.8 11188.9)">
<text x="10953.8" y="11385.7"
textLength="376.734" font-size="524.934" lengthAdjust="spacingAndGlyphs"
text-anchor="middle" opacity="0">*</text>
</g>
<path d="M10738 11188
L10831 11188
" />
<path d="M10794 11282
L10831 11188
L10794 11095
" />
<path d="M10906 11245
L10831 11188
L10906 11132
" />
<g transform="rotate(-90 20181.1 11519.7)">
<text x="20181.1" y="11716.5"
textLength="1220.38" font-size="524.934" lengthAdjust="spacingAndGlyphs"
text-anchor="middle" opacity="0">R32</text>
</g>
<path d="M20359 11772
L20171 11904
" />
<path d="M20359 11997
L19965 11997
L19965 11847
L19984 11810
L20002 11791
L20040 11772
L20096 11772
L20134 11791
L20152 11810
L20171 11847
L20171 11997
" />
<path d="M19965 11641
L19965 11397
L20115 11529
L20115 11472
L20134 11435
L20152 11416
L20190 11397
L20284 11397
L20321 11416
L20340 11435
L20359 11472
L20359 11585
L20340 11622
L20321 11641
" />
<path d="M20002 11247
L19984 11229
L19965 11191
L19965 11097
L19984 11060
L20002 11041
L20040 11022
L20077 11022
L20134 11041
L20359 11266
L20359 11022
" />
<g transform="rotate(-90 19551.2 11519.7)">
<text x="19551.2" y="11716.5"
textLength="1220.38" font-size="524.934" lengthAdjust="spacingAndGlyphs"
text-anchor="middle" opacity="0">R31</text>
</g>
<path d="M19729 11772
L19541 11904
" />
<path d="M19729 11997
L19335 11997
L19335 11847
L19354 11810
L19373 11791
L19410 11772
L19466 11772
L19504 11791
L19523 11810
L19541 11847
L19541 11997
" />
<path d="M19335 11641
L19335 11397
L19485 11529
L19485 11472
L19504 11435
L19523 11416
L19560 11397
L19654 11397
L19691 11416
L19710 11435
L19729 11472
L19729 11585
L19710 11622
L19691 11641
" />
<path d="M19729 11022
L19729 11247
" />
<path d="M19729 11135
L19335 11135
L19391 11172
L19429 11210
L19448 11247
" />
<g transform="rotate(-90 21303.1 12757.9)">
<text x="21303.1" y="12954.7"
textLength="1220.38" font-size="524.934" lengthAdjust="spacingAndGlyphs"
text-anchor="middle" opacity="0">R30</text>
</g>
<path d="M21481 13010
L21293 13142
" />
<path d="M21481 13235
L21087 13235
L21087 13085
L21106 13048
L21125 13029
L21162 13010
L21218 13010
L21256 13029
L21275 13048
L21293 13085
L21293 13235
" />
<path d="M21087 12879
L21087 12636
L21237 12767
L21237 12711
L21256 12673
L21275 12654
L21312 12636
L21406 12636
L21443 12654
L21462 12673
L21481 12711
L21481 12823
L21462 12860
L21443 12879
" />
<path d="M21087 12392
L21087 12354
L21106 12317
L21125 12298
L21162 12279
L21237 12261
L21331 12261
L21406 12279
L21443 12298
L21462 12317
L21481 12354
L21481 12392
L21462 12429
L21443 12448
L21406 12467
L21331 12486
L21237 12486
L21162 12467
L21125 12448
L21106 12429
L21087 12392
" />
<g transform="rotate(-90 14425.2 11133.9)">
<text x="14425.2" y="11330.7"
textLength="1220.38" font-size="524.934" lengthAdjust="spacingAndGlyphs"
text-anchor="middle" opacity="0">R29</text>
</g>
<path d="M14603 11386
L14415 11518
" />
<path d="M14603 11611
L14209 11611
L14209 11461
L14228 11424
L14247 11405
L14284 11386
L14340 11386
L14378 11405
L14397 11424
L14415 11461
L14415 11611
" />
<path d="M14247 11236
L14228 11218
L14209 11180
L14209 11086
L14228 11049
L14247 11030
L14284 11011
L14322 11011
L14378 11030
L14603 11255
L14603 11011
" />
<path d="M14603 10824
L14603 10749
L14584 10712
L14565 10693
L14509 10655
L14434 10637
L14284 10637
L14247 10655
L14228 10674
L14209 10712
L14209 10787
L14228 10824
L14247 10843
L14284 10862
L14378 10862
L14415 10843
L14434 10824
L14453 10787
L14453 10712
L14434 10674
L14415 10655
L14378 10637
" />
<text x="16094.5" y="8303.15"
textLength="1220.38" font-size="524.934" lengthAdjust="spacingAndGlyphs"
text-anchor="middle" opacity="0">R28</text>
<path d="M15841 8284
L15710 8096
" />
<path d="M15616 8284
L15616 7890
L15766 7890
L15803 7909
L15822 7928
L15841 7965
L15841 8021
L15822 8059
L15803 8078
L15766 8096
L15616 8096
" />
<path d="M15991 7928
L16010 7909
L16047 7890
L16141 7890
L16178 7909
L16197 7928
L16216 7965
L16216 8003
L16197 8059
L15972 8284
L16216 8284
" />
<path d="M16441 8059
L16403 8040
L16385 8021
L16366 7984
L16366 7965
L16385 7928
L16403 7909
L16441 7890
L16516 7890
L16553 7909
L16572 7928
L16591 7965
L16591 7984
L16572 8021
L16553 8040
L16516 8059
L16441 8059
L16403 8078
L16385 8096
L16366 8134
L16366 8209
L16385 8246
L16403 8265
L16441 8284
L16516 8284
L16553 8265
L16572 8246
L16591 8209
L16591 8134
L16572 8096
L16553 8078
L16516 8059
" />
<g transform="rotate(-90 20842.5 15330.7)">
<text x="20842.5" y="15527.6"
textLength="1220.38" font-size="524.934" lengthAdjust="spacingAndGlyphs"
text-anchor="middle" opacity="0">R27</text>
</g>
<path d="M21020 15583
L20833 15715
" />
<path d="M21020 15808
L20626 15808
L20626 15658
L20645 15621
L20664 15602
L20701 15583
L20758 15583
L20795 15602
L20814 15621
L20833 15658
L20833 15808
" />
<path d="M20664 15433
L20645 15415
L20626 15377
L20626 15283
L20645 15246
L20664 15227
L20701 15208
L20739 15208
L20795 15227
L21020 15452
L21020 15208
" />
<path d="M20626 15077
L20626 14815
L21020 14983
" />
<g transform="rotate(-90 16255.9 14942.9)">
<text x="16255.9" y="15139.8"
textLength="1220.38" font-size="524.934" lengthAdjust="spacingAndGlyphs"
text-anchor="middle" opacity="0">R26</text>
</g>
<path d="M16434 15196
L16246 15327
" />
<path d="M16434 15420
L16040 15420
L16040 15270
L16059 15233
L16077 15214
L16115 15196
L16171 15196
L16209 15214
L16227 15233
L16246 15270
L16246 15420
" />
<path d="M16077 15046
L16059 15027
L16040 14989
L16040 14896
L16059 14858
L16077 14839
L16115 14821
L16152 14821
L16209 14839
L16434 15064
L16434 14821
" />
<path d="M16040 14483
L16040 14558
L16059 14596
L16077 14614
L16134 14652
L16209 14671
L16359 14671
L16396 14652
L16415 14633
L16434 14596
L16434 14521
L16415 14483
L16396 14464
L16359 14446
L16265 14446
L16227 14464
L16209 14483
L16190 14521
L16190 14596
L16209 14633
L16227 14652
L16265 14671
" />
<g transform="rotate(-90 17342.5 14939)">
<text x="17342.5" y="15135.8"
textLength="1220.38" font-size="524.934" lengthAdjust="spacingAndGlyphs"
text-anchor="middle" opacity="0">R25</text>
</g>
<path d="M17520 15192
L17333 15323
" />
<path d="M17520 15417
L17126 15417
L17126 15267
L17145 15229
L17164 15210
L17201 15192
L17258 15192
L17295 15210
L17314 15229
L17333 15267
L17333 15417
" />
<path d="M17164 15042
L17145 15023
L17126 14985
L17126 14892
L17145 14854
L17164 14835
L17201 14817
L17239 14817
L17295 14835
L17520 15060
L17520 14817
" />
<path d="M17126 14460
L17126 14648
L17314 14667
L17295 14648
L17276 14610
L17276 14517
L17295 14479
L17314 14460
L17351 14442
L17445 14442
L17483 14460
L17501 14479
L17520 14517
L17520 14610
L17501 14648
L17483 14667
" />
<g transform="rotate(-90 30606.3 18927.2)">
<text x="30606.3" y="19124"
textLength="1220.38" font-size="524.934" lengthAdjust="spacingAndGlyphs"
text-anchor="middle" opacity="0">R24</text>
</g>
<path d="M30784 19180
L30596 19311
" />
<path d="M30784 19405
L30390 19405
L30390 19255
L30409 19217
L30428 19199
L30465 19180
L30521 19180
L30559 19199
L30578 19217
L30596 19255
L30596 19405
" />
<path d="M30428 19030
L30409 19011
L30390 18974
L30390 18880
L30409 18842
L30428 18824
L30465 18805
L30503 18805
L30559 18824
L30784 19049
L30784 18805
" />
<path d="M30521 18467
L30784 18467
" />
<path d="M30371 18561
L30653 18655
L30653 18411
" />
<g transform="rotate(-90 10271.7 18464.6)">
<text x="10271.7" y="18661.4"
textLength="1220.38" font-size="524.934" lengthAdjust="spacingAndGlyphs"
text-anchor="middle" opacity="0">R20</text>
</g>
<path d="M10449 18717
L10262 18848
" />
<path d="M10449 18942
L10056 18942
L10056 18792
L10074 18755
L10093 18736
L10131 18717
L10187 18717
L10224 18736
L10243 18755
L10262 18792
L10262 18942
" />
<path d="M10093 18567
L10074 18548
L10056 18511
L10056 18417
L10074 18380
L10093 18361
L10131 18342
L10168 18342
L10224 18361
L10449 18586
L10449 18342
" />
<path d="M10056 18098
L10056 18061
L10074 18023
L10093 18005
L10131 17986
L10206 17967
L10299 17967
L10374 17986
L10412 18005
L10431 18023
L10449 18061
L10449 18098
L10431 18136
L10412 18155
L10374 18173
L10299 18192
L10206 18192
L10131 18173
L10093 18155
L10074 18136
L10056 18098
" />
<text x="10606.3" y="18795.3"
textLength="1220.38" font-size="524.934" lengthAdjust="spacingAndGlyphs"
text-anchor="middle" opacity="0">R19</text>
<path d="M10353 18776
L10221 18589
" />
<path d="M10128 18776
L10128 18382
L10278 18382
L10315 18401
L10334 18420
L10353 18457
L10353 18514
L10334 18551
L10315 18570
L10278 18589
L10128 18589
" />
<path d="M10728 18776
L10503 18776
" />
<path d="M10615 18776
L10615 18382
L10578 18439
L10540 18476
L10503 18495
" />
<path d="M10915 18776
L10990 18776
L11028 18757
L11046 18739
L11084 18682
L11103 18607
L11103 18457
L11084 18420
L11065 18401
L11028 18382
L10953 18382
L10915 18401
L10896 18420
L10878 18457
L10878 18551
L10896 18589
L10915 18607
L10953 18626
L11028 18626
L11065 18607
L11084 18589
L11103 18551
" />
<text x="11803.1" y="18791.3"
textLength="1220.38" font-size="524.934" lengthAdjust="spacingAndGlyphs"
text-anchor="middle" opacity="0">R18</text>
<path d="M11550 18772
L11418 18585
" />
<path d="M11325 18772
L11325 18378
L11475 18378
L11512 18397
L11531 18416
L11550 18453
L11550 18510
L11531 18547
L11512 18566
L11475 18585
L11325 18585
" />
<path d="M11925 18772
L11700 18772
" />
<path d="M11812 18772
L11812 18378
L11775 18435
L11737 18472
L11700 18491
" />
<path d="M12149 18547
L12112 18528
L12093 18510
L12074 18472
L12074 18453
L12093 18416
L12112 18397
L12149 18378
L12224 18378
L12262 18397
L12281 18416
L12299 18453
L12299 18472
L12281 18510
L12262 18528
L12224 18547
L12149 18547
L12112 18566
L12093 18585
L12074 18622
L12074 18697
L12093 18735
L12112 18753
L12149 18772
L12224 18772
L12262 18753
L12281 18735
L12299 18697
L12299 18622
L12281 18585
L12262 18566
L12224 18547
" />
<text x="20614.2" y="18224.4"
textLength="1220.38" font-size="524.934" lengthAdjust="spacingAndGlyphs"
text-anchor="middle" opacity="0">R17</text>
<path d="M20361 18205
L20229 18018
" />
<path d="M20136 18205
L20136 17811
L20286 17811
L20323 17830
L20342 17849
L20361 17886
L20361 17943
L20342 17980
L20323 17999
L20286 18018
L20136 18018
" />
<path d="M20736 18205
L20511 18205
" />
<path d="M20623 18205
L20623 17811
L20586 17868
L20548 17905
L20511 17924
" />
<path d="M20867 17811
L21129 17811
L20961 18205
" />
<text x="32338.6" y="11858.3"
textLength="1220.38" font-size="524.934" lengthAdjust="spacingAndGlyphs"
text-anchor="middle" opacity="0">R15</text>
<path d="M32085 11839
L31954 11652
" />
<path d="M31860 11839
L31860 11445
L32010 11445
L32047 11464
L32066 11483
L32085 11520
L32085 11577
L32066 11614
L32047 11633
L32010 11652
L31860 11652
" />
<path d="M32460 11839
L32235 11839
" />
<path d="M32347 11839
L32347 11445
L32310 11502
L32272 11539
L32235 11558
" />
<path d="M32816 11445
L32629 11445
L32610 11633
L32629 11614
L32666 11595
L32760 11595
L32797 11614
L32816 11633
L32835 11670
L32835 11764
L32816 11802
L32797 11820
L32760 11839
L32666 11839
L32629 11820
L32610 11802
" />
<text x="32338.6" y="12468.5"
textLength="1220.38" font-size="524.934" lengthAdjust="spacingAndGlyphs"
text-anchor="middle" opacity="0">R14</text>
<path d="M32085 12449
L31954 12262
" />
<path d="M31860 12449
L31860 12056
L32010 12056
L32047 12074
L32066 12093
L32085 12131
L32085 12187
L32066 12224
L32047 12243
L32010 12262
L31860 12262
" />
<path d="M32460 12449
L32235 12449
" />
<path d="M32347 12449
L32347 12056
L32310 12112
L32272 12149
L32235 12168
" />
<path d="M32797 12187
L32797 12449
" />
<path d="M32704 12037
L32610 12318
L32854 12318
" />
<text x="27421.3" y="12944.9"
textLength="1220.38" font-size="524.934" lengthAdjust="spacingAndGlyphs"
text-anchor="middle" opacity="0">R12</text>
<path d="M27168 12926
L27036 12738
" />
<path d="M26943 12926
L26943 12532
L27093 12532
L27130 12551
L27149 12569
L27168 12607
L27168 12663
L27149 12701
L27130 12719
L27093 12738
L26943 12738
" />
<path d="M27543 12926
L27318 12926
" />
<path d="M27430 12926
L27430 12532
L27393 12588
L27355 12626
L27318 12644
" />
<path d="M27693 12569
L27711 12551
L27749 12532
L27843 12532
L27880 12551
L27899 12569
L27918 12607
L27918 12644
L27899 12701
L27674 12926
L27918 12926
" />
<text x="32338.6" y="13078.7"
textLength="1220.38" font-size="524.934" lengthAdjust="spacingAndGlyphs"
text-anchor="middle" opacity="0">R11</text>
<path d="M32085 13059
L31954 12872
" />
<path d="M31860 13059
L31860 12666
L32010 12666
L32047 12685
L32066 12703
L32085 12741
L32085 12797
L32066 12835
L32047 12853
L32010 12872
L31860 12872
" />
<path d="M32460 13059
L32235 13059
" />
<path d="M32347 13059
L32347 12666
L32310 12722
L32272 12760
L32235 12778
" />
<path d="M32835 13059
L32610 13059
" />
<path d="M32722 13059
L32722 12666
L32685 12722
L32647 12760
L32610 12778
" />
<text x="18730.3" y="17244.1"
textLength="1220.38" font-size="524.934" lengthAdjust="spacingAndGlyphs"
text-anchor="middle" opacity="0">R10</text>
<path d="M18477 17225
L18345 17037
" />
<path d="M18252 17225
L18252 16831
L18402 16831
L18439 16850
L18458 16869
L18477 16906
L18477 16962
L18458 17000
L18439 17019
L18402 17037
L18252 17037
" />
<path d="M18852 17225
L18627 17225
" />
<path d="M18739 17225
L18739 16831
L18702 16887
L18664 16925
L18627 16944
" />
<path d="M19095 16831
L19133 16831
L19170 16850
L19189 16869
L19208 16906
L19227 16981
L19227 17075
L19208 17150
L19189 17187
L19170 17206
L19133 17225
L19095 17225
L19058 17206
L19039 17187
L19020 17150
L19002 17075
L19002 16981
L19020 16906
L19039 16869
L19058 16850
L19095 16831
" />
<text x="31472.4" y="15618.1"
textLength="845.426" font-size="524.934" lengthAdjust="spacingAndGlyphs"
text-anchor="middle" opacity="0">R9</text>
<path d="M31406 15599
L31275 15411
" />
<path d="M31181 15599
L31181 15205
L31331 15205
L31369 15224
L31388 15243
L31406 15280
L31406 15336
L31388 15374
L31369 15393
L31331 15411
L31181 15411
" />
<path d="M31594 15599
L31669 15599
L31706 15580
L31725 15561
L31763 15505
L31781 15430
L31781 15280
L31763 15243
L31744 15224
L31706 15205
L31631 15205
L31594 15224
L31575 15243
L31556 15280
L31556 15374
L31575 15411
L31594 15430
L31631 15449
L31706 15449
L31744 15430
L31763 15411
L31781 15374
" />
<text x="28681.1" y="14854.3"
textLength="845.426" font-size="524.934" lengthAdjust="spacingAndGlyphs"
text-anchor="middle" opacity="0">R8</text>
<path d="M28615 14835
L28484 14648
" />
<path d="M28390 14835
L28390 14441
L28540 14441
L28577 14460
L28596 14479
L28615 14516
L28615 14573
L28596 14610
L28577 14629
L28540 14648
L28390 14648
" />
<path d="M28840 14610
L28802 14591
L28784 14573
L28765 14535
L28765 14516
L28784 14479
L28802 14460
L28840 14441
L28915 14441
L28952 14460
L28971 14479
L28990 14516
L28990 14535
L28971 14573
L28952 14591
L28915 14610
L28840 14610
L28802 14629
L28784 14648
L28765 14685
L28765 14760
L28784 14798
L28802 14816
L28840 14835
L28915 14835
L28952 14816
L28971 14798
L28990 14760
L28990 14685
L28971 14648
L28952 14629
L28915 14610
" />
<text x="10728.3" y="14295.3"
textLength="845.426" font-size="524.934" lengthAdjust="spacingAndGlyphs"
text-anchor="middle" opacity="0">R6</text>
<path d="M10662 14276
L10531 14089
" />
<path d="M10437 14276
L10437 13882
L10587 13882
L10625 13901
L10643 13920
L10662 13957
L10662 14014
L10643 14051
L10625 14070
L10587 14089
L10437 14089
" />
<path d="M11000 13882
L10925 13882
L10887 13901
L10868 13920
L10831 13976
L10812 14051
L10812 14201
L10831 14239
L10850 14257
L10887 14276
L10962 14276
L11000 14257
L11018 14239
L11037 14201
L11037 14107
L11018 14070
L11000 14051
L10962 14032
L10887 14032
L10850 14051
L10831 14070
L10812 14107
" />
<text x="11921.3" y="14299.2"
textLength="845.426" font-size="524.934" lengthAdjust="spacingAndGlyphs"
text-anchor="middle" opacity="0">R5</text>
<path d="M11855 14280
L11724 14092
" />
<path d="M11630 14280
L11630 13886
L11780 13886
L11818 13905
L11836 13924
L11855 13961
L11855 14017
L11836 14055
L11818 14074
L11780 14092
L11630 14092
" />
<path d="M12211 13886
L12024 13886
L12005 14074
L12024 14055
L12061 14036
L12155 14036
L12193 14055
L12211 14074
L12230 14111
L12230 14205
L12211 14242
L12193 14261
L12155 14280
L12061 14280
L12024 14261
L12005 14242
" />
<text x="10692.9" y="9850.39"
textLength="845.426" font-size="524.934" lengthAdjust="spacingAndGlyphs"
text-anchor="middle" opacity="0">R3</text>
<path d="M10627 9831
L10496 9644
" />
<path d="M10402 9831
L10402 9437
L10552 9437
L10589 9456
L10608 9475
L10627 9512
L10627 9569
L10608 9606
L10589 9625
L10552 9644
L10402 9644
" />
<path d="M10758 9437
L11002 9437
L10871 9587
L10927 9587
L10964 9606
L10983 9625
L11002 9662
L11002 9756
L10983 9794
L10964 9812
L10927 9831
L10814 9831
L10777 9812
L10758 9794
" />
<text x="11889.8" y="9850.39"
textLength="845.426" font-size="524.934" lengthAdjust="spacingAndGlyphs"
text-anchor="middle" opacity="0">R2</text>
<path d="M11824 9831
L11692 9644
" />
<path d="M11599 9831
L11599 9437
L11749 9437
L11786 9456
L11805 9475
L11824 9512
L11824 9569
L11805 9606
L11786 9625
L11749 9644
L11599 9644
" />
<path d="M11974 9475
L11992 9456
L12030 9437
L12124 9437
L12161 9456
L12180 9475
L12199 9512
L12199 9550
L12180 9606
L11955 9831
L12199 9831
" />
<g transform="rotate(-90 17070.9 11330.7)">
<text x="17070.9" y="11527.6"
textLength="864.173" font-size="524.934" lengthAdjust="spacingAndGlyphs"
text-anchor="middle" opacity="0">Q5</text>
</g>
<path d="M17286 11368
L17267 11405
L17230 11443
L17173 11499
L17155 11536
L17155 11574
" />
<path d="M17248 11555
L17230 11593
L17192 11630
L17117 11649
L16986 11649
L16911 11630
L16874 11593
L16855 11555
L16855 11480
L16874 11443
L16911 11405
L16986 11386
L17117 11386
L17192 11405
L17230 11443
L17248 11480
L17248 11555
" />
<path d="M16855 11030
L16855 11218
L17042 11236
L17023 11218
L17005 11180
L17005 11086
L17023 11049
L17042 11030
L17080 11011
L17173 11011
L17211 11030
L17230 11049
L17248 11086
L17248 11180
L17230 11218
L17211 11236
" />
<text x="15826.8" y="10944.9"
textLength="864.173" font-size="524.934" lengthAdjust="spacingAndGlyphs"
text-anchor="middle" opacity="0">Q4</text>
<path d="M15789 10963
L15751 10944
L15714 10907
L15658 10851
L15620 10832
L15583 10832
" />
<path d="M15601 10926
L15564 10907
L15526 10869
L15508 10794
L15508 10663
L15526 10588
L15564 10551
L15601 10532
L15676 10532
L15714 10551
L15751 10588
L15770 10663
L15770 10794
L15751 10869
L15714 10907
L15676 10926
L15601 10926
" />
<path d="M16107 10663
L16107 10926
" />
<path d="M16014 10513
L15920 10794
L16164 10794
" />
<g transform="rotate(-90 19771.7 14051.2)">
<text x="19771.7" y="14248"
textLength="864.173" font-size="524.934" lengthAdjust="spacingAndGlyphs"
text-anchor="middle" opacity="0">Q3</text>
</g>
<path d="M19987 14088
L19968 14126
L19931 14163
L19874 14219
L19856 14257
L19856 14294
" />
<path d="M19949 14276
L19931 14313
L19893 14351
L19818 14369
L19687 14369
L19612 14351
L19574 14313
L19556 14276
L19556 14201
L19574 14163
L19612 14126
L19687 14107
L19818 14107
L19893 14126
L19931 14163
L19949 14201
L19949 14276
" />
<path d="M19556 13976
L19556 13732
L19706 13863
L19706 13807
L19724 13769
L19743 13751
L19781 13732
L19874 13732
L19912 13751
L19931 13769
L19949 13807
L19949 13919
L19931 13957
L19912 13976
" />
<g transform="rotate(-90 15185 13665.4)">
<text x="15185" y="13862.2"
textLength="864.173" font-size="524.934" lengthAdjust="spacingAndGlyphs"
text-anchor="middle" opacity="0">Q2</text>
</g>
<path d="M15400 13702
L15381 13740
L15344 13777
L15288 13834
L15269 13871
L15269 13909
" />
<path d="M15363 13890
L15344 13927
L15306 13965
L15231 13984
L15100 13984
L15025 13965
L14988 13927
L14969 13890
L14969 13815
L14988 13777
L15025 13740
L15100 13721
L15231 13721
L15306 13740
L15344 13777
L15363 13815
L15363 13890
" />
<path d="M15006 13571
L14988 13552
L14969 13515
L14969 13421
L14988 13384
L15006 13365
L15044 13346
L15081 13346
L15138 13365
L15363 13590
L15363 13346
" />
</g>
<g style="fill:#000000; fill-opacity:0.0; 
stroke:#000000; stroke-width:5.90551; stroke-opacity:1; 
stroke-linecap:round; stroke-linejoin:round;">
<text x="31090.6" y="11637.8"
textLength="751.687" font-size="524.934" lengthAdjust="spacingAndGlyphs"
text-anchor="middle" opacity="0">J7</text>
<path d="M30959 11225
L30959 11506
L30940 11562
L30903 11600
L30846 11619
L30809 11619
" />
<path d="M31109 11225
L31371 11225
L31203 11619
" />
</g>
<g style="fill:#000000; fill-opacity:0.0; 
stroke:#000000; stroke-width:59.0551; stroke-opacity:1; 
stroke-linecap:round; stroke-linejoin:round;">
<text x="9311.02" y="21198.8"
textLength="682.593" font-size="524.934" lengthAdjust="spacingAndGlyphs"
text-anchor="middle" opacity="0">J1</text>
<path d="M9179 20786
L9179 21067
L9161 21123
L9123 21161
L9067 21180
L9029 21180
" />
<path d="M9573 21180
L9348 21180
" />
<path d="M9461 21180
L9461 20786
L9423 20842
L9386 20880
L9348 20898
" />
<g >
</g>
</g> 
</svg>
