<?xml version="1.0" standalone="no"?>
 <!DOCTYPE svg PUBLIC "-//W3C//DTD SVG 1.1//EN" 
 "http://www.w3.org/Graphics/SVG/1.1/DTD/svg11.dtd"> 
<svg
  xmlns:svg="http://www.w3.org/2000/svg"
  xmlns="http://www.w3.org/2000/svg"
  xmlns:xlink="http://www.w3.org/1999/xlink"
  version="1.1"
  width="11.998960cm" height="11.998960cm" viewBox="0 0 47240 47240">
<title>SVG Picture created as eldriver-B_Paste.svg date 2021/03/13 12:33:01 </title>
  <desc>Picture generated by PCBNEW </desc>
<g style="fill:#000000; fill-opacity:1;stroke:#000000; stroke-opacity:1;
stroke-linecap:round; stroke-linejoin:round;"
 transform="translate(0 0) scale(1 1)">
</g>
<g style="fill:#000000; fill-opacity:0.0; 
stroke:#000000; stroke-width:-0.000393701; stroke-opacity:1; 
stroke-linecap:round; stroke-linejoin:round;">
<g >
</g>
<g >
</g>
<g >
</g>
<g >
</g>
<g >
</g>
<g >
</g>
<g >
</g>
<g >
</g>
<g >
</g>
<g style="fill:#000000; fill-opacity:0.0; 
stroke:#000000; stroke-width:-0.000393701; stroke-opacity:1; 
stroke-linecap:round; stroke-linejoin:round;">
</g>
<g style="fill:#000000; fill-opacity:0.0; 
stroke:#000000; stroke-width:0; stroke-opacity:1; 
stroke-linecap:round; stroke-linejoin:round;">
</g>
<g style="fill:#000000; fill-opacity:1.0; 
stroke:#000000; stroke-width:0; stroke-opacity:1; 
stroke-linecap:round; stroke-linejoin:round;">
<path style="fill:#000000; fill-opacity:1.0; 
stroke:#000000; stroke-width:0; stroke-opacity:1; 
stroke-linecap:round; stroke-linejoin:round;fill-rule:evenodd;"
d="M 26281,19082.9
26286.3,19083.7
26291.6,19085.1
26296.7,19086.9
26301.6,19089.2
26306.2,19092
26310.6,19095.2
26314.6,19098.8
26318.2,19102.8
26321.4,19107.2
26324.2,19111.8
26326.5,19116.7
26328.3,19121.8
26329.6,19127
26330.4,19132.4
26330.7,19137.8
26330.7,19271.7
26330.4,19277.1
26329.6,19282.4
26328.3,19287.7
26326.5,19292.7
26324.2,19297.6
26321.4,19302.3
26318.2,19306.6
26314.6,19310.6
26310.6,19314.3
26306.2,19317.5
26301.6,19320.3
26296.7,19322.6
26291.6,19324.4
26286.3,19325.7
26281,19326.5
26275.6,19326.8
26165.4,19326.8
26160,19326.5
26154.6,19325.7
26149.4,19324.4
26144.3,19322.6
26139.4,19320.3
26134.7,19317.5
26130.4,19314.3
26126.4,19310.6
26122.7,19306.6
26119.5,19302.3
26116.7,19297.6
26114.4,19292.7
26112.6,19287.7
26111.3,19282.4
26110.5,19277.1
26110.2,19271.7
26110.2,19137.8
26110.5,19132.4
26111.3,19127
26112.6,19121.8
26114.4,19116.7
26116.7,19111.8
26119.5,19107.2
26122.7,19102.8
26126.4,19098.8
26130.4,19095.2
26134.7,19092
26139.4,19089.2
26144.3,19086.9
26149.4,19085.1
26154.6,19083.7
26160,19082.9
26165.4,19082.7
26275.6,19082.7
Z" /> 
<path style="fill:#000000; fill-opacity:1.0; 
stroke:#000000; stroke-width:0; stroke-opacity:1; 
stroke-linecap:round; stroke-linejoin:round;fill-rule:evenodd;"
d="M 25903,19082.9
25908.4,19083.7
25913.6,19085.1
25918.7,19086.9
25923.6,19089.2
25928.3,19092
25932.6,19095.2
25936.6,19098.8
25940.2,19102.8
25943.5,19107.2
25946.2,19111.8
25948.6,19116.7
25950.4,19121.8
25951.7,19127
25952.5,19132.4
25952.8,19137.8
25952.8,19271.7
25952.5,19277.1
25951.7,19282.4
25950.4,19287.7
25948.6,19292.7
25946.2,19297.6
25943.5,19302.3
25940.2,19306.6
25936.6,19310.6
25932.6,19314.3
25928.3,19317.5
25923.6,19320.3
25918.7,19322.6
25913.6,19324.4
25908.4,19325.7
25903,19326.5
25897.6,19326.8
25787.4,19326.8
25782,19326.5
25776.6,19325.7
25771.4,19324.4
25766.3,19322.6
25761.4,19320.3
25756.8,19317.5
25752.4,19314.3
25748.4,19310.6
25744.8,19306.6
25741.6,19302.3
25738.8,19297.6
25736.5,19292.7
25734.7,19287.7
25733.3,19282.4
25732.5,19277.1
25732.3,19271.7
25732.3,19137.8
25732.5,19132.4
25733.3,19127
25734.7,19121.8
25736.5,19116.7
25738.8,19111.8
25741.6,19107.2
25744.8,19102.8
25748.4,19098.8
25752.4,19095.2
25756.8,19092
25761.4,19089.2
25766.3,19086.9
25771.4,19085.1
25776.6,19083.7
25782,19082.9
25787.4,19082.7
25897.6,19082.7
Z" /> 
</g>
<g >
</g>
<g style="fill:#000000; fill-opacity:1.0; 
stroke:#000000; stroke-width:0; stroke-opacity:1; 
stroke-linecap:round; stroke-linejoin:round;">
<path style="fill:#000000; fill-opacity:1.0; 
stroke:#000000; stroke-width:0; stroke-opacity:1; 
stroke-linecap:round; stroke-linejoin:round;fill-rule:evenodd;"
d="M 26281,17401.8
26286.3,17402.6
26291.6,17403.9
26296.7,17405.8
26301.6,17408.1
26306.2,17410.9
26310.6,17414.1
26314.6,17417.7
26318.2,17421.7
26321.4,17426.1
26324.2,17430.7
26326.5,17435.6
26328.3,17440.7
26329.6,17445.9
26330.4,17451.3
26330.7,17456.7
26330.7,17590.6
26330.4,17596
26329.6,17601.3
26328.3,17606.6
26326.5,17611.6
26324.2,17616.5
26321.4,17621.2
26318.2,17625.5
26314.6,17629.5
26310.6,17633.2
26306.2,17636.4
26301.6,17639.2
26296.7,17641.5
26291.6,17643.3
26286.3,17644.6
26281,17645.4
26275.6,17645.7
26165.4,17645.7
26160,17645.4
26154.6,17644.6
26149.4,17643.3
26144.3,17641.5
26139.4,17639.2
26134.7,17636.4
26130.4,17633.2
26126.4,17629.5
26122.7,17625.5
26119.5,17621.2
26116.7,17616.5
26114.4,17611.6
26112.6,17606.6
26111.3,17601.3
26110.5,17596
26110.2,17590.6
26110.2,17456.7
26110.5,17451.3
26111.3,17445.9
26112.6,17440.7
26114.4,17435.6
26116.7,17430.7
26119.5,17426.1
26122.7,17421.7
26126.4,17417.7
26130.4,17414.1
26134.7,17410.9
26139.4,17408.1
26144.3,17405.8
26149.4,17403.9
26154.6,17402.6
26160,17401.8
26165.4,17401.6
26275.6,17401.6
Z" /> 
<path style="fill:#000000; fill-opacity:1.0; 
stroke:#000000; stroke-width:0; stroke-opacity:1; 
stroke-linecap:round; stroke-linejoin:round;fill-rule:evenodd;"
d="M 25903,17401.8
25908.4,17402.6
25913.6,17403.9
25918.7,17405.8
25923.6,17408.1
25928.3,17410.9
25932.6,17414.1
25936.6,17417.7
25940.2,17421.7
25943.5,17426.1
25946.2,17430.7
25948.6,17435.6
25950.4,17440.7
25951.7,17445.9
25952.5,17451.3
25952.8,17456.7
25952.8,17590.6
25952.5,17596
25951.7,17601.3
25950.4,17606.6
25948.6,17611.6
25946.2,17616.5
25943.5,17621.2
25940.2,17625.5
25936.6,17629.5
25932.6,17633.2
25928.3,17636.4
25923.6,17639.2
25918.7,17641.5
25913.6,17643.3
25908.4,17644.6
25903,17645.4
25897.6,17645.7
25787.4,17645.7
25782,17645.4
25776.6,17644.6
25771.4,17643.3
25766.3,17641.5
25761.4,17639.2
25756.8,17636.4
25752.4,17633.2
25748.4,17629.5
25744.8,17625.5
25741.6,17621.2
25738.8,17616.5
25736.5,17611.6
25734.7,17606.6
25733.3,17601.3
25732.5,17596
25732.3,17590.6
25732.3,17456.7
25732.5,17451.3
25733.3,17445.9
25734.7,17440.7
25736.5,17435.6
25738.8,17430.7
25741.6,17426.1
25744.8,17421.7
25748.4,17417.7
25752.4,17414.1
25756.8,17410.9
25761.4,17408.1
25766.3,17405.8
25771.4,17403.9
25776.6,17402.6
25782,17401.8
25787.4,17401.6
25897.6,17401.6
Z" /> 
</g>
<g >
</g>
<g style="fill:#000000; fill-opacity:1.0; 
stroke:#000000; stroke-width:0; stroke-opacity:1; 
stroke-linecap:round; stroke-linejoin:round;">
<path style="fill:#000000; fill-opacity:1.0; 
stroke:#000000; stroke-width:0; stroke-opacity:1; 
stroke-linecap:round; stroke-linejoin:round;fill-rule:evenodd;"
d="M 24962.1,17854.6
24967.4,17855.4
24972.7,17856.7
24977.8,17858.5
24982.7,17860.8
24987.3,17863.6
24991.7,17866.8
24995.7,17870.5
24999.3,17874.5
25002.5,17878.8
25005.3,17883.5
25007.6,17888.4
25009.4,17893.4
25010.8,17898.7
25011.5,17904
25011.8,17909.4
25011.8,18043.3
25011.5,18048.7
25010.8,18054.1
25009.4,18059.3
25007.6,18064.4
25005.3,18069.3
25002.5,18073.9
24999.3,18078.3
24995.7,18082.3
24991.7,18085.9
24987.3,18089.1
24982.7,18091.9
24977.8,18094.2
24972.7,18096.1
24967.4,18097.4
24962.1,18098.2
24956.7,18098.4
24846.5,18098.4
24841.1,18098.2
24835.7,18097.4
24830.5,18096.1
24825.4,18094.2
24820.5,18091.9
24815.8,18089.1
24811.5,18085.9
24807.5,18082.3
24803.8,18078.3
24800.6,18073.9
24797.8,18069.3
24795.5,18064.4
24793.7,18059.3
24792.4,18054.1
24791.6,18048.7
24791.3,18043.3
24791.3,17909.4
24791.6,17904
24792.4,17898.7
24793.7,17893.4
24795.5,17888.4
24797.8,17883.5
24800.6,17878.8
24803.8,17874.5
24807.5,17870.5
24811.5,17866.8
24815.8,17863.6
24820.5,17860.8
24825.4,17858.5
24830.5,17856.7
24835.7,17855.4
24841.1,17854.6
24846.5,17854.3
24956.7,17854.3
Z" /> 
<path style="fill:#000000; fill-opacity:1.0; 
stroke:#000000; stroke-width:0; stroke-opacity:1; 
stroke-linecap:round; stroke-linejoin:round;fill-rule:evenodd;"
d="M 25340,17854.6
25345.4,17855.4
25350.6,17856.7
25355.7,17858.5
25360.6,17860.8
25365.3,17863.6
25369.6,17866.8
25373.6,17870.5
25377.3,17874.5
25380.5,17878.8
25383.3,17883.5
25385.6,17888.4
25387.4,17893.4
25388.7,17898.7
25389.5,17904
25389.8,17909.4
25389.8,18043.3
25389.5,18048.7
25388.7,18054.1
25387.4,18059.3
25385.6,18064.4
25383.3,18069.3
25380.5,18073.9
25377.3,18078.3
25373.6,18082.3
25369.6,18085.9
25365.3,18089.1
25360.6,18091.9
25355.7,18094.2
25350.6,18096.1
25345.4,18097.4
25340,18098.2
25334.6,18098.4
25224.4,18098.4
25219,18098.2
25213.7,18097.4
25208.4,18096.1
25203.3,18094.2
25198.4,18091.9
25193.8,18089.1
25189.4,18085.9
25185.4,18082.3
25181.8,18078.3
25178.6,18073.9
25175.8,18069.3
25173.5,18064.4
25171.7,18059.3
25170.4,18054.1
25169.6,18048.7
25169.3,18043.3
25169.3,17909.4
25169.6,17904
25170.4,17898.7
25171.7,17893.4
25173.5,17888.4
25175.8,17883.5
25178.6,17878.8
25181.8,17874.5
25185.4,17870.5
25189.4,17866.8
25193.8,17863.6
25198.4,17860.8
25203.3,17858.5
25208.4,17856.7
25213.7,17855.4
25219,17854.6
25224.4,17854.3
25334.6,17854.3
Z" /> 
</g>
<g >
</g>
<g style="fill:#000000; fill-opacity:1.0; 
stroke:#000000; stroke-width:0; stroke-opacity:1; 
stroke-linecap:round; stroke-linejoin:round;">
<path style="fill:#000000; fill-opacity:1.0; 
stroke:#000000; stroke-width:0; stroke-opacity:1; 
stroke-linecap:round; stroke-linejoin:round;fill-rule:evenodd;"
d="M 24962.1,18240.4
24967.4,18241.2
24972.7,18242.5
24977.8,18244.4
24982.7,18246.7
24987.3,18249.4
24991.7,18252.7
24995.7,18256.3
24999.3,18260.3
25002.5,18264.7
25005.3,18269.3
25007.6,18274.2
25009.4,18279.3
25010.8,18284.5
25011.5,18289.9
25011.8,18295.3
25011.8,18429.1
25011.5,18434.5
25010.8,18439.9
25009.4,18445.1
25007.6,18450.2
25005.3,18455.1
25002.5,18459.8
24999.3,18464.1
24995.7,18468.1
24991.7,18471.7
24987.3,18475
24982.7,18477.7
24977.8,18480.1
24972.7,18481.9
24967.4,18483.2
24962.1,18484
24956.7,18484.3
24846.5,18484.3
24841.1,18484
24835.7,18483.2
24830.5,18481.9
24825.4,18480.1
24820.5,18477.7
24815.8,18475
24811.5,18471.7
24807.5,18468.1
24803.8,18464.1
24800.6,18459.8
24797.8,18455.1
24795.5,18450.2
24793.7,18445.1
24792.4,18439.9
24791.6,18434.5
24791.3,18429.1
24791.3,18295.3
24791.6,18289.9
24792.4,18284.5
24793.7,18279.3
24795.5,18274.2
24797.8,18269.3
24800.6,18264.7
24803.8,18260.3
24807.5,18256.3
24811.5,18252.7
24815.8,18249.4
24820.5,18246.7
24825.4,18244.4
24830.5,18242.5
24835.7,18241.2
24841.1,18240.4
24846.5,18240.2
24956.7,18240.2
Z" /> 
<path style="fill:#000000; fill-opacity:1.0; 
stroke:#000000; stroke-width:0; stroke-opacity:1; 
stroke-linecap:round; stroke-linejoin:round;fill-rule:evenodd;"
d="M 25340,18240.4
25345.4,18241.2
25350.6,18242.5
25355.7,18244.4
25360.6,18246.7
25365.3,18249.4
25369.6,18252.7
25373.6,18256.3
25377.3,18260.3
25380.5,18264.7
25383.3,18269.3
25385.6,18274.2
25387.4,18279.3
25388.7,18284.5
25389.5,18289.9
25389.8,18295.3
25389.8,18429.1
25389.5,18434.5
25388.7,18439.9
25387.4,18445.1
25385.6,18450.2
25383.3,18455.1
25380.5,18459.8
25377.3,18464.1
25373.6,18468.1
25369.6,18471.7
25365.3,18475
25360.6,18477.7
25355.7,18480.1
25350.6,18481.9
25345.4,18483.2
25340,18484
25334.6,18484.3
25224.4,18484.3
25219,18484
25213.7,18483.2
25208.4,18481.9
25203.3,18480.1
25198.4,18477.7
25193.8,18475
25189.4,18471.7
25185.4,18468.1
25181.8,18464.1
25178.6,18459.8
25175.8,18455.1
25173.5,18450.2
25171.7,18445.1
25170.4,18439.9
25169.6,18434.5
25169.3,18429.1
25169.3,18295.3
25169.6,18289.9
25170.4,18284.5
25171.7,18279.3
25173.5,18274.2
25175.8,18269.3
25178.6,18264.7
25181.8,18260.3
25185.4,18256.3
25189.4,18252.7
25193.8,18249.4
25198.4,18246.7
25203.3,18244.4
25208.4,18242.5
25213.7,18241.2
25219,18240.4
25224.4,18240.2
25334.6,18240.2
Z" /> 
</g>
<g >
</g>
<g style="fill:#000000; fill-opacity:1.0; 
stroke:#000000; stroke-width:0; stroke-opacity:1; 
stroke-linecap:round; stroke-linejoin:round;">
<path style="fill:#000000; fill-opacity:1.0; 
stroke:#000000; stroke-width:0; stroke-opacity:1; 
stroke-linecap:round; stroke-linejoin:round;fill-rule:evenodd;"
d="M 24962.1,19012.1
24967.4,19012.9
24972.7,19014.2
24977.8,19016
24982.7,19018.3
24987.3,19021.1
24991.7,19024.3
24995.7,19028
24999.3,19032
25002.5,19036.3
25005.3,19040.9
25007.6,19045.8
25009.4,19050.9
25010.8,19056.2
25011.5,19061.5
25011.8,19066.9
25011.8,19200.8
25011.5,19206.2
25010.8,19211.5
25009.4,19216.8
25007.6,19221.9
25005.3,19226.8
25002.5,19231.4
24999.3,19235.8
24995.7,19239.8
24991.7,19243.4
24987.3,19246.6
24982.7,19249.4
24977.8,19251.7
24972.7,19253.5
24967.4,19254.8
24962.1,19255.6
24956.7,19255.9
24846.5,19255.9
24841.1,19255.6
24835.7,19254.8
24830.5,19253.5
24825.4,19251.7
24820.5,19249.4
24815.8,19246.6
24811.5,19243.4
24807.5,19239.8
24803.8,19235.8
24800.6,19231.4
24797.8,19226.8
24795.5,19221.9
24793.7,19216.8
24792.4,19211.5
24791.6,19206.2
24791.3,19200.8
24791.3,19066.9
24791.6,19061.5
24792.4,19056.2
24793.7,19050.9
24795.5,19045.8
24797.8,19040.9
24800.6,19036.3
24803.8,19032
24807.5,19028
24811.5,19024.3
24815.8,19021.1
24820.5,19018.3
24825.4,19016
24830.5,19014.2
24835.7,19012.9
24841.1,19012.1
24846.5,19011.8
24956.7,19011.8
Z" /> 
<path style="fill:#000000; fill-opacity:1.0; 
stroke:#000000; stroke-width:0; stroke-opacity:1; 
stroke-linecap:round; stroke-linejoin:round;fill-rule:evenodd;"
d="M 25340,19012.1
25345.4,19012.9
25350.6,19014.2
25355.7,19016
25360.6,19018.3
25365.3,19021.1
25369.6,19024.3
25373.6,19028
25377.3,19032
25380.5,19036.3
25383.3,19040.9
25385.6,19045.8
25387.4,19050.9
25388.7,19056.2
25389.5,19061.5
25389.8,19066.9
25389.8,19200.8
25389.5,19206.2
25388.7,19211.5
25387.4,19216.8
25385.6,19221.9
25383.3,19226.8
25380.5,19231.4
25377.3,19235.8
25373.6,19239.8
25369.6,19243.4
25365.3,19246.6
25360.6,19249.4
25355.7,19251.7
25350.6,19253.5
25345.4,19254.8
25340,19255.6
25334.6,19255.9
25224.4,19255.9
25219,19255.6
25213.7,19254.8
25208.4,19253.5
25203.3,19251.7
25198.4,19249.4
25193.8,19246.6
25189.4,19243.4
25185.4,19239.8
25181.8,19235.8
25178.6,19231.4
25175.8,19226.8
25173.5,19221.9
25171.7,19216.8
25170.4,19211.5
25169.6,19206.2
25169.3,19200.8
25169.3,19066.9
25169.6,19061.5
25170.4,19056.2
25171.7,19050.9
25173.5,19045.8
25175.8,19040.9
25178.6,19036.3
25181.8,19032
25185.4,19028
25189.4,19024.3
25193.8,19021.1
25198.4,19018.3
25203.3,19016
25208.4,19014.2
25213.7,19012.9
25219,19012.1
25224.4,19011.8
25334.6,19011.8
Z" /> 
</g>
<g >
</g>
<g style="fill:#000000; fill-opacity:1.0; 
stroke:#000000; stroke-width:0; stroke-opacity:1; 
stroke-linecap:round; stroke-linejoin:round;">
<path style="fill:#000000; fill-opacity:1.0; 
stroke:#000000; stroke-width:0; stroke-opacity:1; 
stroke-linecap:round; stroke-linejoin:round;fill-rule:evenodd;"
d="M 24962.1,18626.2
24967.4,18627
24972.7,18628.4
24977.8,18630.2
24982.7,18632.5
24987.3,18635.3
24991.7,18638.5
24995.7,18642.1
24999.3,18646.1
25002.5,18650.5
25005.3,18655.1
25007.6,18660
25009.4,18665.1
25010.8,18670.3
25011.5,18675.7
25011.8,18681.1
25011.8,18815
25011.5,18820.4
25010.8,18825.7
25009.4,18831
25007.6,18836.1
25005.3,18840.9
25002.5,18845.6
24999.3,18849.9
24995.7,18853.9
24991.7,18857.6
24987.3,18860.8
24982.7,18863.6
24977.8,18865.9
24972.7,18867.7
24967.4,18869
24962.1,18869.8
24956.7,18870.1
24846.5,18870.1
24841.1,18869.8
24835.7,18869
24830.5,18867.7
24825.4,18865.9
24820.5,18863.6
24815.8,18860.8
24811.5,18857.6
24807.5,18853.9
24803.8,18849.9
24800.6,18845.6
24797.8,18840.9
24795.5,18836.1
24793.7,18831
24792.4,18825.7
24791.6,18820.4
24791.3,18815
24791.3,18681.1
24791.6,18675.7
24792.4,18670.3
24793.7,18665.1
24795.5,18660
24797.8,18655.1
24800.6,18650.5
24803.8,18646.1
24807.5,18642.1
24811.5,18638.5
24815.8,18635.3
24820.5,18632.5
24825.4,18630.2
24830.5,18628.4
24835.7,18627
24841.1,18626.2
24846.5,18626
24956.7,18626
Z" /> 
<path style="fill:#000000; fill-opacity:1.0; 
stroke:#000000; stroke-width:0; stroke-opacity:1; 
stroke-linecap:round; stroke-linejoin:round;fill-rule:evenodd;"
d="M 25340,18626.2
25345.4,18627
25350.6,18628.4
25355.7,18630.2
25360.6,18632.5
25365.3,18635.3
25369.6,18638.5
25373.6,18642.1
25377.3,18646.1
25380.5,18650.5
25383.3,18655.1
25385.6,18660
25387.4,18665.1
25388.7,18670.3
25389.5,18675.7
25389.8,18681.1
25389.8,18815
25389.5,18820.4
25388.7,18825.7
25387.4,18831
25385.6,18836.1
25383.3,18840.9
25380.5,18845.6
25377.3,18849.9
25373.6,18853.9
25369.6,18857.6
25365.3,18860.8
25360.6,18863.6
25355.7,18865.9
25350.6,18867.7
25345.4,18869
25340,18869.8
25334.6,18870.1
25224.4,18870.1
25219,18869.8
25213.7,18869
25208.4,18867.7
25203.3,18865.9
25198.4,18863.6
25193.8,18860.8
25189.4,18857.6
25185.4,18853.9
25181.8,18849.9
25178.6,18845.6
25175.8,18840.9
25173.5,18836.1
25171.7,18831
25170.4,18825.7
25169.6,18820.4
25169.3,18815
25169.3,18681.1
25169.6,18675.7
25170.4,18670.3
25171.7,18665.1
25173.5,18660
25175.8,18655.1
25178.6,18650.5
25181.8,18646.1
25185.4,18642.1
25189.4,18638.5
25193.8,18635.3
25198.4,18632.5
25203.3,18630.2
25208.4,18628.4
25213.7,18627
25219,18626.2
25224.4,18626
25334.6,18626
Z" /> 
</g>
<g >
</g>
<g style="fill:#000000; fill-opacity:1.0; 
stroke:#000000; stroke-width:0; stroke-opacity:1; 
stroke-linecap:round; stroke-linejoin:round;">
<path style="fill:#000000; fill-opacity:1.0; 
stroke:#000000; stroke-width:0; stroke-opacity:1; 
stroke-linecap:round; stroke-linejoin:round;fill-rule:evenodd;"
d="M 28847.9,16834.9
28853.3,16835.7
28858.5,16837
28863.6,16838.8
28868.5,16841.2
28873.1,16843.9
28877.5,16847.2
28881.5,16850.8
28885.1,16854.8
28888.3,16859.1
28891.1,16863.8
28893.4,16868.7
28895.3,16873.8
28896.6,16879
28897.4,16884.4
28897.6,16889.8
28897.6,17023.6
28897.4,17029
28896.6,17034.4
28895.3,17039.6
28893.4,17044.7
28891.1,17049.6
28888.3,17054.2
28885.1,17058.6
28881.5,17062.6
28877.5,17066.2
28873.1,17069.5
28868.5,17072.2
28863.6,17074.5
28858.5,17076.4
28853.3,17077.7
28847.9,17078.5
28842.5,17078.7
28732.3,17078.7
28726.9,17078.5
28721.5,17077.7
28716.3,17076.4
28711.2,17074.5
28706.3,17072.2
28701.7,17069.5
28697.3,17066.2
28693.3,17062.6
28689.7,17058.6
28686.5,17054.2
28683.7,17049.6
28681.4,17044.7
28679.5,17039.6
28678.2,17034.4
28677.4,17029
28677.2,17023.6
28677.2,16889.8
28677.4,16884.4
28678.2,16879
28679.5,16873.8
28681.4,16868.7
28683.7,16863.8
28686.5,16859.1
28689.7,16854.8
28693.3,16850.8
28697.3,16847.2
28701.7,16843.9
28706.3,16841.2
28711.2,16838.8
28716.3,16837
28721.5,16835.7
28726.9,16834.9
28732.3,16834.6
28842.5,16834.6
Z" /> 
<path style="fill:#000000; fill-opacity:1.0; 
stroke:#000000; stroke-width:0; stroke-opacity:1; 
stroke-linecap:round; stroke-linejoin:round;fill-rule:evenodd;"
d="M 28470,16834.9
28475.3,16835.7
28480.6,16837
28485.7,16838.8
28490.5,16841.2
28495.2,16843.9
28499.5,16847.2
28503.5,16850.8
28507.2,16854.8
28510.4,16859.1
28513.2,16863.8
28515.5,16868.7
28517.3,16873.8
28518.6,16879
28519.4,16884.4
28519.7,16889.8
28519.7,17023.6
28519.4,17029
28518.6,17034.4
28517.3,17039.6
28515.5,17044.7
28513.2,17049.6
28510.4,17054.2
28507.2,17058.6
28503.5,17062.6
28499.5,17066.2
28495.2,17069.5
28490.5,17072.2
28485.7,17074.5
28480.6,17076.4
28475.3,17077.7
28470,17078.5
28464.6,17078.7
28354.3,17078.7
28348.9,17078.5
28343.6,17077.7
28338.3,17076.4
28333.2,17074.5
28328.3,17072.2
28323.7,17069.5
28319.4,17066.2
28315.4,17062.6
28311.7,17058.6
28308.5,17054.2
28305.7,17049.6
28303.4,17044.7
28301.6,17039.6
28300.3,17034.4
28299.5,17029
28299.2,17023.6
28299.2,16889.8
28299.5,16884.4
28300.3,16879
28301.6,16873.8
28303.4,16868.7
28305.7,16863.8
28308.5,16859.1
28311.7,16854.8
28315.4,16850.8
28319.4,16847.2
28323.7,16843.9
28328.3,16841.2
28333.2,16838.8
28338.3,16837
28343.6,16835.7
28348.9,16834.9
28354.3,16834.6
28464.6,16834.6
Z" /> 
</g>
<g >
</g>
<g style="fill:#000000; fill-opacity:1.0; 
stroke:#000000; stroke-width:0; stroke-opacity:1; 
stroke-linecap:round; stroke-linejoin:round;">
<path style="fill:#000000; fill-opacity:1.0; 
stroke:#000000; stroke-width:0; stroke-opacity:1; 
stroke-linecap:round; stroke-linejoin:round;fill-rule:evenodd;"
d="M 29021.2,17220.7
29026.5,17221.5
29031.7,17222.8
29036.8,17224.7
29041.7,17227
29046.4,17229.8
29050.7,17233
29054.7,17236.6
29058.4,17240.6
29061.6,17245
29064.4,17249.6
29066.7,17254.5
29068.5,17259.6
29069.8,17264.8
29070.6,17270.2
29070.9,17275.6
29070.9,17409.4
29070.6,17414.9
29069.8,17420.2
29068.5,17425.4
29066.7,17430.5
29064.4,17435.4
29061.6,17440.1
29058.4,17444.4
29054.7,17448.4
29050.7,17452.1
29046.4,17455.3
29041.7,17458.1
29036.8,17460.4
29031.7,17462.2
29026.5,17463.5
29021.2,17464.3
29015.7,17464.6
28905.5,17464.6
28900.1,17464.3
28894.8,17463.5
28889.5,17462.2
28884.4,17460.4
28879.5,17458.1
28874.9,17455.3
28870.5,17452.1
28866.5,17448.4
28862.9,17444.4
28859.7,17440.1
28856.9,17435.4
28854.6,17430.5
28852.8,17425.4
28851.5,17420.2
28850.7,17414.9
28850.4,17409.4
28850.4,17275.6
28850.7,17270.2
28851.5,17264.8
28852.8,17259.6
28854.6,17254.5
28856.9,17249.6
28859.7,17245
28862.9,17240.6
28866.5,17236.6
28870.5,17233
28874.9,17229.8
28879.5,17227
28884.4,17224.7
28889.5,17222.8
28894.8,17221.5
28900.1,17220.7
28905.5,17220.5
29015.7,17220.5
Z" /> 
<path style="fill:#000000; fill-opacity:1.0; 
stroke:#000000; stroke-width:0; stroke-opacity:1; 
stroke-linecap:round; stroke-linejoin:round;fill-rule:evenodd;"
d="M 28643.2,17220.7
28648.5,17221.5
28653.8,17222.8
28658.9,17224.7
28663.8,17227
28668.4,17229.8
28672.8,17233
28676.8,17236.6
28680.4,17240.6
28683.6,17245
28686.4,17249.6
28688.7,17254.5
28690.5,17259.6
28691.9,17264.8
28692.6,17270.2
28692.9,17275.6
28692.9,17409.4
28692.6,17414.9
28691.9,17420.2
28690.5,17425.4
28688.7,17430.5
28686.4,17435.4
28683.6,17440.1
28680.4,17444.4
28676.8,17448.4
28672.8,17452.1
28668.4,17455.3
28663.8,17458.1
28658.9,17460.4
28653.8,17462.2
28648.5,17463.5
28643.2,17464.3
28637.8,17464.6
28527.6,17464.6
28522.2,17464.3
28516.8,17463.5
28511.6,17462.2
28506.5,17460.4
28501.6,17458.1
28496.9,17455.3
28492.6,17452.1
28488.6,17448.4
28485,17444.4
28481.7,17440.1
28478.9,17435.4
28476.6,17430.5
28474.8,17425.4
28473.5,17420.2
28472.7,17414.9
28472.4,17409.4
28472.4,17275.6
28472.7,17270.2
28473.5,17264.8
28474.8,17259.6
28476.6,17254.5
28478.9,17249.6
28481.7,17245
28485,17240.6
28488.6,17236.6
28492.6,17233
28496.9,17229.8
28501.6,17227
28506.5,17224.7
28511.6,17222.8
28516.8,17221.5
28522.2,17220.7
28527.6,17220.5
28637.8,17220.5
Z" /> 
</g>
<g >
</g>
<g style="fill:#000000; fill-opacity:1.0; 
stroke:#000000; stroke-width:0; stroke-opacity:1; 
stroke-linecap:round; stroke-linejoin:round;">
<path style="fill:#000000; fill-opacity:1.0; 
stroke:#000000; stroke-width:0; stroke-opacity:1; 
stroke-linecap:round; stroke-linejoin:round;fill-rule:evenodd;"
d="M 26316.4,16890
26321.8,16890.8
26327,16892.1
26332.1,16894
26337,16896.3
26341.6,16899.1
26346,16902.3
26350,16905.9
26353.6,16909.9
26356.9,16914.3
26359.6,16918.9
26361.9,16923.8
26363.8,16928.9
26365.1,16934.1
26365.9,16939.5
26366.1,16944.9
26366.1,17078.7
26365.9,17084.1
26365.1,17089.5
26363.8,17094.7
26361.9,17099.8
26359.6,17104.7
26356.9,17109.4
26353.6,17113.7
26350,17117.7
26346,17121.3
26341.6,17124.6
26337,17127.3
26332.1,17129.7
26327,17131.5
26321.8,17132.8
26316.4,17133.6
26311,17133.9
26200.8,17133.9
26195.4,17133.6
26190,17132.8
26184.8,17131.5
26179.7,17129.7
26174.8,17127.3
26170.2,17124.6
26165.8,17121.3
26161.8,17117.7
26158.2,17113.7
26155,17109.4
26152.2,17104.7
26149.9,17099.8
26148,17094.7
26146.7,17089.5
26145.9,17084.1
26145.7,17078.7
26145.7,16944.9
26145.9,16939.5
26146.7,16934.1
26148,16928.9
26149.9,16923.8
26152.2,16918.9
26155,16914.3
26158.2,16909.9
26161.8,16905.9
26165.8,16902.3
26170.2,16899.1
26174.8,16896.3
26179.7,16894
26184.8,16892.1
26190,16890.8
26195.4,16890
26200.8,16889.8
26311,16889.8
Z" /> 
<path style="fill:#000000; fill-opacity:1.0; 
stroke:#000000; stroke-width:0; stroke-opacity:1; 
stroke-linecap:round; stroke-linejoin:round;fill-rule:evenodd;"
d="M 25938.5,16890
25943.8,16890.8
25949.1,16892.1
25954.2,16894
25959.1,16896.3
25963.7,16899.1
25968,16902.3
25972,16905.9
25975.7,16909.9
25978.9,16914.3
25981.7,16918.9
25984,16923.8
25985.8,16928.9
25987.1,16934.1
25987.9,16939.5
25988.2,16944.9
25988.2,17078.7
25987.9,17084.1
25987.1,17089.5
25985.8,17094.7
25984,17099.8
25981.7,17104.7
25978.9,17109.4
25975.7,17113.7
25972,17117.7
25968,17121.3
25963.7,17124.6
25959.1,17127.3
25954.2,17129.7
25949.1,17131.5
25943.8,17132.8
25938.5,17133.6
25933.1,17133.9
25822.8,17133.9
25817.4,17133.6
25812.1,17132.8
25806.8,17131.5
25801.7,17129.7
25796.9,17127.3
25792.2,17124.6
25787.9,17121.3
25783.9,17117.7
25780.2,17113.7
25777,17109.4
25774.2,17104.7
25771.9,17099.8
25770.1,17094.7
25768.8,17089.5
25768,17084.1
25767.7,17078.7
25767.7,16944.9
25768,16939.5
25768.8,16934.1
25770.1,16928.9
25771.9,16923.8
25774.2,16918.9
25777,16914.3
25780.2,16909.9
25783.9,16905.9
25787.9,16902.3
25792.2,16899.1
25796.9,16896.3
25801.7,16894
25806.8,16892.1
25812.1,16890.8
25817.4,16890
25822.8,16889.8
25933.1,16889.8
Z" /> 
</g>
<g >
</g>
<g >
</g>
<g style="fill:#000000; fill-opacity:1.0; 
stroke:#000000; stroke-width:0; stroke-opacity:1; 
stroke-linecap:round; stroke-linejoin:round;">
<path style="fill:#000000; fill-opacity:1.0; 
stroke:#000000; stroke-width:0; stroke-opacity:1; 
stroke-linecap:round; stroke-linejoin:round;fill-rule:evenodd;"
d="M 28068.4,17850.7
28073.7,17851.5
28079,17852.8
28084.1,17854.6
28089,17856.9
28093.6,17859.7
28098,17862.9
28102,17866.5
28105.6,17870.5
28108.8,17874.9
28111.6,17879.5
28113.9,17884.4
28115.7,17889.5
28117.1,17894.8
28117.8,17900.1
28118.1,17905.5
28118.1,18015.7
28117.8,18021.2
28117.1,18026.5
28115.7,18031.7
28113.9,18036.8
28111.6,18041.7
28108.8,18046.4
28105.6,18050.7
28102,18054.7
28098,18058.4
28093.6,18061.6
28089,18064.4
28084.1,18066.7
28079,18068.5
28073.7,18069.8
28068.4,18070.6
28063,18070.9
27929.1,18070.9
27923.7,18070.6
27918.4,18069.8
27913.1,18068.5
27908,18066.7
27903.2,18064.4
27898.5,18061.6
27894.2,18058.4
27890.2,18054.7
27886.5,18050.7
27883.3,18046.4
27880.5,18041.7
27878.2,18036.8
27876.4,18031.7
27875.1,18026.5
27874.3,18021.2
27874,18015.7
27874,17905.5
27874.3,17900.1
27875.1,17894.8
27876.4,17889.5
27878.2,17884.4
27880.5,17879.5
27883.3,17874.9
27886.5,17870.5
27890.2,17866.5
27894.2,17862.9
27898.5,17859.7
27903.2,17856.9
27908,17854.6
27913.1,17852.8
27918.4,17851.5
27923.7,17850.7
27929.1,17850.4
28063,17850.4
Z" /> 
<path style="fill:#000000; fill-opacity:1.0; 
stroke:#000000; stroke-width:0; stroke-opacity:1; 
stroke-linecap:round; stroke-linejoin:round;fill-rule:evenodd;"
d="M 28068.4,17472.7
28073.7,17473.5
28079,17474.8
28084.1,17476.6
28089,17478.9
28093.6,17481.7
28098,17485
28102,17488.6
28105.6,17492.6
28108.8,17496.9
28111.6,17501.6
28113.9,17506.5
28115.7,17511.6
28117.1,17516.8
28117.8,17522.2
28118.1,17527.6
28118.1,17637.8
28117.8,17643.2
28117.1,17648.5
28115.7,17653.8
28113.9,17658.9
28111.6,17663.8
28108.8,17668.4
28105.6,17672.8
28102,17676.8
28098,17680.4
28093.6,17683.6
28089,17686.4
28084.1,17688.7
28079,17690.5
28073.7,17691.9
28068.4,17692.6
28063,17692.9
27929.1,17692.9
27923.7,17692.6
27918.4,17691.9
27913.1,17690.5
27908,17688.7
27903.2,17686.4
27898.5,17683.6
27894.2,17680.4
27890.2,17676.8
27886.5,17672.8
27883.3,17668.4
27880.5,17663.8
27878.2,17658.9
27876.4,17653.8
27875.1,17648.5
27874.3,17643.2
27874,17637.8
27874,17527.6
27874.3,17522.2
27875.1,17516.8
27876.4,17511.6
27878.2,17506.5
27880.5,17501.6
27883.3,17496.9
27886.5,17492.6
27890.2,17488.6
27894.2,17485
27898.5,17481.7
27903.2,17478.9
27908,17476.6
27913.1,17474.8
27918.4,17473.5
27923.7,17472.7
27929.1,17472.4
28063,17472.4
Z" /> 
</g>
<g >
</g>
<g style="fill:#000000; fill-opacity:1.0; 
stroke:#000000; stroke-width:0; stroke-opacity:1; 
stroke-linecap:round; stroke-linejoin:round;">
<path style="fill:#000000; fill-opacity:1.0; 
stroke:#000000; stroke-width:0; stroke-opacity:1; 
stroke-linecap:round; stroke-linejoin:round;fill-rule:evenodd;"
d="M 27151.1,18744.4
27156.4,18745.2
27161.7,18746.5
27166.8,18748.3
27171.7,18750.6
27176.3,18753.4
27180.6,18756.6
27184.6,18760.2
27188.3,18764.2
27191.5,18768.6
27194.3,18773.2
27196.6,18778.1
27198.4,18783.2
27199.7,18788.5
27200.5,18793.8
27200.8,18799.2
27200.8,18933.1
27200.5,18938.5
27199.7,18943.8
27198.4,18949.1
27196.6,18954.2
27194.3,18959.1
27191.5,18963.7
27188.3,18968
27184.6,18972
27180.6,18975.7
27176.3,18978.9
27171.7,18981.7
27166.8,18984
27161.7,18985.8
27156.4,18987.1
27151.1,18987.9
27145.7,18988.2
27035.4,18988.2
27030,18987.9
27024.7,18987.1
27019.4,18985.8
27014.3,18984
27009.5,18981.7
27004.8,18978.9
27000.5,18975.7
26996.5,18972
26992.8,18968
26989.6,18963.7
26986.8,18959.1
26984.5,18954.2
26982.7,18949.1
26981.4,18943.8
26980.6,18938.5
26980.3,18933.1
26980.3,18799.2
26980.6,18793.8
26981.4,18788.5
26982.7,18783.2
26984.5,18778.1
26986.8,18773.2
26989.6,18768.6
26992.8,18764.2
26996.5,18760.2
27000.5,18756.6
27004.8,18753.4
27009.5,18750.6
27014.3,18748.3
27019.4,18746.5
27024.7,18745.2
27030,18744.4
27035.4,18744.1
27145.7,18744.1
Z" /> 
<path style="fill:#000000; fill-opacity:1.0; 
stroke:#000000; stroke-width:0; stroke-opacity:1; 
stroke-linecap:round; stroke-linejoin:round;fill-rule:evenodd;"
d="M 26773.1,18744.4
26778.5,18745.2
26783.7,18746.5
26788.8,18748.3
26793.7,18750.6
26798.3,18753.4
26802.7,18756.6
26806.7,18760.2
26810.3,18764.2
26813.5,18768.6
26816.3,18773.2
26818.6,18778.1
26820.5,18783.2
26821.8,18788.5
26822.6,18793.8
26822.8,18799.2
26822.8,18933.1
26822.6,18938.5
26821.8,18943.8
26820.5,18949.1
26818.6,18954.2
26816.3,18959.1
26813.5,18963.7
26810.3,18968
26806.7,18972
26802.7,18975.7
26798.3,18978.9
26793.7,18981.7
26788.8,18984
26783.7,18985.8
26778.5,18987.1
26773.1,18987.9
26767.7,18988.2
26657.5,18988.2
26652.1,18987.9
26646.7,18987.1
26641.5,18985.8
26636.4,18984
26631.5,18981.7
26626.9,18978.9
26622.5,18975.7
26618.5,18972
26614.9,18968
26611.7,18963.7
26608.9,18959.1
26606.6,18954.2
26604.7,18949.1
26603.4,18943.8
26602.6,18938.5
26602.4,18933.1
26602.4,18799.2
26602.6,18793.8
26603.4,18788.5
26604.7,18783.2
26606.6,18778.1
26608.9,18773.2
26611.7,18768.6
26614.9,18764.2
26618.5,18760.2
26622.5,18756.6
26626.9,18753.4
26631.5,18750.6
26636.4,18748.3
26641.5,18746.5
26646.7,18745.2
26652.1,18744.4
26657.5,18744.1
26767.7,18744.1
Z" /> 
</g>
<g >
</g>
<g style="fill:#000000; fill-opacity:1.0; 
stroke:#000000; stroke-width:0; stroke-opacity:1; 
stroke-linecap:round; stroke-linejoin:round;">
<path style="fill:#000000; fill-opacity:1.0; 
stroke:#000000; stroke-width:0; stroke-opacity:1; 
stroke-linecap:round; stroke-linejoin:round;fill-rule:evenodd;"
d="M 27430.6,20283.7
27436,20284.5
27441.2,20285.8
27446.3,20287.7
27451.2,20290
27455.8,20292.8
27460.2,20296
27464.2,20299.6
27467.8,20303.6
27471,20308
27473.8,20312.6
27476.1,20317.5
27477.9,20322.6
27479.3,20327.8
27480,20333.2
27480.3,20338.6
27480.3,20448.8
27480,20454.2
27479.3,20459.6
27477.9,20464.8
27476.1,20469.9
27473.8,20474.8
27471,20479.4
27467.8,20483.8
27464.2,20487.8
27460.2,20491.4
27455.8,20494.6
27451.2,20497.4
27446.3,20499.7
27441.2,20501.6
27436,20502.9
27430.6,20503.7
27425.2,20503.9
27291.3,20503.9
27285.9,20503.7
27280.6,20502.9
27275.3,20501.6
27270.2,20499.7
27265.4,20497.4
27260.7,20494.6
27256.4,20491.4
27252.4,20487.8
27248.7,20483.8
27245.5,20479.4
27242.7,20474.8
27240.4,20469.9
27238.6,20464.8
27237.3,20459.6
27236.5,20454.2
27236.2,20448.8
27236.2,20338.6
27236.5,20333.2
27237.3,20327.8
27238.6,20322.6
27240.4,20317.5
27242.7,20312.6
27245.5,20308
27248.7,20303.6
27252.4,20299.6
27256.4,20296
27260.7,20292.8
27265.4,20290
27270.2,20287.7
27275.3,20285.8
27280.6,20284.5
27285.9,20283.7
27291.3,20283.5
27425.2,20283.5
Z" /> 
<path style="fill:#000000; fill-opacity:1.0; 
stroke:#000000; stroke-width:0; stroke-opacity:1; 
stroke-linecap:round; stroke-linejoin:round;fill-rule:evenodd;"
d="M 27430.6,19905.8
27436,19906.6
27441.2,19907.9
27446.3,19909.7
27451.2,19912
27455.8,19914.8
27460.2,19918
27464.2,19921.7
27467.8,19925.7
27471,19930
27473.8,19934.6
27476.1,19939.5
27477.9,19944.6
27479.3,19949.9
27480,19955.2
27480.3,19960.6
27480.3,20070.9
27480,20076.3
27479.3,20081.6
27477.9,20086.9
27476.1,20092
27473.8,20096.8
27471,20101.5
27467.8,20105.8
27464.2,20109.8
27460.2,20113.5
27455.8,20116.7
27451.2,20119.5
27446.3,20121.8
27441.2,20123.6
27436,20124.9
27430.6,20125.7
27425.2,20126
27291.3,20126
27285.9,20125.7
27280.6,20124.9
27275.3,20123.6
27270.2,20121.8
27265.4,20119.5
27260.7,20116.7
27256.4,20113.5
27252.4,20109.8
27248.7,20105.8
27245.5,20101.5
27242.7,20096.8
27240.4,20092
27238.6,20086.9
27237.3,20081.6
27236.5,20076.3
27236.2,20070.9
27236.2,19960.6
27236.5,19955.2
27237.3,19949.9
27238.6,19944.6
27240.4,19939.5
27242.7,19934.6
27245.5,19930
27248.7,19925.7
27252.4,19921.7
27256.4,19918
27260.7,19914.8
27265.4,19912
27270.2,19909.7
27275.3,19907.9
27280.6,19906.6
27285.9,19905.8
27291.3,19905.5
27425.2,19905.5
Z" /> 
</g>
<g >
</g>
<g style="fill:#000000; fill-opacity:1.0; 
stroke:#000000; stroke-width:0; stroke-opacity:1; 
stroke-linecap:round; stroke-linejoin:round;">
<path style="fill:#000000; fill-opacity:1.0; 
stroke:#000000; stroke-width:0; stroke-opacity:1; 
stroke-linecap:round; stroke-linejoin:round;fill-rule:evenodd;"
d="M 29359.7,17642
29365.1,17642.8
29370.3,17644.1
29375.4,17645.9
29380.3,17648.2
29385,17651
29389.3,17654.2
29393.3,17657.9
29396.9,17661.9
29400.2,17666.2
29402.9,17670.9
29405.3,17675.8
29407.1,17680.9
29408.4,17686.1
29409.2,17691.4
29409.4,17696.9
29409.4,17830.7
29409.2,17836.1
29408.4,17841.5
29407.1,17846.7
29405.3,17851.8
29402.9,17856.7
29400.2,17861.3
29396.9,17865.7
29393.3,17869.7
29389.3,17873.3
29385,17876.5
29380.3,17879.3
29375.4,17881.6
29370.3,17883.5
29365.1,17884.8
29359.7,17885.6
29354.3,17885.8
29244.1,17885.8
29238.7,17885.6
29233.3,17884.8
29228.1,17883.5
29223,17881.6
29218.1,17879.3
29213.5,17876.5
29209.1,17873.3
29205.1,17869.7
29201.5,17865.7
29198.3,17861.3
29195.5,17856.7
29193.2,17851.8
29191.3,17846.7
29190,17841.5
29189.2,17836.1
29189,17830.7
29189,17696.9
29189.2,17691.4
29190,17686.1
29191.3,17680.9
29193.2,17675.8
29195.5,17670.9
29198.3,17666.2
29201.5,17661.9
29205.1,17657.9
29209.1,17654.2
29213.5,17651
29218.1,17648.2
29223,17645.9
29228.1,17644.1
29233.3,17642.8
29238.7,17642
29244.1,17641.7
29354.3,17641.7
Z" /> 
<path style="fill:#000000; fill-opacity:1.0; 
stroke:#000000; stroke-width:0; stroke-opacity:1; 
stroke-linecap:round; stroke-linejoin:round;fill-rule:evenodd;"
d="M 28981.8,17642
28987.1,17642.8
28992.4,17644.1
28997.5,17645.9
29002.4,17648.2
29007,17651
29011.3,17654.2
29015.4,17657.9
29019,17661.9
29022.2,17666.2
29025,17670.9
29027.3,17675.8
29029.1,17680.9
29030.4,17686.1
29031.2,17691.4
29031.5,17696.9
29031.5,17830.7
29031.2,17836.1
29030.4,17841.5
29029.1,17846.7
29027.3,17851.8
29025,17856.7
29022.2,17861.3
29019,17865.7
29015.4,17869.7
29011.3,17873.3
29007,17876.5
29002.4,17879.3
28997.5,17881.6
28992.4,17883.5
28987.1,17884.8
28981.8,17885.6
28976.4,17885.8
28866.1,17885.8
28860.7,17885.6
28855.4,17884.8
28850.1,17883.5
28845,17881.6
28840.2,17879.3
28835.5,17876.5
28831.2,17873.3
28827.2,17869.7
28823.5,17865.7
28820.3,17861.3
28817.5,17856.7
28815.2,17851.8
28813.4,17846.7
28812.1,17841.5
28811.3,17836.1
28811,17830.7
28811,17696.9
28811.3,17691.4
28812.1,17686.1
28813.4,17680.9
28815.2,17675.8
28817.5,17670.9
28820.3,17666.2
28823.5,17661.9
28827.2,17657.9
28831.2,17654.2
28835.5,17651
28840.2,17648.2
28845,17645.9
28850.1,17644.1
28855.4,17642.8
28860.7,17642
28866.1,17641.7
28976.4,17641.7
Z" /> 
</g>
<g >
</g>
<g style="fill:#000000; fill-opacity:1.0; 
stroke:#000000; stroke-width:0; stroke-opacity:1; 
stroke-linecap:round; stroke-linejoin:round;">
<path style="fill:#000000; fill-opacity:1.0; 
stroke:#000000; stroke-width:0; stroke-opacity:1; 
stroke-linecap:round; stroke-linejoin:round;fill-rule:evenodd;"
d="M 29410.9,17134.1
29416.3,17134.9
29421.5,17136.2
29426.6,17138.1
29431.5,17140.4
29436.1,17143.1
29440.5,17146.4
29444.5,17150
29448.1,17154
29451.3,17158.4
29454.1,17163
29456.4,17167.9
29458.3,17173
29459.6,17178.2
29460.4,17183.6
29460.6,17189
29460.6,17299.2
29460.4,17304.6
29459.6,17310
29458.3,17315.2
29456.4,17320.3
29454.1,17325.2
29451.3,17329.8
29448.1,17334.2
29444.5,17338.2
29440.5,17341.8
29436.1,17345
29431.5,17347.8
29426.6,17350.1
29421.5,17352
29416.3,17353.3
29410.9,17354.1
29405.5,17354.3
29271.7,17354.3
29266.3,17354.1
29260.9,17353.3
29255.7,17352
29250.6,17350.1
29245.7,17347.8
29241,17345
29236.7,17341.8
29232.7,17338.2
29229,17334.2
29225.8,17329.8
29223,17325.2
29220.7,17320.3
29218.9,17315.2
29217.6,17310
29216.8,17304.6
29216.5,17299.2
29216.5,17189
29216.8,17183.6
29217.6,17178.2
29218.9,17173
29220.7,17167.9
29223,17163
29225.8,17158.4
29229,17154
29232.7,17150
29236.7,17146.4
29241,17143.1
29245.7,17140.4
29250.6,17138.1
29255.7,17136.2
29260.9,17134.9
29266.3,17134.1
29271.7,17133.9
29405.5,17133.9
Z" /> 
<path style="fill:#000000; fill-opacity:1.0; 
stroke:#000000; stroke-width:0; stroke-opacity:1; 
stroke-linecap:round; stroke-linejoin:round;fill-rule:evenodd;"
d="M 29410.9,16756.2
29416.3,16757
29421.5,16758.3
29426.6,16760.1
29431.5,16762.4
29436.1,16765.2
29440.5,16768.4
29444.5,16772
29448.1,16776.1
29451.3,16780.4
29454.1,16785
29456.4,16789.9
29458.3,16795
29459.6,16800.3
29460.4,16805.6
29460.6,16811
29460.6,16921.3
29460.4,16926.7
29459.6,16932
29458.3,16937.3
29456.4,16942.4
29454.1,16947.2
29451.3,16951.9
29448.1,16956.2
29444.5,16960.2
29440.5,16963.9
29436.1,16967.1
29431.5,16969.9
29426.6,16972.2
29421.5,16974
29416.3,16975.3
29410.9,16976.1
29405.5,16976.4
29271.7,16976.4
29266.3,16976.1
29260.9,16975.3
29255.7,16974
29250.6,16972.2
29245.7,16969.9
29241,16967.1
29236.7,16963.9
29232.7,16960.2
29229,16956.2
29225.8,16951.9
29223,16947.2
29220.7,16942.4
29218.9,16937.3
29217.6,16932
29216.8,16926.7
29216.5,16921.3
29216.5,16811
29216.8,16805.6
29217.6,16800.3
29218.9,16795
29220.7,16789.9
29223,16785
29225.8,16780.4
29229,16776.1
29232.7,16772
29236.7,16768.4
29241,16765.2
29245.7,16762.4
29250.6,16760.1
29255.7,16758.3
29260.9,16757
29266.3,16756.2
29271.7,16755.9
29405.5,16755.9
Z" /> 
</g>
<g >
</g>
<g style="fill:#000000; fill-opacity:1.0; 
stroke:#000000; stroke-width:0; stroke-opacity:1; 
stroke-linecap:round; stroke-linejoin:round;">
<path style="fill:#000000; fill-opacity:1.0; 
stroke:#000000; stroke-width:0; stroke-opacity:1; 
stroke-linecap:round; stroke-linejoin:round;fill-rule:evenodd;"
d="M 29359.7,18957
29365.1,18957.8
29370.3,18959.1
29375.4,18960.9
29380.3,18963.2
29385,18966
29389.3,18969.2
29393.3,18972.8
29396.9,18976.8
29400.2,18981.2
29402.9,18985.8
29405.3,18990.7
29407.1,18995.8
29408.4,19001.1
29409.2,19006.4
29409.4,19011.8
29409.4,19145.7
29409.2,19151.1
29408.4,19156.4
29407.1,19161.7
29405.3,19166.8
29402.9,19171.7
29400.2,19176.3
29396.9,19180.6
29393.3,19184.6
29389.3,19188.3
29385,19191.5
29380.3,19194.3
29375.4,19196.6
29370.3,19198.4
29365.1,19199.7
29359.7,19200.5
29354.3,19200.8
29244.1,19200.8
29238.7,19200.5
29233.3,19199.7
29228.1,19198.4
29223,19196.6
29218.1,19194.3
29213.5,19191.5
29209.1,19188.3
29205.1,19184.6
29201.5,19180.6
29198.3,19176.3
29195.5,19171.7
29193.2,19166.8
29191.3,19161.7
29190,19156.4
29189.2,19151.1
29189,19145.7
29189,19011.8
29189.2,19006.4
29190,19001.1
29191.3,18995.8
29193.2,18990.7
29195.5,18985.8
29198.3,18981.2
29201.5,18976.8
29205.1,18972.8
29209.1,18969.2
29213.5,18966
29218.1,18963.2
29223,18960.9
29228.1,18959.1
29233.3,18957.8
29238.7,18957
29244.1,18956.7
29354.3,18956.7
Z" /> 
<path style="fill:#000000; fill-opacity:1.0; 
stroke:#000000; stroke-width:0; stroke-opacity:1; 
stroke-linecap:round; stroke-linejoin:round;fill-rule:evenodd;"
d="M 28981.8,18957
28987.1,18957.8
28992.4,18959.1
28997.5,18960.9
29002.4,18963.2
29007,18966
29011.3,18969.2
29015.4,18972.8
29019,18976.8
29022.2,18981.2
29025,18985.8
29027.3,18990.7
29029.1,18995.8
29030.4,19001.1
29031.2,19006.4
29031.5,19011.8
29031.5,19145.7
29031.2,19151.1
29030.4,19156.4
29029.1,19161.7
29027.3,19166.8
29025,19171.7
29022.2,19176.3
29019,19180.6
29015.4,19184.6
29011.3,19188.3
29007,19191.5
29002.4,19194.3
28997.5,19196.6
28992.4,19198.4
28987.1,19199.7
28981.8,19200.5
28976.4,19200.8
28866.1,19200.8
28860.7,19200.5
28855.4,19199.7
28850.1,19198.4
28845,19196.6
28840.2,19194.3
28835.5,19191.5
28831.2,19188.3
28827.2,19184.6
28823.5,19180.6
28820.3,19176.3
28817.5,19171.7
28815.2,19166.8
28813.4,19161.7
28812.1,19156.4
28811.3,19151.1
28811,19145.7
28811,19011.8
28811.3,19006.4
28812.1,19001.1
28813.4,18995.8
28815.2,18990.7
28817.5,18985.8
28820.3,18981.2
28823.5,18976.8
28827.2,18972.8
28831.2,18969.2
28835.5,18966
28840.2,18963.2
28845,18960.9
28850.1,18959.1
28855.4,18957.8
28860.7,18957
28866.1,18956.7
28976.4,18956.7
Z" /> 
</g>
<g >
</g>
<g style="fill:#000000; fill-opacity:1.0; 
stroke:#000000; stroke-width:0; stroke-opacity:1; 
stroke-linecap:round; stroke-linejoin:round;">
<path style="fill:#000000; fill-opacity:1.0; 
stroke:#000000; stroke-width:0; stroke-opacity:1; 
stroke-linecap:round; stroke-linejoin:round;fill-rule:evenodd;"
d="M 29359.7,18563.3
29365.1,18564.1
29370.3,18565.4
29375.4,18567.2
29380.3,18569.5
29385,18572.3
29389.3,18575.5
29393.3,18579.1
29396.9,18583.1
29400.2,18587.5
29402.9,18592.1
29405.3,18597
29407.1,18602.1
29408.4,18607.4
29409.2,18612.7
29409.4,18618.1
29409.4,18752
29409.2,18757.4
29408.4,18762.7
29407.1,18768
29405.3,18773.1
29402.9,18778
29400.2,18782.6
29396.9,18786.9
29393.3,18790.9
29389.3,18794.6
29385,18797.8
29380.3,18800.6
29375.4,18802.9
29370.3,18804.7
29365.1,18806
29359.7,18806.8
29354.3,18807.1
29244.1,18807.1
29238.7,18806.8
29233.3,18806
29228.1,18804.7
29223,18802.9
29218.1,18800.6
29213.5,18797.8
29209.1,18794.6
29205.1,18790.9
29201.5,18786.9
29198.3,18782.6
29195.5,18778
29193.2,18773.1
29191.3,18768
29190,18762.7
29189.2,18757.4
29189,18752
29189,18618.1
29189.2,18612.7
29190,18607.4
29191.3,18602.1
29193.2,18597
29195.5,18592.1
29198.3,18587.5
29201.5,18583.1
29205.1,18579.1
29209.1,18575.5
29213.5,18572.3
29218.1,18569.5
29223,18567.2
29228.1,18565.4
29233.3,18564.1
29238.7,18563.3
29244.1,18563
29354.3,18563
Z" /> 
<path style="fill:#000000; fill-opacity:1.0; 
stroke:#000000; stroke-width:0; stroke-opacity:1; 
stroke-linecap:round; stroke-linejoin:round;fill-rule:evenodd;"
d="M 28981.8,18563.3
28987.1,18564.1
28992.4,18565.4
28997.5,18567.2
29002.4,18569.5
29007,18572.3
29011.3,18575.5
29015.4,18579.1
29019,18583.1
29022.2,18587.5
29025,18592.1
29027.3,18597
29029.1,18602.1
29030.4,18607.4
29031.2,18612.7
29031.5,18618.1
29031.5,18752
29031.2,18757.4
29030.4,18762.7
29029.1,18768
29027.3,18773.1
29025,18778
29022.2,18782.6
29019,18786.9
29015.4,18790.9
29011.3,18794.6
29007,18797.8
29002.4,18800.6
28997.5,18802.9
28992.4,18804.7
28987.1,18806
28981.8,18806.8
28976.4,18807.1
28866.1,18807.1
28860.7,18806.8
28855.4,18806
28850.1,18804.7
28845,18802.9
28840.2,18800.6
28835.5,18797.8
28831.2,18794.6
28827.2,18790.9
28823.5,18786.9
28820.3,18782.6
28817.5,18778
28815.2,18773.1
28813.4,18768
28812.1,18762.7
28811.3,18757.4
28811,18752
28811,18618.1
28811.3,18612.7
28812.1,18607.4
28813.4,18602.1
28815.2,18597
28817.5,18592.1
28820.3,18587.5
28823.5,18583.1
28827.2,18579.1
28831.2,18575.5
28835.5,18572.3
28840.2,18569.5
28845,18567.2
28850.1,18565.4
28855.4,18564.1
28860.7,18563.3
28866.1,18563
28976.4,18563
Z" /> 
</g>
<g >
</g>
<g style="fill:#000000; fill-opacity:1.0; 
stroke:#000000; stroke-width:0; stroke-opacity:1; 
stroke-linecap:round; stroke-linejoin:round;">
<path style="fill:#000000; fill-opacity:1.0; 
stroke:#000000; stroke-width:0; stroke-opacity:1; 
stroke-linecap:round; stroke-linejoin:round;fill-rule:evenodd;"
d="M 29355.8,18027.8
29361.1,18028.6
29366.4,18029.9
29371.5,18031.8
29376.4,18034.1
29381,18036.8
29385.4,18040.1
29389.4,18043.7
29393,18047.7
29396.2,18052.1
29399,18056.7
29401.3,18061.6
29403.1,18066.7
29404.5,18071.9
29405.2,18077.3
29405.5,18082.7
29405.5,18216.5
29405.2,18221.9
29404.5,18227.3
29403.1,18232.5
29401.3,18237.6
29399,18242.5
29396.2,18247.2
29393,18251.5
29389.4,18255.5
29385.4,18259.1
29381,18262.4
29376.4,18265.1
29371.5,18267.5
29366.4,18269.3
29361.1,18270.6
29355.8,18271.4
29350.4,18271.7
29240.2,18271.7
29234.8,18271.4
29229.4,18270.6
29224.2,18269.3
29219.1,18267.5
29214.2,18265.1
29209.5,18262.4
29205.2,18259.1
29201.2,18255.5
29197.6,18251.5
29194.3,18247.2
29191.5,18242.5
29189.2,18237.6
29187.4,18232.5
29186.1,18227.3
29185.3,18221.9
29185,18216.5
29185,18082.7
29185.3,18077.3
29186.1,18071.9
29187.4,18066.7
29189.2,18061.6
29191.5,18056.7
29194.3,18052.1
29197.6,18047.7
29201.2,18043.7
29205.2,18040.1
29209.5,18036.8
29214.2,18034.1
29219.1,18031.8
29224.2,18029.9
29229.4,18028.6
29234.8,18027.8
29240.2,18027.6
29350.4,18027.6
Z" /> 
<path style="fill:#000000; fill-opacity:1.0; 
stroke:#000000; stroke-width:0; stroke-opacity:1; 
stroke-linecap:round; stroke-linejoin:round;fill-rule:evenodd;"
d="M 28977.8,18027.8
28983.2,18028.6
28988.4,18029.9
28993.5,18031.8
28998.4,18034.1
29003.1,18036.8
29007.4,18040.1
29011.4,18043.7
29015,18047.7
29018.3,18052.1
29021.1,18056.7
29023.4,18061.6
29025.2,18066.7
29026.5,18071.9
29027.3,18077.3
29027.6,18082.7
29027.6,18216.5
29027.3,18221.9
29026.5,18227.3
29025.2,18232.5
29023.4,18237.6
29021.1,18242.5
29018.3,18247.2
29015,18251.5
29011.4,18255.5
29007.4,18259.1
29003.1,18262.4
28998.4,18265.1
28993.5,18267.5
28988.4,18269.3
28983.2,18270.6
28977.8,18271.4
28972.4,18271.7
28862.2,18271.7
28856.8,18271.4
28851.5,18270.6
28846.2,18269.3
28841.1,18267.5
28836.2,18265.1
28831.6,18262.4
28827.2,18259.1
28823.2,18255.5
28819.6,18251.5
28816.4,18247.2
28813.6,18242.5
28811.3,18237.6
28809.5,18232.5
28808.1,18227.3
28807.4,18221.9
28807.1,18216.5
28807.1,18082.7
28807.4,18077.3
28808.1,18071.9
28809.5,18066.7
28811.3,18061.6
28813.6,18056.7
28816.4,18052.1
28819.6,18047.7
28823.2,18043.7
28827.2,18040.1
28831.6,18036.8
28836.2,18034.1
28841.1,18031.8
28846.2,18029.9
28851.5,18028.6
28856.8,18027.8
28862.2,18027.6
28972.4,18027.6
Z" /> 
</g>
<g >
</g>
<g style="fill:#000000; fill-opacity:1.0; 
stroke:#000000; stroke-width:0; stroke-opacity:1; 
stroke-linecap:round; stroke-linejoin:round;">
<path style="fill:#000000; fill-opacity:1.0; 
stroke:#000000; stroke-width:0; stroke-opacity:1; 
stroke-linecap:round; stroke-linejoin:round;fill-rule:evenodd;"
d="M 27202.3,16834.9
27207.6,16835.7
27212.9,16837
27217.9,16838.8
27222.8,16841.2
27227.5,16843.9
27231.8,16847.2
27235.8,16850.8
27239.5,16854.8
27242.7,16859.1
27245.5,16863.8
27247.8,16868.7
27249.6,16873.8
27250.9,16879
27251.7,16884.4
27252,16889.8
27252,17023.6
27251.7,17029
27250.9,17034.4
27249.6,17039.6
27247.8,17044.7
27245.5,17049.6
27242.7,17054.2
27239.5,17058.6
27235.8,17062.6
27231.8,17066.2
27227.5,17069.5
27222.8,17072.2
27217.9,17074.5
27212.9,17076.4
27207.6,17077.7
27202.3,17078.5
27196.9,17078.7
27086.6,17078.7
27081.2,17078.5
27075.9,17077.7
27070.6,17076.4
27065.5,17074.5
27060.6,17072.2
27056,17069.5
27051.6,17066.2
27047.6,17062.6
27044,17058.6
27040.8,17054.2
27038,17049.6
27035.7,17044.7
27033.9,17039.6
27032.6,17034.4
27031.8,17029
27031.5,17023.6
27031.5,16889.8
27031.8,16884.4
27032.6,16879
27033.9,16873.8
27035.7,16868.7
27038,16863.8
27040.8,16859.1
27044,16854.8
27047.6,16850.8
27051.6,16847.2
27056,16843.9
27060.6,16841.2
27065.5,16838.8
27070.6,16837
27075.9,16835.7
27081.2,16834.9
27086.6,16834.6
27196.9,16834.6
Z" /> 
<path style="fill:#000000; fill-opacity:1.0; 
stroke:#000000; stroke-width:0; stroke-opacity:1; 
stroke-linecap:round; stroke-linejoin:round;fill-rule:evenodd;"
d="M 26824.3,16834.9
26829.7,16835.7
26834.9,16837
26840,16838.8
26844.9,16841.2
26849.5,16843.9
26853.9,16847.2
26857.9,16850.8
26861.5,16854.8
26864.7,16859.1
26867.5,16863.8
26869.8,16868.7
26871.6,16873.8
26873,16879
26873.8,16884.4
26874,16889.8
26874,17023.6
26873.8,17029
26873,17034.4
26871.6,17039.6
26869.8,17044.7
26867.5,17049.6
26864.7,17054.2
26861.5,17058.6
26857.9,17062.6
26853.9,17066.2
26849.5,17069.5
26844.9,17072.2
26840,17074.5
26834.9,17076.4
26829.7,17077.7
26824.3,17078.5
26818.9,17078.7
26708.7,17078.7
26703.3,17078.5
26697.9,17077.7
26692.7,17076.4
26687.6,17074.5
26682.7,17072.2
26678,17069.5
26673.7,17066.2
26669.7,17062.6
26666.1,17058.6
26662.8,17054.2
26660.1,17049.6
26657.7,17044.7
26655.9,17039.6
26654.6,17034.4
26653.8,17029
26653.5,17023.6
26653.5,16889.8
26653.8,16884.4
26654.6,16879
26655.9,16873.8
26657.7,16868.7
26660.1,16863.8
26662.8,16859.1
26666.1,16854.8
26669.7,16850.8
26673.7,16847.2
26678,16843.9
26682.7,16841.2
26687.6,16838.8
26692.7,16837
26697.9,16835.7
26703.3,16834.9
26708.7,16834.6
26818.9,16834.6
Z" /> 
</g>
<g >
</g>
<g style="fill:#000000; fill-opacity:1.0; 
stroke:#000000; stroke-width:0; stroke-opacity:1; 
stroke-linecap:round; stroke-linejoin:round;">
<path style="fill:#000000; fill-opacity:1.0; 
stroke:#000000; stroke-width:0; stroke-opacity:1; 
stroke-linecap:round; stroke-linejoin:round;fill-rule:evenodd;"
d="M 29804.6,17134.1
29810,17134.9
29815.2,17136.2
29820.3,17138.1
29825.2,17140.4
29829.8,17143.1
29834.2,17146.4
29838.2,17150
29841.8,17154
29845,17158.4
29847.8,17163
29850.1,17167.9
29852,17173
29853.3,17178.2
29854.1,17183.6
29854.3,17189
29854.3,17299.2
29854.1,17304.6
29853.3,17310
29852,17315.2
29850.1,17320.3
29847.8,17325.2
29845,17329.8
29841.8,17334.2
29838.2,17338.2
29834.2,17341.8
29829.8,17345
29825.2,17347.8
29820.3,17350.1
29815.2,17352
29810,17353.3
29804.6,17354.1
29799.2,17354.3
29665.4,17354.3
29660,17354.1
29654.6,17353.3
29649.4,17352
29644.3,17350.1
29639.4,17347.8
29634.7,17345
29630.4,17341.8
29626.4,17338.2
29622.7,17334.2
29619.5,17329.8
29616.7,17325.2
29614.4,17320.3
29612.6,17315.2
29611.3,17310
29610.5,17304.6
29610.2,17299.2
29610.2,17189
29610.5,17183.6
29611.3,17178.2
29612.6,17173
29614.4,17167.9
29616.7,17163
29619.5,17158.4
29622.7,17154
29626.4,17150
29630.4,17146.4
29634.7,17143.1
29639.4,17140.4
29644.3,17138.1
29649.4,17136.2
29654.6,17134.9
29660,17134.1
29665.4,17133.9
29799.2,17133.9
Z" /> 
<path style="fill:#000000; fill-opacity:1.0; 
stroke:#000000; stroke-width:0; stroke-opacity:1; 
stroke-linecap:round; stroke-linejoin:round;fill-rule:evenodd;"
d="M 29804.6,16756.2
29810,16757
29815.2,16758.3
29820.3,16760.1
29825.2,16762.4
29829.8,16765.2
29834.2,16768.4
29838.2,16772
29841.8,16776.1
29845,16780.4
29847.8,16785
29850.1,16789.9
29852,16795
29853.3,16800.3
29854.1,16805.6
29854.3,16811
29854.3,16921.3
29854.1,16926.7
29853.3,16932
29852,16937.3
29850.1,16942.4
29847.8,16947.2
29845,16951.9
29841.8,16956.2
29838.2,16960.2
29834.2,16963.9
29829.8,16967.1
29825.2,16969.9
29820.3,16972.2
29815.2,16974
29810,16975.3
29804.6,16976.1
29799.2,16976.4
29665.4,16976.4
29660,16976.1
29654.6,16975.3
29649.4,16974
29644.3,16972.2
29639.4,16969.9
29634.7,16967.1
29630.4,16963.9
29626.4,16960.2
29622.7,16956.2
29619.5,16951.9
29616.7,16947.2
29614.4,16942.4
29612.6,16937.3
29611.3,16932
29610.5,16926.7
29610.2,16921.3
29610.2,16811
29610.5,16805.6
29611.3,16800.3
29612.6,16795
29614.4,16789.9
29616.7,16785
29619.5,16780.4
29622.7,16776.1
29626.4,16772
29630.4,16768.4
29634.7,16765.2
29639.4,16762.4
29644.3,16760.1
29649.4,16758.3
29654.6,16757
29660,16756.2
29665.4,16755.9
29799.2,16755.9
Z" /> 
</g>
<g >
</g>
<g style="fill:#000000; fill-opacity:1.0; 
stroke:#000000; stroke-width:0; stroke-opacity:1; 
stroke-linecap:round; stroke-linejoin:round;">
<path style="fill:#000000; fill-opacity:1.0; 
stroke:#000000; stroke-width:0; stroke-opacity:1; 
stroke-linecap:round; stroke-linejoin:round;fill-rule:evenodd;"
d="M 27816.4,20283.7
27821.8,20284.5
27827,20285.8
27832.1,20287.7
27837,20290
27841.6,20292.8
27846,20296
27850,20299.6
27853.6,20303.6
27856.9,20308
27859.6,20312.6
27861.9,20317.5
27863.8,20322.6
27865.1,20327.8
27865.9,20333.2
27866.1,20338.6
27866.1,20448.8
27865.9,20454.2
27865.1,20459.6
27863.8,20464.8
27861.9,20469.9
27859.6,20474.8
27856.9,20479.4
27853.6,20483.8
27850,20487.8
27846,20491.4
27841.6,20494.6
27837,20497.4
27832.1,20499.7
27827,20501.6
27821.8,20502.9
27816.4,20503.7
27811,20503.9
27677.2,20503.9
27671.8,20503.7
27666.4,20502.9
27661.2,20501.6
27656.1,20499.7
27651.2,20497.4
27646.5,20494.6
27642.2,20491.4
27638.2,20487.8
27634.6,20483.8
27631.3,20479.4
27628.6,20474.8
27626.2,20469.9
27624.4,20464.8
27623.1,20459.6
27622.3,20454.2
27622,20448.8
27622,20338.6
27622.3,20333.2
27623.1,20327.8
27624.4,20322.6
27626.2,20317.5
27628.6,20312.6
27631.3,20308
27634.6,20303.6
27638.2,20299.6
27642.2,20296
27646.5,20292.8
27651.2,20290
27656.1,20287.7
27661.2,20285.8
27666.4,20284.5
27671.8,20283.7
27677.2,20283.5
27811,20283.5
Z" /> 
<path style="fill:#000000; fill-opacity:1.0; 
stroke:#000000; stroke-width:0; stroke-opacity:1; 
stroke-linecap:round; stroke-linejoin:round;fill-rule:evenodd;"
d="M 27816.4,19905.8
27821.8,19906.6
27827,19907.9
27832.1,19909.7
27837,19912
27841.6,19914.8
27846,19918
27850,19921.7
27853.6,19925.7
27856.9,19930
27859.6,19934.6
27861.9,19939.5
27863.8,19944.6
27865.1,19949.9
27865.9,19955.2
27866.1,19960.6
27866.1,20070.9
27865.9,20076.3
27865.1,20081.6
27863.8,20086.9
27861.9,20092
27859.6,20096.8
27856.9,20101.5
27853.6,20105.8
27850,20109.8
27846,20113.5
27841.6,20116.7
27837,20119.5
27832.1,20121.8
27827,20123.6
27821.8,20124.9
27816.4,20125.7
27811,20126
27677.2,20126
27671.8,20125.7
27666.4,20124.9
27661.2,20123.6
27656.1,20121.8
27651.2,20119.5
27646.5,20116.7
27642.2,20113.5
27638.2,20109.8
27634.6,20105.8
27631.3,20101.5
27628.6,20096.8
27626.2,20092
27624.4,20086.9
27623.1,20081.6
27622.3,20076.3
27622,20070.9
27622,19960.6
27622.3,19955.2
27623.1,19949.9
27624.4,19944.6
27626.2,19939.5
27628.6,19934.6
27631.3,19930
27634.6,19925.7
27638.2,19921.7
27642.2,19918
27646.5,19914.8
27651.2,19912
27656.1,19909.7
27661.2,19907.9
27666.4,19906.6
27671.8,19905.8
27677.2,19905.5
27811,19905.5
Z" /> 
</g>
<g >
</g>
<g style="fill:#000000; fill-opacity:1.0; 
stroke:#000000; stroke-width:0; stroke-opacity:1; 
stroke-linecap:round; stroke-linejoin:round;">
<path style="fill:#000000; fill-opacity:1.0; 
stroke:#000000; stroke-width:0; stroke-opacity:1; 
stroke-linecap:round; stroke-linejoin:round;fill-rule:evenodd;"
d="M 26871.5,20283.7
26876.9,20284.5
26882.1,20285.8
26887.2,20287.7
26892.1,20290
26896.8,20292.8
26901.1,20296
26905.1,20299.6
26908.7,20303.6
26912,20308
26914.8,20312.6
26917.1,20317.5
26918.9,20322.6
26920.2,20327.8
26921,20333.2
26921.3,20338.6
26921.3,20448.8
26921,20454.2
26920.2,20459.6
26918.9,20464.8
26917.1,20469.9
26914.8,20474.8
26912,20479.4
26908.7,20483.8
26905.1,20487.8
26901.1,20491.4
26896.8,20494.6
26892.1,20497.4
26887.2,20499.7
26882.1,20501.6
26876.9,20502.9
26871.5,20503.7
26866.1,20503.9
26732.3,20503.9
26726.9,20503.7
26721.5,20502.9
26716.3,20501.6
26711.2,20499.7
26706.3,20497.4
26701.7,20494.6
26697.3,20491.4
26693.3,20487.8
26689.7,20483.8
26686.5,20479.4
26683.7,20474.8
26681.4,20469.9
26679.5,20464.8
26678.2,20459.6
26677.4,20454.2
26677.2,20448.8
26677.2,20338.6
26677.4,20333.2
26678.2,20327.8
26679.5,20322.6
26681.4,20317.5
26683.7,20312.6
26686.5,20308
26689.7,20303.6
26693.3,20299.6
26697.3,20296
26701.7,20292.8
26706.3,20290
26711.2,20287.7
26716.3,20285.8
26721.5,20284.5
26726.9,20283.7
26732.3,20283.5
26866.1,20283.5
Z" /> 
<path style="fill:#000000; fill-opacity:1.0; 
stroke:#000000; stroke-width:0; stroke-opacity:1; 
stroke-linecap:round; stroke-linejoin:round;fill-rule:evenodd;"
d="M 26871.5,19905.8
26876.9,19906.6
26882.1,19907.9
26887.2,19909.7
26892.1,19912
26896.8,19914.8
26901.1,19918
26905.1,19921.7
26908.7,19925.7
26912,19930
26914.8,19934.6
26917.1,19939.5
26918.9,19944.6
26920.2,19949.9
26921,19955.2
26921.3,19960.6
26921.3,20070.9
26921,20076.3
26920.2,20081.6
26918.9,20086.9
26917.1,20092
26914.8,20096.8
26912,20101.5
26908.7,20105.8
26905.1,20109.8
26901.1,20113.5
26896.8,20116.7
26892.1,20119.5
26887.2,20121.8
26882.1,20123.6
26876.9,20124.9
26871.5,20125.7
26866.1,20126
26732.3,20126
26726.9,20125.7
26721.5,20124.9
26716.3,20123.6
26711.2,20121.8
26706.3,20119.5
26701.7,20116.7
26697.3,20113.5
26693.3,20109.8
26689.7,20105.8
26686.5,20101.5
26683.7,20096.8
26681.4,20092
26679.5,20086.9
26678.2,20081.6
26677.4,20076.3
26677.2,20070.9
26677.2,19960.6
26677.4,19955.2
26678.2,19949.9
26679.5,19944.6
26681.4,19939.5
26683.7,19934.6
26686.5,19930
26689.7,19925.7
26693.3,19921.7
26697.3,19918
26701.7,19914.8
26706.3,19912
26711.2,19909.7
26716.3,19907.9
26721.5,19906.6
26726.9,19905.8
26732.3,19905.5
26866.1,19905.5
Z" /> 
</g>
<g >
</g>
<g style="fill:#000000; fill-opacity:1.0; 
stroke:#000000; stroke-width:0; stroke-opacity:1; 
stroke-linecap:round; stroke-linejoin:round;">
<path style="fill:#000000; fill-opacity:1.0; 
stroke:#000000; stroke-width:0; stroke-opacity:1; 
stroke-linecap:round; stroke-linejoin:round;fill-rule:evenodd;"
d="M 26485.7,20283.7
26491.1,20284.5
26496.3,20285.8
26501.4,20287.7
26506.3,20290
26510.9,20292.8
26515.3,20296
26519.3,20299.6
26522.9,20303.6
26526.1,20308
26528.9,20312.6
26531.2,20317.5
26533.1,20322.6
26534.4,20327.8
26535.2,20333.2
26535.4,20338.6
26535.4,20448.8
26535.2,20454.2
26534.4,20459.6
26533.1,20464.8
26531.2,20469.9
26528.9,20474.8
26526.1,20479.4
26522.9,20483.8
26519.3,20487.8
26515.3,20491.4
26510.9,20494.6
26506.3,20497.4
26501.4,20499.7
26496.3,20501.6
26491.1,20502.9
26485.7,20503.7
26480.3,20503.9
26346.5,20503.9
26341.1,20503.7
26335.7,20502.9
26330.5,20501.6
26325.4,20499.7
26320.5,20497.4
26315.8,20494.6
26311.5,20491.4
26307.5,20487.8
26303.8,20483.8
26300.6,20479.4
26297.8,20474.8
26295.5,20469.9
26293.7,20464.8
26292.4,20459.6
26291.6,20454.2
26291.3,20448.8
26291.3,20338.6
26291.6,20333.2
26292.4,20327.8
26293.7,20322.6
26295.5,20317.5
26297.8,20312.6
26300.6,20308
26303.8,20303.6
26307.5,20299.6
26311.5,20296
26315.8,20292.8
26320.5,20290
26325.4,20287.7
26330.5,20285.8
26335.7,20284.5
26341.1,20283.7
26346.5,20283.5
26480.3,20283.5
Z" /> 
<path style="fill:#000000; fill-opacity:1.0; 
stroke:#000000; stroke-width:0; stroke-opacity:1; 
stroke-linecap:round; stroke-linejoin:round;fill-rule:evenodd;"
d="M 26485.7,19905.8
26491.1,19906.6
26496.3,19907.9
26501.4,19909.7
26506.3,19912
26510.9,19914.8
26515.3,19918
26519.3,19921.7
26522.9,19925.7
26526.1,19930
26528.9,19934.6
26531.2,19939.5
26533.1,19944.6
26534.4,19949.9
26535.2,19955.2
26535.4,19960.6
26535.4,20070.9
26535.2,20076.3
26534.4,20081.6
26533.1,20086.9
26531.2,20092
26528.9,20096.8
26526.1,20101.5
26522.9,20105.8
26519.3,20109.8
26515.3,20113.5
26510.9,20116.7
26506.3,20119.5
26501.4,20121.8
26496.3,20123.6
26491.1,20124.9
26485.7,20125.7
26480.3,20126
26346.5,20126
26341.1,20125.7
26335.7,20124.9
26330.5,20123.6
26325.4,20121.8
26320.5,20119.5
26315.8,20116.7
26311.5,20113.5
26307.5,20109.8
26303.8,20105.8
26300.6,20101.5
26297.8,20096.8
26295.5,20092
26293.7,20086.9
26292.4,20081.6
26291.6,20076.3
26291.3,20070.9
26291.3,19960.6
26291.6,19955.2
26292.4,19949.9
26293.7,19944.6
26295.5,19939.5
26297.8,19934.6
26300.6,19930
26303.8,19925.7
26307.5,19921.7
26311.5,19918
26315.8,19914.8
26320.5,19912
26325.4,19909.7
26330.5,19907.9
26335.7,19906.6
26341.1,19905.8
26346.5,19905.5
26480.3,19905.5
Z" /> 
</g>
<g >
</g>
<g style="fill:#000000; fill-opacity:1.0; 
stroke:#000000; stroke-width:0; stroke-opacity:1; 
stroke-linecap:round; stroke-linejoin:round;">
<path style="fill:#000000; fill-opacity:1.0; 
stroke:#000000; stroke-width:0; stroke-opacity:1; 
stroke-linecap:round; stroke-linejoin:round;fill-rule:evenodd;"
d="M 28107.8,16834.9
28113.1,16835.7
28118.4,16837
28123.5,16838.8
28128.3,16841.2
28133,16843.9
28137.3,16847.2
28141.3,16850.8
28145,16854.8
28148.2,16859.1
28151,16863.8
28153.3,16868.7
28155.1,16873.8
28156.4,16879
28157.2,16884.4
28157.5,16889.8
28157.5,17023.6
28157.2,17029
28156.4,17034.4
28155.1,17039.6
28153.3,17044.7
28151,17049.6
28148.2,17054.2
28145,17058.6
28141.3,17062.6
28137.3,17066.2
28133,17069.5
28128.3,17072.2
28123.5,17074.5
28118.4,17076.4
28113.1,17077.7
28107.8,17078.5
28102.4,17078.7
27992.1,17078.7
27986.7,17078.5
27981.4,17077.7
27976.1,17076.4
27971,17074.5
27966.1,17072.2
27961.5,17069.5
27957.2,17066.2
27953.2,17062.6
27949.5,17058.6
27946.3,17054.2
27943.5,17049.6
27941.2,17044.7
27939.4,17039.6
27938.1,17034.4
27937.3,17029
27937,17023.6
27937,16889.8
27937.3,16884.4
27938.1,16879
27939.4,16873.8
27941.2,16868.7
27943.5,16863.8
27946.3,16859.1
27949.5,16854.8
27953.2,16850.8
27957.2,16847.2
27961.5,16843.9
27966.1,16841.2
27971,16838.8
27976.1,16837
27981.4,16835.7
27986.7,16834.9
27992.1,16834.6
28102.4,16834.6
Z" /> 
<path style="fill:#000000; fill-opacity:1.0; 
stroke:#000000; stroke-width:0; stroke-opacity:1; 
stroke-linecap:round; stroke-linejoin:round;fill-rule:evenodd;"
d="M 27729.8,16834.9
27735.2,16835.7
27740.4,16837
27745.5,16838.8
27750.4,16841.2
27755,16843.9
27759.4,16847.2
27763.4,16850.8
27767,16854.8
27770.2,16859.1
27773,16863.8
27775.3,16868.7
27777.2,16873.8
27778.5,16879
27779.3,16884.4
27779.5,16889.8
27779.5,17023.6
27779.3,17029
27778.5,17034.4
27777.2,17039.6
27775.3,17044.7
27773,17049.6
27770.2,17054.2
27767,17058.6
27763.4,17062.6
27759.4,17066.2
27755,17069.5
27750.4,17072.2
27745.5,17074.5
27740.4,17076.4
27735.2,17077.7
27729.8,17078.5
27724.4,17078.7
27614.2,17078.7
27608.8,17078.5
27603.4,17077.7
27598.2,17076.4
27593.1,17074.5
27588.2,17072.2
27583.6,17069.5
27579.2,17066.2
27575.2,17062.6
27571.6,17058.6
27568.3,17054.2
27565.6,17049.6
27563.3,17044.7
27561.4,17039.6
27560.1,17034.4
27559.3,17029
27559.1,17023.6
27559.1,16889.8
27559.3,16884.4
27560.1,16879
27561.4,16873.8
27563.3,16868.7
27565.6,16863.8
27568.3,16859.1
27571.6,16854.8
27575.2,16850.8
27579.2,16847.2
27583.6,16843.9
27588.2,16841.2
27593.1,16838.8
27598.2,16837
27603.4,16835.7
27608.8,16834.9
27614.2,16834.6
27724.4,16834.6
Z" /> 
</g>
<g >
</g>
<g style="fill:#000000; fill-opacity:1.0; 
stroke:#000000; stroke-width:0; stroke-opacity:1; 
stroke-linecap:round; stroke-linejoin:round;">
<path style="fill:#000000; fill-opacity:1.0; 
stroke:#000000; stroke-width:0; stroke-opacity:1; 
stroke-linecap:round; stroke-linejoin:round;fill-rule:evenodd;"
d="M 29048.7,19488.5
29054.1,19489.2
29059.3,19490.6
29064.4,19492.4
29069.3,19494.7
29073.9,19497.5
29078.3,19500.7
29082.3,19504.3
29085.9,19508.3
29089.1,19512.7
29091.9,19517.3
29094.2,19522.2
29096.1,19527.3
29097.4,19532.6
29098.2,19537.9
29098.4,19543.3
29098.4,19677.2
29098.2,19682.6
29097.4,19687.9
29096.1,19693.2
29094.2,19698.3
29091.9,19703.1
29089.1,19707.8
29085.9,19712.1
29082.3,19716.1
29078.3,19719.8
29073.9,19723
29069.3,19725.8
29064.4,19728.1
29059.3,19729.9
29054.1,19731.2
29048.7,19732
29043.3,19732.3
28933.1,19732.3
28927.7,19732
28922.3,19731.2
28917.1,19729.9
28912,19728.1
28907.1,19725.8
28902.4,19723
28898.1,19719.8
28894.1,19716.1
28890.5,19712.1
28887.2,19707.8
28884.5,19703.1
28882.1,19698.3
28880.3,19693.2
28879,19687.9
28878.2,19682.6
28878,19677.2
28878,19543.3
28878.2,19537.9
28879,19532.6
28880.3,19527.3
28882.1,19522.2
28884.5,19517.3
28887.2,19512.7
28890.5,19508.3
28894.1,19504.3
28898.1,19500.7
28902.4,19497.5
28907.1,19494.7
28912,19492.4
28917.1,19490.6
28922.3,19489.2
28927.7,19488.5
28933.1,19488.2
29043.3,19488.2
Z" /> 
<path style="fill:#000000; fill-opacity:1.0; 
stroke:#000000; stroke-width:0; stroke-opacity:1; 
stroke-linecap:round; stroke-linejoin:round;fill-rule:evenodd;"
d="M 28670.8,19488.5
28676.1,19489.2
28681.4,19490.6
28686.4,19492.4
28691.3,19494.7
28696,19497.5
28700.3,19500.7
28704.3,19504.3
28708,19508.3
28711.2,19512.7
28714,19517.3
28716.3,19522.2
28718.1,19527.3
28719.4,19532.6
28720.2,19537.9
28720.5,19543.3
28720.5,19677.2
28720.2,19682.6
28719.4,19687.9
28718.1,19693.2
28716.3,19698.3
28714,19703.1
28711.2,19707.8
28708,19712.1
28704.3,19716.1
28700.3,19719.8
28696,19723
28691.3,19725.8
28686.4,19728.1
28681.4,19729.9
28676.1,19731.2
28670.8,19732
28665.4,19732.3
28555.1,19732.3
28549.7,19732
28544.4,19731.2
28539.1,19729.9
28534,19728.1
28529.1,19725.8
28524.5,19723
28520.2,19719.8
28516.1,19716.1
28512.5,19712.1
28509.3,19707.8
28506.5,19703.1
28504.2,19698.3
28502.4,19693.2
28501.1,19687.9
28500.3,19682.6
28500,19677.2
28500,19543.3
28500.3,19537.9
28501.1,19532.6
28502.4,19527.3
28504.2,19522.2
28506.5,19517.3
28509.3,19512.7
28512.5,19508.3
28516.1,19504.3
28520.2,19500.7
28524.5,19497.5
28529.1,19494.7
28534,19492.4
28539.1,19490.6
28544.4,19489.2
28549.7,19488.5
28555.1,19488.2
28665.4,19488.2
Z" /> 
</g>
<g >
</g>
<g >
</g>
<g >
</g>
<g >
</g>
<g >
</g>
<g >
</g>
<g >
</g>
<g >
</g>
<g >
</g>
<g >
</g>
<g >
</g>
<g >
</g>
<g >
</g>
<g >
</g>
<g >
</g>
<g >
</g>
<g >
</g>
<g >
</g>
<g >
</g>
<g >
</g>
<g >
</g>
<g >
</g>
<g >
</g>
<g >
</g>
<g >
</g>
<g >
</g>
<g >
</g>
<g >
</g>
<g >
</g>
<g >
</g>
<g >
</g>
<g style="fill:#000000; fill-opacity:1.0; 
stroke:#000000; stroke-width:0; stroke-opacity:1; 
stroke-linecap:round; stroke-linejoin:round;">
<path style="fill:#000000; fill-opacity:1.0; 
stroke:#000000; stroke-width:0; stroke-opacity:1; 
stroke-linecap:round; stroke-linejoin:round;fill-rule:evenodd;"
d="M 28080.2,18712.9
28085.6,18713.7
28090.8,18715
28095.9,18716.8
28100.8,18719.1
28105.4,18721.9
28109.8,18725.1
28113.8,18728.7
28117.4,18732.8
28120.6,18737.1
28123.4,18741.7
28125.7,18746.6
28127.5,18751.7
28128.9,18757
28129.7,18762.3
28129.9,18767.7
28129.9,18878
28129.7,18883.4
28128.9,18888.7
28127.5,18894
28125.7,18899
28123.4,18903.9
28120.6,18908.6
28117.4,18912.9
28113.8,18916.9
28109.8,18920.6
28105.4,18923.8
28100.8,18926.6
28095.9,18928.9
28090.8,18930.7
28085.6,18932
28080.2,18932.8
28074.8,18933.1
27940.9,18933.1
27935.5,18932.8
27930.2,18932
27924.9,18930.7
27919.9,18928.9
27915,18926.6
27910.3,18923.8
27906,18920.6
27902,18916.9
27898.3,18912.9
27895.1,18908.6
27892.3,18903.9
27890,18899
27888.2,18894
27886.9,18888.7
27886.1,18883.4
27885.8,18878
27885.8,18767.7
27886.1,18762.3
27886.9,18757
27888.2,18751.7
27890,18746.6
27892.3,18741.7
27895.1,18737.1
27898.3,18732.8
27902,18728.7
27906,18725.1
27910.3,18721.9
27915,18719.1
27919.9,18716.8
27924.9,18715
27930.2,18713.7
27935.5,18712.9
27940.9,18712.6
28074.8,18712.6
Z" /> 
<path style="fill:#000000; fill-opacity:1.0; 
stroke:#000000; stroke-width:0; stroke-opacity:1; 
stroke-linecap:round; stroke-linejoin:round;fill-rule:evenodd;"
d="M 28080.2,18334.9
28085.6,18335.7
28090.8,18337
28095.9,18338.8
28100.8,18341.2
28105.4,18343.9
28109.8,18347.2
28113.8,18350.8
28117.4,18354.8
28120.6,18359.1
28123.4,18363.8
28125.7,18368.7
28127.5,18373.8
28128.9,18379
28129.7,18384.4
28129.9,18389.8
28129.9,18500
28129.7,18505.4
28128.9,18510.8
28127.5,18516
28125.7,18521.1
28123.4,18526
28120.6,18530.6
28117.4,18535
28113.8,18539
28109.8,18542.6
28105.4,18545.8
28100.8,18548.6
28095.9,18550.9
28090.8,18552.7
28085.6,18554.1
28080.2,18554.9
28074.8,18555.1
27940.9,18555.1
27935.5,18554.9
27930.2,18554.1
27924.9,18552.7
27919.9,18550.9
27915,18548.6
27910.3,18545.8
27906,18542.6
27902,18539
27898.3,18535
27895.1,18530.6
27892.3,18526
27890,18521.1
27888.2,18516
27886.9,18510.8
27886.1,18505.4
27885.8,18500
27885.8,18389.8
27886.1,18384.4
27886.9,18379
27888.2,18373.8
27890,18368.7
27892.3,18363.8
27895.1,18359.1
27898.3,18354.8
27902,18350.8
27906,18347.2
27910.3,18343.9
27915,18341.2
27919.9,18338.8
27924.9,18337
27930.2,18335.7
27935.5,18334.9
27940.9,18334.6
28074.8,18334.6
Z" /> 
</g>
<g >
</g>
<g style="fill:#000000; fill-opacity:1.0; 
stroke:#000000; stroke-width:0; stroke-opacity:1; 
stroke-linecap:round; stroke-linejoin:round;">
<path style="fill:#000000; fill-opacity:1.0; 
stroke:#000000; stroke-width:0; stroke-opacity:1; 
stroke-linecap:round; stroke-linejoin:round;fill-rule:evenodd;"
d="M 28021.2,19071.1
28026.5,19071.9
28031.7,19073.2
28036.8,19075.1
28041.7,19077.4
28046.4,19080.2
28050.7,19083.4
28054.7,19087
28058.4,19091
28061.6,19095.4
28064.4,19100
28066.7,19104.9
28068.5,19110
28069.8,19115.2
28070.6,19120.6
28070.9,19126
28070.9,19259.8
28070.6,19265.2
28069.8,19270.6
28068.5,19275.8
28066.7,19280.9
28064.4,19285.8
28061.6,19290.5
28058.4,19294.8
28054.7,19298.8
28050.7,19302.4
28046.4,19305.7
28041.7,19308.5
28036.8,19310.8
28031.7,19312.6
28026.5,19313.9
28021.2,19314.7
28015.7,19315
27905.5,19315
27900.1,19314.7
27894.8,19313.9
27889.5,19312.6
27884.4,19310.8
27879.5,19308.5
27874.9,19305.7
27870.5,19302.4
27866.5,19298.8
27862.9,19294.8
27859.7,19290.5
27856.9,19285.8
27854.6,19280.9
27852.8,19275.8
27851.5,19270.6
27850.7,19265.2
27850.4,19259.8
27850.4,19126
27850.7,19120.6
27851.5,19115.2
27852.8,19110
27854.6,19104.9
27856.9,19100
27859.7,19095.4
27862.9,19091
27866.5,19087
27870.5,19083.4
27874.9,19080.2
27879.5,19077.4
27884.4,19075.1
27889.5,19073.2
27894.8,19071.9
27900.1,19071.1
27905.5,19070.9
28015.7,19070.9
Z" /> 
<path style="fill:#000000; fill-opacity:1.0; 
stroke:#000000; stroke-width:0; stroke-opacity:1; 
stroke-linecap:round; stroke-linejoin:round;fill-rule:evenodd;"
d="M 28399.1,19071.1
28404.5,19071.9
28409.7,19073.2
28414.8,19075.1
28419.7,19077.4
28424.3,19080.2
28428.7,19083.4
28432.7,19087
28436.3,19091
28439.5,19095.4
28442.3,19100
28444.6,19104.9
28446.4,19110
28447.8,19115.2
28448.6,19120.6
28448.8,19126
28448.8,19259.8
28448.6,19265.2
28447.8,19270.6
28446.4,19275.8
28444.6,19280.9
28442.3,19285.8
28439.5,19290.5
28436.3,19294.8
28432.7,19298.8
28428.7,19302.4
28424.3,19305.7
28419.7,19308.5
28414.8,19310.8
28409.7,19312.6
28404.5,19313.9
28399.1,19314.7
28393.7,19315
28283.5,19315
28278.1,19314.7
28272.7,19313.9
28267.5,19312.6
28262.4,19310.8
28257.5,19308.5
28252.8,19305.7
28248.5,19302.4
28244.5,19298.8
28240.9,19294.8
28237.6,19290.5
28234.9,19285.8
28232.5,19280.9
28230.7,19275.8
28229.4,19270.6
28228.6,19265.2
28228.3,19259.8
28228.3,19126
28228.6,19120.6
28229.4,19115.2
28230.7,19110
28232.5,19104.9
28234.9,19100
28237.6,19095.4
28240.9,19091
28244.5,19087
28248.5,19083.4
28252.8,19080.2
28257.5,19077.4
28262.4,19075.1
28267.5,19073.2
28272.7,19071.9
28278.1,19071.1
28283.5,19070.9
28393.7,19070.9
Z" /> 
</g>
<g >
</g>
<g style="fill:#000000; fill-opacity:1.0; 
stroke:#000000; stroke-width:0; stroke-opacity:1; 
stroke-linecap:round; stroke-linejoin:round;">
<path style="fill:#000000; fill-opacity:1.0; 
stroke:#000000; stroke-width:0; stroke-opacity:1; 
stroke-linecap:round; stroke-linejoin:round;fill-rule:evenodd;"
d="M 27529,17701.1
27534.4,17701.8
27539.6,17703.2
27544.7,17705
27549.6,17707.3
27554.2,17710.1
27558.6,17713.3
27562.6,17716.9
27566.2,17720.9
27569.5,17725.3
27572.2,17729.9
27574.5,17734.8
27576.4,17739.9
27577.7,17745.2
27578.5,17750.5
27578.7,17755.9
27578.7,17889.8
27578.5,17895.2
27577.7,17900.5
27576.4,17905.8
27574.5,17910.9
27572.2,17915.7
27569.5,17920.4
27566.2,17924.7
27562.6,17928.7
27558.6,17932.4
27554.2,17935.6
27549.6,17938.4
27544.7,17940.7
27539.6,17942.5
27534.4,17943.8
27529,17944.6
27523.6,17944.9
27413.4,17944.9
27408,17944.6
27402.6,17943.8
27397.4,17942.5
27392.3,17940.7
27387.4,17938.4
27382.8,17935.6
27378.4,17932.4
27374.4,17928.7
27370.8,17924.7
27367.6,17920.4
27364.8,17915.7
27362.5,17910.9
27360.6,17905.8
27359.3,17900.5
27358.5,17895.2
27358.3,17889.8
27358.3,17755.9
27358.5,17750.5
27359.3,17745.2
27360.6,17739.9
27362.5,17734.8
27364.8,17729.9
27367.6,17725.3
27370.8,17720.9
27374.4,17716.9
27378.4,17713.3
27382.8,17710.1
27387.4,17707.3
27392.3,17705
27397.4,17703.2
27402.6,17701.8
27408,17701.1
27413.4,17700.8
27523.6,17700.8
Z" /> 
<path style="fill:#000000; fill-opacity:1.0; 
stroke:#000000; stroke-width:0; stroke-opacity:1; 
stroke-linecap:round; stroke-linejoin:round;fill-rule:evenodd;"
d="M 27151.1,17701.1
27156.4,17701.8
27161.7,17703.2
27166.8,17705
27171.7,17707.3
27176.3,17710.1
27180.6,17713.3
27184.6,17716.9
27188.3,17720.9
27191.5,17725.3
27194.3,17729.9
27196.6,17734.8
27198.4,17739.9
27199.7,17745.2
27200.5,17750.5
27200.8,17755.9
27200.8,17889.8
27200.5,17895.2
27199.7,17900.5
27198.4,17905.8
27196.6,17910.9
27194.3,17915.7
27191.5,17920.4
27188.3,17924.7
27184.6,17928.7
27180.6,17932.4
27176.3,17935.6
27171.7,17938.4
27166.8,17940.7
27161.7,17942.5
27156.4,17943.8
27151.1,17944.6
27145.7,17944.9
27035.4,17944.9
27030,17944.6
27024.7,17943.8
27019.4,17942.5
27014.3,17940.7
27009.5,17938.4
27004.8,17935.6
27000.5,17932.4
26996.5,17928.7
26992.8,17924.7
26989.6,17920.4
26986.8,17915.7
26984.5,17910.9
26982.7,17905.8
26981.4,17900.5
26980.6,17895.2
26980.3,17889.8
26980.3,17755.9
26980.6,17750.5
26981.4,17745.2
26982.7,17739.9
26984.5,17734.8
26986.8,17729.9
26989.6,17725.3
26992.8,17720.9
26996.5,17716.9
27000.5,17713.3
27004.8,17710.1
27009.5,17707.3
27014.3,17705
27019.4,17703.2
27024.7,17701.8
27030,17701.1
27035.4,17700.8
27145.7,17700.8
Z" /> 
</g>
<g >
</g>
<g style="fill:#000000; fill-opacity:1.0; 
stroke:#000000; stroke-width:0; stroke-opacity:1; 
stroke-linecap:round; stroke-linejoin:round;">
<path style="fill:#000000; fill-opacity:1.0; 
stroke:#000000; stroke-width:0; stroke-opacity:1; 
stroke-linecap:round; stroke-linejoin:round;fill-rule:evenodd;"
d="M 26568.4,17850.7
26573.7,17851.5
26579,17852.8
26584.1,17854.6
26589,17856.9
26593.6,17859.7
26598,17862.9
26602,17866.5
26605.6,17870.5
26608.8,17874.9
26611.6,17879.5
26613.9,17884.4
26615.7,17889.5
26617.1,17894.8
26617.8,17900.1
26618.1,17905.5
26618.1,18039.4
26617.8,18044.8
26617.1,18050.1
26615.7,18055.4
26613.9,18060.5
26611.6,18065.4
26608.8,18070
26605.6,18074.3
26602,18078.3
26598,18082
26593.6,18085.2
26589,18088
26584.1,18090.3
26579,18092.1
26573.7,18093.4
26568.4,18094.2
26563,18094.5
26452.8,18094.5
26447.4,18094.2
26442,18093.4
26436.8,18092.1
26431.7,18090.3
26426.8,18088
26422.1,18085.2
26417.8,18082
26413.8,18078.3
26410.1,18074.3
26406.9,18070
26404.1,18065.4
26401.8,18060.5
26400,18055.4
26398.7,18050.1
26397.9,18044.8
26397.6,18039.4
26397.6,17905.5
26397.9,17900.1
26398.7,17894.8
26400,17889.5
26401.8,17884.4
26404.1,17879.5
26406.9,17874.9
26410.1,17870.5
26413.8,17866.5
26417.8,17862.9
26422.1,17859.7
26426.8,17856.9
26431.7,17854.6
26436.8,17852.8
26442,17851.5
26447.4,17850.7
26452.8,17850.4
26563,17850.4
Z" /> 
<path style="fill:#000000; fill-opacity:1.0; 
stroke:#000000; stroke-width:0; stroke-opacity:1; 
stroke-linecap:round; stroke-linejoin:round;fill-rule:evenodd;"
d="M 26190.4,17850.7
26195.8,17851.5
26201,17852.8
26206.1,17854.6
26211,17856.9
26215.7,17859.7
26220,17862.9
26224,17866.5
26227.6,17870.5
26230.9,17874.9
26233.6,17879.5
26236,17884.4
26237.8,17889.5
26239.1,17894.8
26239.9,17900.1
26240.2,17905.5
26240.2,18039.4
26239.9,18044.8
26239.1,18050.1
26237.8,18055.4
26236,18060.5
26233.6,18065.4
26230.9,18070
26227.6,18074.3
26224,18078.3
26220,18082
26215.7,18085.2
26211,18088
26206.1,18090.3
26201,18092.1
26195.8,18093.4
26190.4,18094.2
26185,18094.5
26074.8,18094.5
26069.4,18094.2
26064,18093.4
26058.8,18092.1
26053.7,18090.3
26048.8,18088
26044.2,18085.2
26039.8,18082
26035.8,18078.3
26032.2,18074.3
26029,18070
26026.2,18065.4
26023.9,18060.5
26022.1,18055.4
26020.7,18050.1
26020,18044.8
26019.7,18039.4
26019.7,17905.5
26020,17900.1
26020.7,17894.8
26022.1,17889.5
26023.9,17884.4
26026.2,17879.5
26029,17874.9
26032.2,17870.5
26035.8,17866.5
26039.8,17862.9
26044.2,17859.7
26048.8,17856.9
26053.7,17854.6
26058.8,17852.8
26064,17851.5
26069.4,17850.7
26074.8,17850.4
26185,17850.4
Z" /> 
</g>
<g >
</g>
<g style="fill:#000000; fill-opacity:1.0; 
stroke:#000000; stroke-width:0; stroke-opacity:1; 
stroke-linecap:round; stroke-linejoin:round;">
<path style="fill:#000000; fill-opacity:1.0; 
stroke:#000000; stroke-width:0; stroke-opacity:1; 
stroke-linecap:round; stroke-linejoin:round;fill-rule:evenodd;"
d="M 26572.3,18307.4
26577.7,18308.1
26582.9,18309.5
26588,18311.3
26592.9,18313.6
26597.6,18316.4
26601.9,18319.6
26605.9,18323.2
26609.5,18327.2
26612.8,18331.6
26615.5,18336.2
26617.9,18341.1
26619.7,18346.2
26621,18351.5
26621.8,18356.8
26622,18362.2
26622,18496.1
26621.8,18501.5
26621,18506.8
26619.7,18512.1
26617.9,18517.2
26615.5,18522
26612.8,18526.7
26609.5,18531
26605.9,18535
26601.9,18538.7
26597.6,18541.9
26592.9,18544.7
26588,18547
26582.9,18548.8
26577.7,18550.1
26572.3,18550.9
26566.9,18551.2
26456.7,18551.2
26451.3,18550.9
26445.9,18550.1
26440.7,18548.8
26435.6,18547
26430.7,18544.7
26426.1,18541.9
26421.7,18538.7
26417.7,18535
26414.1,18531
26410.9,18526.7
26408.1,18522
26405.8,18517.2
26403.9,18512.1
26402.6,18506.8
26401.8,18501.5
26401.6,18496.1
26401.6,18362.2
26401.8,18356.8
26402.6,18351.5
26403.9,18346.2
26405.8,18341.1
26408.1,18336.2
26410.9,18331.6
26414.1,18327.2
26417.7,18323.2
26421.7,18319.6
26426.1,18316.4
26430.7,18313.6
26435.6,18311.3
26440.7,18309.5
26445.9,18308.1
26451.3,18307.4
26456.7,18307.1
26566.9,18307.1
Z" /> 
<path style="fill:#000000; fill-opacity:1.0; 
stroke:#000000; stroke-width:0; stroke-opacity:1; 
stroke-linecap:round; stroke-linejoin:round;fill-rule:evenodd;"
d="M 26194.4,18307.4
26199.7,18308.1
26205,18309.5
26210.1,18311.3
26215,18313.6
26219.6,18316.4
26223.9,18319.6
26228,18323.2
26231.6,18327.2
26234.8,18331.6
26237.6,18336.2
26239.9,18341.1
26241.7,18346.2
26243,18351.5
26243.8,18356.8
26244.1,18362.2
26244.1,18496.1
26243.8,18501.5
26243,18506.8
26241.7,18512.1
26239.9,18517.2
26237.6,18522
26234.8,18526.7
26231.6,18531
26228,18535
26223.9,18538.7
26219.6,18541.9
26215,18544.7
26210.1,18547
26205,18548.8
26199.7,18550.1
26194.4,18550.9
26189,18551.2
26078.7,18551.2
26073.3,18550.9
26068,18550.1
26062.7,18548.8
26057.6,18547
26052.8,18544.7
26048.1,18541.9
26043.8,18538.7
26039.8,18535
26036.1,18531
26032.9,18526.7
26030.1,18522
26027.8,18517.2
26026,18512.1
26024.7,18506.8
26023.9,18501.5
26023.6,18496.1
26023.6,18362.2
26023.9,18356.8
26024.7,18351.5
26026,18346.2
26027.8,18341.1
26030.1,18336.2
26032.9,18331.6
26036.1,18327.2
26039.8,18323.2
26043.8,18319.6
26048.1,18316.4
26052.8,18313.6
26057.6,18311.3
26062.7,18309.5
26068,18308.1
26073.3,18307.4
26078.7,18307.1
26189,18307.1
Z" /> 
</g>
<g >
</g>
<g style="fill:#000000; fill-opacity:1.0; 
stroke:#000000; stroke-width:0; stroke-opacity:1; 
stroke-linecap:round; stroke-linejoin:round;">
<path style="fill:#000000; fill-opacity:1.0; 
stroke:#000000; stroke-width:0; stroke-opacity:1; 
stroke-linecap:round; stroke-linejoin:round;fill-rule:evenodd;"
d="M 25918.8,19992.4
25924.1,19993.2
25929.4,19994.5
25934.5,19996.3
25939.4,19998.6
25944,20001.4
25948.4,20004.6
25952.4,20008.3
25956,20012.3
25959.2,20016.6
25962,20021.3
25964.3,20026.2
25966.1,20031.2
25967.4,20036.5
25968.2,20041.8
25968.5,20047.2
25968.5,20157.5
25968.2,20162.9
25967.4,20168.2
25966.1,20173.5
25964.3,20178.6
25962,20183.5
25959.2,20188.1
25956,20192.4
25952.4,20196.5
25948.4,20200.1
25944,20203.3
25939.4,20206.1
25934.5,20208.4
25929.4,20210.2
25924.1,20211.5
25918.8,20212.3
25913.4,20212.6
25779.5,20212.6
25774.1,20212.3
25768.8,20211.5
25763.5,20210.2
25758.4,20208.4
25753.5,20206.1
25748.9,20203.3
25744.6,20200.1
25740.6,20196.5
25736.9,20192.4
25733.7,20188.1
25730.9,20183.5
25728.6,20178.6
25726.8,20173.5
25725.5,20168.2
25724.7,20162.9
25724.4,20157.5
25724.4,20047.2
25724.7,20041.8
25725.5,20036.5
25726.8,20031.2
25728.6,20026.2
25730.9,20021.3
25733.7,20016.6
25736.9,20012.3
25740.6,20008.3
25744.6,20004.6
25748.9,20001.4
25753.5,19998.6
25758.4,19996.3
25763.5,19994.5
25768.8,19993.2
25774.1,19992.4
25779.5,19992.1
25913.4,19992.1
Z" /> 
<path style="fill:#000000; fill-opacity:1.0; 
stroke:#000000; stroke-width:0; stroke-opacity:1; 
stroke-linecap:round; stroke-linejoin:round;fill-rule:evenodd;"
d="M 25918.8,19614.4
25924.1,19615.2
25929.4,19616.5
25934.5,19618.4
25939.4,19620.7
25944,19623.5
25948.4,19626.7
25952.4,19630.3
25956,19634.3
25959.2,19638.7
25962,19643.3
25964.3,19648.2
25966.1,19653.3
25967.4,19658.5
25968.2,19663.9
25968.5,19669.3
25968.5,19779.5
25968.2,19784.9
25967.4,19790.3
25966.1,19795.5
25964.3,19800.6
25962,19805.5
25959.2,19810.1
25956,19814.5
25952.4,19818.5
25948.4,19822.1
25944,19825.4
25939.4,19828.1
25934.5,19830.5
25929.4,19832.3
25924.1,19833.6
25918.8,19834.4
25913.4,19834.6
25779.5,19834.6
25774.1,19834.4
25768.8,19833.6
25763.5,19832.3
25758.4,19830.5
25753.5,19828.1
25748.9,19825.4
25744.6,19822.1
25740.6,19818.5
25736.9,19814.5
25733.7,19810.1
25730.9,19805.5
25728.6,19800.6
25726.8,19795.5
25725.5,19790.3
25724.7,19784.9
25724.4,19779.5
25724.4,19669.3
25724.7,19663.9
25725.5,19658.5
25726.8,19653.3
25728.6,19648.2
25730.9,19643.3
25733.7,19638.7
25736.9,19634.3
25740.6,19630.3
25744.6,19626.7
25748.9,19623.5
25753.5,19620.7
25758.4,19618.4
25763.5,19616.5
25768.8,19615.2
25774.1,19614.4
25779.5,19614.2
25913.4,19614.2
Z" /> 
</g>
<g >
</g>
<g >
</g>
<g >
</g>
<g >
</g>
<g >
</g>
<g >
</g>
<g >
</g>
<g >
</g>
<g >
</g>
<g >
</g>
<g >
</g>
<g >
</g>
<g >
</g>
<g >
</g>
<g >
</g>
<g >
</g>
<g >
</g>
<g >
</g>
<g >
</g>
<g >
</g>
<g >
</g>
<g >
</g>
<g >
</g>
<g >
</g>
<g >
</g>
<g >
</g>
<g >
</g>
<g >
</g>
<g >
</g>
<g >
</g>
<g >
</g>
<g >
</g>
<g >
</g>
<g >
</g>
<g >
</g>
<g >
</g>
<g >
</g>
<g >
</g>
<g >
</g>
<g >
</g>
<g >
</g>
<g >
</g>
<g >
</g>
<g >
</g>
<g >
</g>
<g >
</g>
</g> 
</svg>
