<?xml version="1.0" standalone="no"?>
 <!DOCTYPE svg PUBLIC "-//W3C//DTD SVG 1.1//EN" 
 "http://www.w3.org/Graphics/SVG/1.1/DTD/svg11.dtd"> 
<svg
  xmlns:svg="http://www.w3.org/2000/svg"
  xmlns="http://www.w3.org/2000/svg"
  xmlns:xlink="http://www.w3.org/1999/xlink"
  version="1.1"
  width="11.998960cm" height="11.998960cm" viewBox="0 0 47240 47240">
<title>SVG Picture created as eldriver-B_SilkS.svg date 2021/03/13 12:33:02 </title>
  <desc>Picture generated by PCBNEW </desc>
<g style="fill:#000000; fill-opacity:1;stroke:#000000; stroke-opacity:1;
stroke-linecap:round; stroke-linejoin:round;"
 transform="translate(0 0) scale(1 1)">
</g>
<g style="fill:#000000; fill-opacity:0.0; 
stroke:#000000; stroke-width:-0.000393701; stroke-opacity:1; 
stroke-linecap:round; stroke-linejoin:round;">
</g>
<g style="fill:#000000; fill-opacity:0.0; 
stroke:#000000; stroke-width:47.2441; stroke-opacity:1; 
stroke-linecap:round; stroke-linejoin:round;">
<path d="M25989 19346
L26073 19346
" />
<path d="M25989 19062
L26073 19062
" />
<path d="M25989 17665
L26073 17665
" />
<path d="M25989 17381
L26073 17381
" />
<path d="M25133 17834
L25048 17834
" />
<path d="M25133 18118
L25048 18118
" />
<path d="M25133 18220
L25048 18220
" />
<path d="M25133 18503
L25048 18503
" />
<path d="M25133 18992
L25048 18992
" />
<path d="M25133 19275
L25048 19275
" />
<path d="M25133 18606
L25048 18606
" />
<path d="M25133 18889
L25048 18889
" />
<path d="M28555 17098
L28640 17098
" />
<path d="M28555 16814
L28640 16814
" />
<path d="M28729 17484
L28814 17484
" />
<path d="M28729 17200
L28814 17200
" />
<path d="M26024 17153
L26109 17153
" />
<path d="M26024 16870
L26109 16870
" />
<path d="M27854 17814
L27854 17729
" />
<path d="M28137 17814
L28137 17729
" />
<path d="M26944 19007
L26859 19007
" />
<path d="M26944 18724
L26859 18724
" />
<path d="M27216 20162
L27216 20247
" />
<path d="M27500 20162
L27500 20247
" />
<path d="M29067 17905
L29152 17905
" />
<path d="M29067 17622
L29152 17622
" />
<path d="M29196 17012
L29196 17097
" />
<path d="M29480 17012
L29480 17097
" />
<path d="M29067 19220
L29152 19220
" />
<path d="M29067 18937
L29152 18937
" />
<path d="M29067 18826
L29152 18826
" />
<path d="M29067 18543
L29152 18543
" />
<path d="M29063 18291
L29148 18291
" />
<path d="M29063 18007
L29148 18007
" />
<path d="M26995 17098
L26910 17098
" />
<path d="M26995 16814
L26910 16814
" />
<path d="M29590 17012
L29590 17097
" />
<path d="M29874 17012
L29874 17097
" />
<path d="M27602 20162
L27602 20247
" />
<path d="M27885 20162
L27885 20247
" />
<path d="M26657 20162
L26657 20247
" />
<path d="M26940 20162
L26940 20247
" />
<path d="M26271 20162
L26271 20247
" />
<path d="M26555 20162
L26555 20247
" />
<path d="M27815 17098
L27900 17098
" />
<path d="M27815 16814
L27900 16814
" />
<path d="M28756 19751
L28841 19751
" />
<path d="M28756 19468
L28841 19468
" />
<path d="M27866 18591
L27866 18676
" />
<path d="M28149 18591
L28149 18676
" />
<path d="M28192 19051
L28107 19051
" />
<path d="M28192 19334
L28107 19334
" />
<path d="M27237 17964
L27321 17964
" />
<path d="M27237 17681
L27321 17681
" />
<path d="M26276 18114
L26361 18114
" />
<path d="M26276 17830
L26361 17830
" />
<path d="M26280 18570
L26365 18570
" />
<path d="M26280 18287
L26365 18287
" />
<path d="M25704 19870
L25704 19955
" />
<path d="M25988 19870
L25988 19955
" />
</g>
<g style="fill:#000000; fill-opacity:0.0; 
stroke:#000000; stroke-width:59.0551; stroke-opacity:1; 
stroke-linecap:round; stroke-linejoin:round;">
<text x="26031.5" y="19858.3"
transform="scale(-1 1) translate(-52062.992126 0)"
textLength="1066.84" font-size="524.934" lengthAdjust="spacingAndGlyphs"
text-anchor="middle" opacity="0">C17</text>
<path d="M26284 19802
L26303 19820
L26359 19839
L26397 19839
L26453 19820
L26490 19783
L26509 19745
L26528 19670
L26528 19614
L26509 19539
L26490 19502
L26453 19464
L26397 19445
L26359 19445
L26303 19464
L26284 19483
" />
<path d="M25909 19839
L26134 19839
" />
<path d="M26022 19839
L26022 19445
L26059 19502
L26097 19539
L26134 19558
" />
<path d="M25778 19445
L25515 19445
L25684 19839
" />
<text x="26031.5" y="18177.2"
transform="scale(-1 1) translate(-52062.992126 0)"
textLength="1066.84" font-size="524.934" lengthAdjust="spacingAndGlyphs"
text-anchor="middle" opacity="0">C38</text>
<path d="M26284 18120
L26303 18139
L26359 18158
L26397 18158
L26453 18139
L26490 18102
L26509 18064
L26528 17989
L26528 17933
L26509 17858
L26490 17820
L26453 17783
L26397 17764
L26359 17764
L26303 17783
L26284 17802
" />
<path d="M26153 17764
L25909 17764
L26040 17914
L25984 17914
L25947 17933
L25928 17952
L25909 17989
L25909 18083
L25928 18120
L25947 18139
L25984 18158
L26097 18158
L26134 18139
L26153 18120
" />
<path d="M25684 17933
L25722 17914
L25740 17895
L25759 17858
L25759 17839
L25740 17802
L25722 17783
L25684 17764
L25609 17764
L25572 17783
L25553 17802
L25534 17839
L25534 17858
L25553 17895
L25572 17914
L25609 17933
L25684 17933
L25722 17952
L25740 17970
L25759 18008
L25759 18083
L25740 18120
L25722 18139
L25684 18158
L25609 18158
L25572 18139
L25553 18120
L25534 18083
L25534 18008
L25553 17970
L25572 17952
L25609 17933
" />
<text x="25090.6" y="17716.5"
transform="scale(-1 1) translate(-50181.102362 0)"
textLength="1066.84" font-size="524.934" lengthAdjust="spacingAndGlyphs"
text-anchor="middle" opacity="0">C59</text>
<path d="M25343 17660
L25362 17679
L25418 17697
L25456 17697
L25512 17679
L25549 17641
L25568 17604
L25587 17529
L25587 17472
L25568 17397
L25549 17360
L25512 17322
L25456 17304
L25418 17304
L25362 17322
L25343 17341
" />
<path d="M24987 17304
L25174 17304
L25193 17491
L25174 17472
L25137 17454
L25043 17454
L25006 17472
L24987 17491
L24968 17529
L24968 17622
L24987 17660
L25006 17679
L25043 17697
L25137 17697
L25174 17679
L25193 17660
" />
<path d="M24781 17697
L24706 17697
L24668 17679
L24649 17660
L24612 17604
L24593 17529
L24593 17379
L24612 17341
L24631 17322
L24668 17304
L24743 17304
L24781 17322
L24799 17341
L24818 17379
L24818 17472
L24799 17510
L24781 17529
L24743 17547
L24668 17547
L24631 17529
L24612 17510
L24593 17472
" />
<text x="25090.6" y="18102.4"
transform="scale(-1 1) translate(-50181.102362 0)"
textLength="1066.84" font-size="524.934" lengthAdjust="spacingAndGlyphs"
text-anchor="middle" opacity="0">C58</text>
<path d="M25343 18046
L25362 18064
L25418 18083
L25456 18083
L25512 18064
L25549 18027
L25568 17989
L25587 17914
L25587 17858
L25568 17783
L25549 17746
L25512 17708
L25456 17689
L25418 17689
L25362 17708
L25343 17727
" />
<path d="M24987 17689
L25174 17689
L25193 17877
L25174 17858
L25137 17839
L25043 17839
L25006 17858
L24987 17877
L24968 17914
L24968 18008
L24987 18046
L25006 18064
L25043 18083
L25137 18083
L25174 18064
L25193 18046
" />
<path d="M24743 17858
L24781 17839
L24799 17821
L24818 17783
L24818 17764
L24799 17727
L24781 17708
L24743 17689
L24668 17689
L24631 17708
L24612 17727
L24593 17764
L24593 17783
L24612 17821
L24631 17839
L24668 17858
L24743 17858
L24781 17877
L24799 17896
L24818 17933
L24818 18008
L24799 18046
L24781 18064
L24743 18083
L24668 18083
L24631 18064
L24612 18046
L24593 18008
L24593 17933
L24612 17896
L24631 17877
L24668 17858
" />
<text x="25090.6" y="18874"
transform="scale(-1 1) translate(-50181.102362 0)"
textLength="1066.84" font-size="524.934" lengthAdjust="spacingAndGlyphs"
text-anchor="middle" opacity="0">C57</text>
<path d="M25343 18817
L25362 18836
L25418 18855
L25456 18855
L25512 18836
L25549 18799
L25568 18761
L25587 18686
L25587 18630
L25568 18555
L25549 18517
L25512 18480
L25456 18461
L25418 18461
L25362 18480
L25343 18499
" />
<path d="M24987 18461
L25174 18461
L25193 18649
L25174 18630
L25137 18611
L25043 18611
L25006 18630
L24987 18649
L24968 18686
L24968 18780
L24987 18817
L25006 18836
L25043 18855
L25137 18855
L25174 18836
L25193 18817
" />
<path d="M24837 18461
L24574 18461
L24743 18855
" />
<text x="25090.6" y="18488.2"
transform="scale(-1 1) translate(-50181.102362 0)"
textLength="1066.84" font-size="524.934" lengthAdjust="spacingAndGlyphs"
text-anchor="middle" opacity="0">C56</text>
<path d="M25343 18431
L25362 18450
L25418 18469
L25456 18469
L25512 18450
L25549 18413
L25568 18375
L25587 18300
L25587 18244
L25568 18169
L25549 18131
L25512 18094
L25456 18075
L25418 18075
L25362 18094
L25343 18113
" />
<path d="M24987 18075
L25174 18075
L25193 18263
L25174 18244
L25137 18225
L25043 18225
L25006 18244
L24987 18263
L24968 18300
L24968 18394
L24987 18431
L25006 18450
L25043 18469
L25137 18469
L25174 18450
L25193 18431
" />
<path d="M24631 18075
L24706 18075
L24743 18094
L24762 18113
L24799 18169
L24818 18244
L24818 18394
L24799 18431
L24781 18450
L24743 18469
L24668 18469
L24631 18450
L24612 18431
L24593 18394
L24593 18300
L24612 18263
L24631 18244
L24668 18225
L24743 18225
L24781 18244
L24799 18263
L24818 18300
" />
<text x="28598.4" y="17610.2"
transform="scale(-1 1) translate(-57196.850394 0)"
textLength="1066.84" font-size="524.934" lengthAdjust="spacingAndGlyphs"
text-anchor="middle" opacity="0">C55</text>
<path d="M28851 17553
L28870 17572
L28926 17591
L28964 17591
L29020 17572
L29057 17535
L29076 17497
L29095 17422
L29095 17366
L29076 17291
L29057 17254
L29020 17216
L28964 17197
L28926 17197
L28870 17216
L28851 17235
" />
<path d="M28495 17197
L28682 17197
L28701 17385
L28682 17366
L28645 17347
L28551 17347
L28514 17366
L28495 17385
L28476 17422
L28476 17516
L28495 17553
L28514 17572
L28551 17591
L28645 17591
L28682 17572
L28701 17553
" />
<path d="M28120 17197
L28307 17197
L28326 17385
L28307 17366
L28270 17347
L28176 17347
L28139 17366
L28120 17385
L28101 17422
L28101 17516
L28120 17553
L28139 17572
L28176 17591
L28270 17591
L28307 17572
L28326 17553
" />
<text x="28771.7" y="17996.1"
transform="scale(-1 1) translate(-57543.307087 0)"
textLength="1066.84" font-size="524.934" lengthAdjust="spacingAndGlyphs"
text-anchor="middle" opacity="0">C54</text>
<path d="M29024 17939
L29043 17958
L29099 17977
L29137 17977
L29193 17958
L29230 17921
L29249 17883
L29268 17808
L29268 17752
L29249 17677
L29230 17639
L29193 17602
L29137 17583
L29099 17583
L29043 17602
L29024 17621
" />
<path d="M28668 17583
L28856 17583
L28874 17771
L28856 17752
L28818 17733
L28724 17733
L28687 17752
L28668 17771
L28649 17808
L28649 17902
L28668 17939
L28687 17958
L28724 17977
L28818 17977
L28856 17958
L28874 17939
" />
<path d="M28312 17714
L28312 17977
" />
<path d="M28406 17564
L28499 17846
L28256 17846
" />
<text x="26066.9" y="17665.4"
transform="scale(-1 1) translate(-52133.858268 0)"
textLength="1066.84" font-size="524.934" lengthAdjust="spacingAndGlyphs"
text-anchor="middle" opacity="0">C34</text>
<path d="M26320 17609
L26338 17627
L26395 17646
L26432 17646
L26488 17627
L26526 17590
L26544 17552
L26563 17477
L26563 17421
L26544 17346
L26526 17309
L26488 17271
L26432 17252
L26395 17252
L26338 17271
L26320 17290
" />
<path d="M26188 17252
L25945 17252
L26076 17402
L26020 17402
L25982 17421
L25963 17440
L25945 17477
L25945 17571
L25963 17609
L25982 17627
L26020 17646
L26132 17646
L26170 17627
L26188 17609
" />
<path d="M25607 17384
L25607 17646
" />
<path d="M25701 17234
L25795 17515
L25551 17515
" />
<g transform="rotate(-90 28452.8 17771.7)">
<text x="28452.8" y="17968.5"
transform="scale(-1 1) translate(-56905.511811 0)"
textLength="1066.84" font-size="524.934" lengthAdjust="spacingAndGlyphs"
text-anchor="middle" opacity="0">C27</text>
</g>
<path d="M28593 17518
L28612 17499
L28630 17443
L28630 17406
L28612 17349
L28574 17312
L28537 17293
L28462 17274
L28405 17274
L28330 17293
L28293 17312
L28255 17349
L28237 17406
L28237 17443
L28255 17499
L28274 17518
" />
<path d="M28274 17668
L28255 17687
L28237 17724
L28237 17818
L28255 17856
L28274 17874
L28312 17893
L28349 17893
L28405 17874
L28630 17649
L28630 17893
" />
<path d="M28237 18024
L28237 18287
L28630 18118
" />
<text x="26901.6" y="18606.3"
transform="scale(-1 1) translate(-53803.149606 0)"
textLength="1066.84" font-size="524.934" lengthAdjust="spacingAndGlyphs"
text-anchor="middle" opacity="0">C31</text>
<path d="M27154 18550
L27173 18568
L27229 18587
L27267 18587
L27323 18568
L27360 18531
L27379 18493
L27398 18418
L27398 18362
L27379 18287
L27360 18250
L27323 18212
L27267 18193
L27229 18193
L27173 18212
L27154 18231
" />
<path d="M27023 18193
L26779 18193
L26910 18343
L26854 18343
L26817 18362
L26798 18381
L26779 18418
L26779 18512
L26798 18550
L26817 18568
L26854 18587
L26967 18587
L27004 18568
L27023 18550
" />
<path d="M26404 18587
L26629 18587
" />
<path d="M26517 18587
L26517 18193
L26554 18250
L26592 18287
L26629 18306
" />
<g transform="rotate(-90 26901.6 20204.7)">
<text x="26901.6" y="20401.6"
transform="scale(-1 1) translate(-53803.149606 0)"
textLength="1066.84" font-size="524.934" lengthAdjust="spacingAndGlyphs"
text-anchor="middle" opacity="0">C37</text>
</g>
<path d="M27042 19951
L27060 19932
L27079 19876
L27079 19839
L27060 19782
L27023 19745
L26985 19726
L26910 19707
L26854 19707
L26779 19726
L26742 19745
L26704 19782
L26685 19839
L26685 19876
L26704 19932
L26723 19951
" />
<path d="M26685 20082
L26685 20326
L26835 20195
L26835 20251
L26854 20289
L26873 20307
L26910 20326
L27004 20326
L27042 20307
L27060 20289
L27079 20251
L27079 20139
L27060 20101
L27042 20082
" />
<path d="M26685 20457
L26685 20720
L27079 20551
" />
<text x="29110.2" y="18417.3"
transform="scale(-1 1) translate(-58220.472441 0)"
textLength="1066.84" font-size="524.934" lengthAdjust="spacingAndGlyphs"
text-anchor="middle" opacity="0">C39</text>
<path d="M29363 18361
L29382 18379
L29438 18398
L29475 18398
L29532 18379
L29569 18342
L29588 18304
L29607 18229
L29607 18173
L29588 18098
L29569 18061
L29532 18023
L29475 18004
L29438 18004
L29382 18023
L29363 18042
" />
<path d="M29232 18004
L28988 18004
L29119 18154
L29063 18154
L29025 18173
L29007 18192
L28988 18229
L28988 18323
L29007 18361
L29025 18379
L29063 18398
L29175 18398
L29213 18379
L29232 18361
" />
<path d="M28800 18398
L28725 18398
L28688 18379
L28669 18361
L28632 18304
L28613 18229
L28613 18079
L28632 18042
L28650 18023
L28688 18004
L28763 18004
L28800 18023
L28819 18042
L28838 18079
L28838 18173
L28819 18211
L28800 18229
L28763 18248
L28688 18248
L28650 18229
L28632 18211
L28613 18173
" />
<g transform="rotate(-90 28881.9 17055.1)">
<text x="28881.9" y="17252"
transform="scale(-1 1) translate(-57763.779528 0)"
textLength="1066.84" font-size="524.934" lengthAdjust="spacingAndGlyphs"
text-anchor="middle" opacity="0">C40</text>
</g>
<path d="M29022 16802
L29041 16783
L29059 16727
L29059 16689
L29041 16633
L29003 16595
L28966 16577
L28891 16558
L28835 16558
L28760 16577
L28722 16595
L28685 16633
L28666 16689
L28666 16727
L28685 16783
L28703 16802
" />
<path d="M28797 17139
L29059 17139
" />
<path d="M28647 17045
L28928 16952
L28928 17195
" />
<path d="M28666 17420
L28666 17458
L28685 17495
L28703 17514
L28741 17533
L28816 17551
L28910 17551
L28985 17533
L29022 17514
L29041 17495
L29059 17458
L29059 17420
L29041 17383
L29022 17364
L28985 17345
L28910 17326
L28816 17326
L28741 17345
L28703 17364
L28685 17383
L28666 17420
" />
<text x="29110.2" y="19732.3"
transform="scale(-1 1) translate(-58220.472441 0)"
textLength="1066.84" font-size="524.934" lengthAdjust="spacingAndGlyphs"
text-anchor="middle" opacity="0">C16</text>
<path d="M29363 19676
L29382 19694
L29438 19713
L29475 19713
L29532 19694
L29569 19657
L29588 19619
L29607 19544
L29607 19488
L29588 19413
L29569 19376
L29532 19338
L29475 19319
L29438 19319
L29382 19338
L29363 19357
" />
<path d="M28988 19713
L29213 19713
" />
<path d="M29100 19713
L29100 19319
L29138 19376
L29175 19413
L29213 19432
" />
<path d="M28650 19319
L28725 19319
L28763 19338
L28782 19357
L28819 19413
L28838 19488
L28838 19638
L28819 19676
L28800 19694
L28763 19713
L28688 19713
L28650 19694
L28632 19676
L28613 19638
L28613 19544
L28632 19507
L28650 19488
L28688 19469
L28763 19469
L28800 19488
L28819 19507
L28838 19544
" />
<text x="29110.2" y="19338.6"
transform="scale(-1 1) translate(-58220.472441 0)"
textLength="1066.84" font-size="524.934" lengthAdjust="spacingAndGlyphs"
text-anchor="middle" opacity="0">C19</text>
<path d="M29363 19282
L29382 19301
L29438 19319
L29475 19319
L29532 19301
L29569 19263
L29588 19226
L29607 19151
L29607 19094
L29588 19019
L29569 18982
L29532 18944
L29475 18926
L29438 18926
L29382 18944
L29363 18963
" />
<path d="M28988 19319
L29213 19319
" />
<path d="M29100 19319
L29100 18926
L29138 18982
L29175 19019
L29213 19038
" />
<path d="M28800 19319
L28725 19319
L28688 19301
L28669 19282
L28632 19226
L28613 19151
L28613 19001
L28632 18963
L28650 18944
L28688 18926
L28763 18926
L28800 18944
L28819 18963
L28838 19001
L28838 19094
L28819 19132
L28800 19151
L28763 19169
L28688 19169
L28650 19151
L28632 19132
L28613 19094
" />
<text x="29106.3" y="18803.1"
transform="scale(-1 1) translate(-58212.598425 0)"
textLength="1066.84" font-size="524.934" lengthAdjust="spacingAndGlyphs"
text-anchor="middle" opacity="0">C42</text>
<path d="M29359 18746
L29378 18765
L29434 18784
L29471 18784
L29528 18765
L29565 18728
L29584 18690
L29603 18615
L29603 18559
L29584 18484
L29565 18446
L29528 18409
L29471 18390
L29434 18390
L29378 18409
L29359 18428
" />
<path d="M29021 18521
L29021 18784
" />
<path d="M29115 18371
L29209 18653
L28965 18653
" />
<path d="M28834 18428
L28815 18409
L28778 18390
L28684 18390
L28646 18409
L28628 18428
L28609 18465
L28609 18503
L28628 18559
L28853 18784
L28609 18784
" />
<text x="26952.8" y="16696.9"
transform="scale(-1 1) translate(-53905.511811 0)"
textLength="1066.84" font-size="524.934" lengthAdjust="spacingAndGlyphs"
text-anchor="middle" opacity="0">C22</text>
<path d="M27205 16640
L27224 16659
L27280 16678
L27318 16678
L27374 16659
L27412 16621
L27430 16584
L27449 16509
L27449 16453
L27430 16378
L27412 16340
L27374 16303
L27318 16284
L27280 16284
L27224 16303
L27205 16321
" />
<path d="M27055 16321
L27037 16303
L26999 16284
L26905 16284
L26868 16303
L26849 16321
L26830 16359
L26830 16396
L26849 16453
L27074 16678
L26830 16678
" />
<path d="M26680 16321
L26662 16303
L26624 16284
L26530 16284
L26493 16303
L26474 16321
L26455 16359
L26455 16396
L26474 16453
L26699 16678
L26455 16678
" />
<g transform="rotate(-90 29275.6 17055.1)">
<text x="29275.6" y="17252"
transform="scale(-1 1) translate(-58551.181102 0)"
textLength="1066.84" font-size="524.934" lengthAdjust="spacingAndGlyphs"
text-anchor="middle" opacity="0">C41</text>
</g>
<path d="M29416 16802
L29434 16783
L29453 16727
L29453 16689
L29434 16633
L29397 16595
L29359 16577
L29284 16558
L29228 16558
L29153 16577
L29116 16595
L29078 16633
L29059 16689
L29059 16727
L29078 16783
L29097 16802
" />
<path d="M29191 17139
L29453 17139
" />
<path d="M29041 17045
L29322 16952
L29322 17195
" />
<path d="M29453 17551
L29453 17326
" />
<path d="M29453 17439
L29059 17439
L29116 17401
L29153 17364
L29172 17326
" />
<g transform="rotate(-90 27287.4 20204.7)">
<text x="27287.4" y="20401.6"
transform="scale(-1 1) translate(-54574.803150 0)"
textLength="1066.84" font-size="524.934" lengthAdjust="spacingAndGlyphs"
text-anchor="middle" opacity="0">C26</text>
</g>
<path d="M27428 19951
L27446 19932
L27465 19876
L27465 19839
L27446 19782
L27409 19745
L27371 19726
L27296 19707
L27240 19707
L27165 19726
L27128 19745
L27090 19782
L27071 19839
L27071 19876
L27090 19932
L27109 19951
" />
<path d="M27109 20101
L27090 20120
L27071 20157
L27071 20251
L27090 20289
L27109 20307
L27146 20326
L27184 20326
L27240 20307
L27465 20082
L27465 20326
" />
<path d="M27071 20664
L27071 20589
L27090 20551
L27109 20532
L27165 20495
L27240 20476
L27390 20476
L27428 20495
L27446 20514
L27465 20551
L27465 20626
L27446 20664
L27428 20682
L27390 20701
L27296 20701
L27259 20682
L27240 20664
L27221 20626
L27221 20551
L27240 20514
L27259 20495
L27296 20476
" />
<g transform="rotate(-90 26342.5 20204.7)">
<text x="26342.5" y="20401.6"
transform="scale(-1 1) translate(-52685.039370 0)"
textLength="1066.84" font-size="524.934" lengthAdjust="spacingAndGlyphs"
text-anchor="middle" opacity="0">C30</text>
</g>
<path d="M26483 19951
L26501 19932
L26520 19876
L26520 19839
L26501 19782
L26464 19745
L26426 19726
L26351 19707
L26295 19707
L26220 19726
L26183 19745
L26145 19782
L26126 19839
L26126 19876
L26145 19932
L26164 19951
" />
<path d="M26126 20082
L26126 20326
L26276 20195
L26276 20251
L26295 20289
L26314 20307
L26351 20326
L26445 20326
L26483 20307
L26501 20289
L26520 20251
L26520 20139
L26501 20101
L26483 20082
" />
<path d="M26126 20570
L26126 20607
L26145 20645
L26164 20664
L26201 20682
L26276 20701
L26370 20701
L26445 20682
L26483 20664
L26501 20645
L26520 20607
L26520 20570
L26501 20532
L26483 20514
L26445 20495
L26370 20476
L26276 20476
L26201 20495
L26164 20514
L26145 20532
L26126 20570
" />
<g transform="rotate(-90 25956.7 20204.7)">
<text x="25956.7" y="20401.6"
transform="scale(-1 1) translate(-51913.385827 0)"
textLength="1066.84" font-size="524.934" lengthAdjust="spacingAndGlyphs"
text-anchor="middle" opacity="0">C33</text>
</g>
<path d="M26097 19951
L26116 19932
L26134 19876
L26134 19839
L26116 19782
L26078 19745
L26041 19726
L25966 19707
L25909 19707
L25834 19726
L25797 19745
L25759 19782
L25741 19839
L25741 19876
L25759 19932
L25778 19951
" />
<path d="M25741 20082
L25741 20326
L25891 20195
L25891 20251
L25909 20289
L25928 20307
L25966 20326
L26059 20326
L26097 20307
L26116 20289
L26134 20251
L26134 20139
L26116 20101
L26097 20082
" />
<path d="M25741 20457
L25741 20701
L25891 20570
L25891 20626
L25909 20664
L25928 20682
L25966 20701
L26059 20701
L26097 20682
L26116 20664
L26134 20626
L26134 20514
L26116 20476
L26097 20457
" />
<text x="27858.3" y="17610.2"
transform="scale(-1 1) translate(-55716.535433 0)"
textLength="1066.84" font-size="524.934" lengthAdjust="spacingAndGlyphs"
text-anchor="middle" opacity="0">C11</text>
<path d="M28111 17553
L28130 17572
L28186 17591
L28223 17591
L28280 17572
L28317 17535
L28336 17497
L28355 17422
L28355 17366
L28336 17291
L28317 17254
L28280 17216
L28223 17197
L28186 17197
L28130 17216
L28111 17235
" />
<path d="M27736 17591
L27961 17591
" />
<path d="M27848 17591
L27848 17197
L27886 17254
L27923 17291
L27961 17310
" />
<path d="M27361 17591
L27586 17591
" />
<path d="M27473 17591
L27473 17197
L27511 17254
L27548 17291
L27586 17310
" />
<text x="28799.2" y="20263.8"
transform="scale(-1 1) translate(-57598.425197 0)"
textLength="1066.84" font-size="524.934" lengthAdjust="spacingAndGlyphs"
text-anchor="middle" opacity="0">C20</text>
<path d="M29052 20207
L29071 20226
L29127 20245
L29164 20245
L29221 20226
L29258 20188
L29277 20151
L29296 20076
L29296 20020
L29277 19945
L29258 19907
L29221 19870
L29164 19851
L29127 19851
L29071 19870
L29052 19888
" />
<path d="M28902 19888
L28883 19870
L28846 19851
L28752 19851
L28714 19870
L28696 19888
L28677 19926
L28677 19963
L28696 20020
L28921 20245
L28677 20245
" />
<path d="M28433 19851
L28396 19851
L28358 19870
L28339 19888
L28321 19926
L28302 20001
L28302 20095
L28321 20170
L28339 20207
L28358 20226
L28396 20245
L28433 20245
L28471 20226
L28489 20207
L28508 20170
L28527 20095
L28527 20001
L28508 19926
L28489 19888
L28471 19870
L28433 19851
" />
<g transform="rotate(-90 27551.2 18633.9)">
<text x="27551.2" y="18830.7"
transform="scale(-1 1) translate(-55102.362205 0)"
textLength="1066.84" font-size="524.934" lengthAdjust="spacingAndGlyphs"
text-anchor="middle" opacity="0">C24</text>
</g>
<path d="M27691 18380
L27710 18362
L27729 18305
L27729 18268
L27710 18212
L27673 18174
L27635 18155
L27560 18137
L27504 18137
L27429 18155
L27391 18174
L27354 18212
L27335 18268
L27335 18305
L27354 18362
L27373 18380
" />
<path d="M27373 18530
L27354 18549
L27335 18586
L27335 18680
L27354 18718
L27373 18736
L27410 18755
L27448 18755
L27504 18736
L27729 18511
L27729 18755
" />
<path d="M27466 19093
L27729 19093
" />
<path d="M27316 18999
L27598 18905
L27598 19149
" />
<text x="28149.6" y="18933.1"
transform="scale(-1 1) translate(-56299.212598 0)"
textLength="1066.84" font-size="524.934" lengthAdjust="spacingAndGlyphs"
text-anchor="middle" opacity="0">C23</text>
<path d="M28402 18876
L28421 18895
L28477 18914
L28515 18914
L28571 18895
L28608 18858
L28627 18820
L28646 18745
L28646 18689
L28627 18614
L28608 18576
L28571 18539
L28515 18520
L28477 18520
L28421 18539
L28402 18558
" />
<path d="M28252 18558
L28233 18539
L28196 18520
L28102 18520
L28065 18539
L28046 18558
L28027 18595
L28027 18633
L28046 18689
L28271 18914
L28027 18914
" />
<path d="M27896 18520
L27652 18520
L27784 18670
L27727 18670
L27690 18689
L27671 18708
L27652 18745
L27652 18839
L27671 18876
L27690 18895
L27727 18914
L27840 18914
L27877 18895
L27896 18876
" />
<text x="27279.5" y="18476.4"
transform="scale(-1 1) translate(-54559.055118 0)"
textLength="1066.84" font-size="524.934" lengthAdjust="spacingAndGlyphs"
text-anchor="middle" opacity="0">C21</text>
<path d="M27532 18420
L27551 18438
L27607 18457
L27645 18457
L27701 18438
L27738 18401
L27757 18363
L27776 18288
L27776 18232
L27757 18157
L27738 18120
L27701 18082
L27645 18063
L27607 18063
L27551 18082
L27532 18101
" />
<path d="M27382 18101
L27363 18082
L27326 18063
L27232 18063
L27195 18082
L27176 18101
L27157 18138
L27157 18176
L27176 18232
L27401 18457
L27157 18457
" />
<path d="M26782 18457
L27007 18457
" />
<path d="M26895 18457
L26895 18063
L26932 18120
L26970 18157
L27007 18176
" />
<text x="26318.9" y="18626"
transform="scale(-1 1) translate(-52637.795276 0)"
textLength="1066.84" font-size="524.934" lengthAdjust="spacingAndGlyphs"
text-anchor="middle" opacity="0">C18</text>
<path d="M26571 18569
L26590 18588
L26646 18607
L26684 18607
L26740 18588
L26778 18550
L26796 18513
L26815 18438
L26815 18382
L26796 18307
L26778 18269
L26740 18232
L26684 18213
L26646 18213
L26590 18232
L26571 18251
" />
<path d="M26197 18607
L26422 18607
" />
<path d="M26309 18607
L26309 18213
L26347 18269
L26384 18307
L26422 18326
" />
<path d="M25972 18382
L26009 18363
L26028 18344
L26047 18307
L26047 18288
L26028 18251
L26009 18232
L25972 18213
L25897 18213
L25859 18232
L25840 18251
L25822 18288
L25822 18307
L25840 18344
L25859 18363
L25897 18382
L25972 18382
L26009 18401
L26028 18419
L26047 18457
L26047 18532
L26028 18569
L26009 18588
L25972 18607
L25897 18607
L25859 18588
L25840 18569
L25822 18532
L25822 18457
L25840 18419
L25859 18401
L25897 18382
" />
<text x="26322.8" y="19082.7"
transform="scale(-1 1) translate(-52645.669291 0)"
textLength="1066.84" font-size="524.934" lengthAdjust="spacingAndGlyphs"
text-anchor="middle" opacity="0">C13</text>
<path d="M26575 19026
L26594 19045
L26650 19063
L26688 19063
L26744 19045
L26782 19007
L26800 18970
L26819 18895
L26819 18838
L26800 18763
L26782 18726
L26744 18688
L26688 18670
L26650 18670
L26594 18688
L26575 18707
" />
<path d="M26200 19063
L26425 19063
" />
<path d="M26313 19063
L26313 18670
L26350 18726
L26388 18763
L26425 18782
" />
<path d="M26069 18670
L25826 18670
L25957 18820
L25901 18820
L25863 18838
L25844 18857
L25826 18895
L25826 18988
L25844 19026
L25863 19045
L25901 19063
L26013 19063
L26050 19045
L26069 19026
" />
<g transform="rotate(-90 25389.8 19913.4)">
<text x="25389.8" y="20110.2"
transform="scale(-1 1) translate(-50779.527559 0)"
textLength="1066.84" font-size="524.934" lengthAdjust="spacingAndGlyphs"
text-anchor="middle" opacity="0">C12</text>
</g>
<path d="M25530 19660
L25549 19641
L25567 19585
L25567 19547
L25549 19491
L25511 19454
L25474 19435
L25399 19416
L25342 19416
L25267 19435
L25230 19454
L25192 19491
L25174 19547
L25174 19585
L25192 19641
L25211 19660
" />
<path d="M25567 20035
L25567 19810
" />
<path d="M25567 19922
L25174 19922
L25230 19885
L25267 19847
L25286 19810
" />
<path d="M25211 20185
L25192 20203
L25174 20241
L25174 20335
L25192 20372
L25211 20391
L25249 20410
L25286 20410
L25342 20391
L25567 20166
L25567 20410
" />
<g >
</g>
</g> 
</svg>
